<svg xmlns="http://www.w3.org/2000/svg" viewBox="0 0 191 58.6872065083" fill="none" aria-labelledby="title-app-store" width="191" height="58.6872065083"><title>Download the Octopus Energy app on the App Store</title><g clip-path="url(#a)"><path d="M153.701 0H13.306c-.511 0-1.017 0-1.527.003-.428.003-.851.01-1.283.018C9.56.03 8.624.114 7.7.268a9.281 9.281 0 0 0-2.653.878 8.986 8.986 0 0 0-2.26 1.65 8.76 8.76 0 0 0-1.644 2.27A9.262 9.262 0 0 0 .271 7.73a18.246 18.246 0 0 0-.25 2.803c-.013.43-.014.86-.021 1.29v32.36c.007.434.008.855.021 1.29.011.939.095 1.876.25 2.802.154.928.448 1.828.872 2.666a8.69 8.69 0 0 0 1.645 2.26 8.756 8.756 0 0 0 2.259 1.65c.835.427 1.73.724 2.653.884.924.152 1.86.235 2.796.247.431.01.855.015 1.283.015.51.003 1.016.003 1.527.003h140.395c.502 0 1.011 0 1.513-.003.425 0 .861-.005 1.287-.015a18.481 18.481 0 0 0 2.791-.247 9.475 9.475 0 0 0 2.663-.883 8.777 8.777 0 0 0 2.257-1.65 8.958 8.958 0 0 0 1.649-2.26c.421-.84.712-1.739.864-2.667.155-.926.242-1.863.259-2.802.005-.435.005-.856.005-1.29.011-.51.011-1.015.011-1.532v-29.3c0-.513 0-1.022-.011-1.529 0-.43 0-.86-.005-1.29a19.08 19.08 0 0 0-.259-2.802 9.296 9.296 0 0 0-.864-2.665 9.044 9.044 0 0 0-3.906-3.92 9.424 9.424 0 0 0-2.663-.877 18.153 18.153 0 0 0-2.791-.248c-.426-.006-.862-.015-1.287-.017C154.712 0 154.203 0 153.701 0Z" fill="#A6A6A6"></path><path d="M11.785 54.775c-.425 0-.84-.005-1.262-.015a17.648 17.648 0 0 1-2.608-.228 8.192 8.192 0 0 1-2.312-.767 7.545 7.545 0 0 1-1.95-1.424 7.449 7.449 0 0 1-1.424-1.955 8.03 8.03 0 0 1-.758-2.32 17.433 17.433 0 0 1-.232-2.625 128.27 128.27 0 0 1-.02-1.278v-32.34s.012-.969.02-1.253c.01-.879.088-1.755.23-2.621.134-.81.39-1.595.76-2.327a7.522 7.522 0 0 1 1.416-1.957 7.769 7.769 0 0 1 1.957-1.432 8.109 8.109 0 0 1 2.307-.761c.866-.142 1.74-.219 2.618-.23l1.259-.017h143.421l1.274.018c.869.01 1.736.086 2.594.227a8.269 8.269 0 0 1 2.332.767 7.818 7.818 0 0 1 3.37 3.388c.364.728.616 1.506.747 2.309.145.873.226 1.756.243 2.642.004.396.004.822.004 1.246.011.525.011 1.025.011 1.529v29.3c0 .508 0 1.005-.011 1.505 0 .455 0 .872-.006 1.302-.016.87-.096 1.736-.238 2.595a8.084 8.084 0 0 1-.754 2.338 7.676 7.676 0 0 1-1.417 1.94 7.562 7.562 0 0 1-1.953 1.431 8.169 8.169 0 0 1-2.328.77 17.47 17.47 0 0 1-2.609.228c-.408.01-.836.015-1.252.015l-1.513.003-141.916-.003Z" fill="#000"></path><path d="M34.567 28.421a6.945 6.945 0 0 1 .9-3.33 6.918 6.918 0 0 1 2.389-2.483 7.052 7.052 0 0 0-5.57-3.02c-2.344-.247-4.616 1.406-5.81 1.406-1.217 0-3.056-1.382-5.036-1.341a7.4 7.4 0 0 0-3.623 1.084 7.43 7.43 0 0 0-2.62 2.735c-2.698 4.688-.685 11.577 1.9 15.366 1.294 1.856 2.806 3.928 4.784 3.855 1.936-.08 2.659-1.238 4.995-1.238 2.315 0 2.993 1.238 5.012 1.191 2.077-.034 3.386-1.864 4.634-3.737a15.365 15.365 0 0 0 2.119-4.33 6.678 6.678 0 0 1-2.961-2.464 6.71 6.71 0 0 1-1.113-3.694ZM30.755 17.095a6.835 6.835 0 0 0 1.555-4.887 6.911 6.911 0 0 0-4.476 2.324 6.498 6.498 0 0 0-1.596 4.706 5.707 5.707 0 0 0 4.517-2.143ZM59.036 37.995H52.43l-1.586 4.7h-2.798l6.257-17.386h2.907l6.257 17.385H60.62l-1.585-4.699Zm-5.922-2.168h5.236l-2.58-7.626h-.073l-2.583 7.626ZM76.98 36.358c0 3.939-2.102 6.47-5.273 6.47a4.272 4.272 0 0 1-2.306-.537 4.29 4.29 0 0 1-1.67-1.681h-.06v6.278h-2.594V30.019h2.51v2.108h.049a4.47 4.47 0 0 1 4.023-2.24c3.207 0 5.32 2.543 5.32 6.47Zm-2.666 0c0-2.567-1.322-4.254-3.34-4.254-1.981 0-3.314 1.723-3.314 4.254 0 2.553 1.333 4.264 3.315 4.264 2.017 0 3.339-1.675 3.339-4.264ZM90.886 36.358c0 3.939-2.102 6.47-5.273 6.47a4.272 4.272 0 0 1-3.975-2.219h-.06v6.279h-2.594V30.019h2.51v2.108h.048a4.471 4.471 0 0 1 4.023-2.24c3.207 0 5.321 2.543 5.321 6.47Zm-2.666 0c0-2.567-1.322-4.254-3.339-4.254-1.981 0-3.314 1.723-3.314 4.254 0 2.553 1.333 4.264 3.314 4.264 2.017 0 3.34-1.675 3.34-4.264ZM100.077 37.85c.192 1.725 1.862 2.857 4.143 2.857 2.186 0 3.759-1.132 3.759-2.687 0-1.35-.948-2.157-3.194-2.711l-2.246-.543c-3.183-.771-4.66-2.264-4.66-4.687 0-3 2.606-5.06 6.306-5.06 3.662 0 6.172 2.06 6.257 5.06h-2.618c-.157-1.735-1.587-2.782-3.676-2.782-2.089 0-3.519 1.06-3.519 2.602 0 1.23.913 1.952 3.147 2.506l1.909.47c3.556.844 5.033 2.277 5.033 4.82 0 3.252-2.582 5.29-6.69 5.29-3.843 0-6.438-1.99-6.606-5.135h2.655ZM116.316 27.02v3h2.402v2.06h-2.402v6.987c0 1.086.481 1.592 1.537 1.592.285-.005.57-.025.853-.06v2.048a7.09 7.09 0 0 1-1.44.12c-2.558 0-3.556-.964-3.556-3.422V32.08h-1.837v-2.06h1.837v-3h2.606ZM120.11 36.358c0-3.988 2.341-6.494 5.993-6.494 3.663 0 5.993 2.506 5.993 6.494 0 3.999-2.318 6.494-5.993 6.494-3.675 0-5.993-2.495-5.993-6.494Zm9.344 0c0-2.736-1.25-4.35-3.351-4.35-2.102 0-3.35 1.626-3.35 4.35 0 2.746 1.248 4.349 3.35 4.349 2.101 0 3.351-1.603 3.351-4.35ZM134.235 30.02h2.473v2.157h.06a3.026 3.026 0 0 1 1.115-1.687 3.005 3.005 0 0 1 1.924-.603c.299-.001.597.031.889.097v2.433a3.614 3.614 0 0 0-1.165-.157 2.604 2.604 0 0 0-2.02.835 2.624 2.624 0 0 0-.683 2.081v7.518h-2.593V30.02ZM152.654 38.972c-.349 2.3-2.583 3.88-5.441 3.88-3.675 0-5.957-2.47-5.957-6.434 0-3.976 2.294-6.555 5.848-6.555 3.496 0 5.694 2.41 5.694 6.253v.891h-8.924v.157a3.31 3.31 0 0 0 .892 2.565 3.29 3.29 0 0 0 2.507 1.026 2.853 2.853 0 0 0 2.918-1.783h2.463Zm-8.767-3.783h6.316a3.046 3.046 0 0 0-3.099-3.217 3.192 3.192 0 0 0-2.975 1.982 3.208 3.208 0 0 0-.242 1.235ZM52.79 12.223a3.674 3.674 0 0 1 2.938 1.145 3.7 3.7 0 0 1 .98 3.006c0 2.669-1.438 4.203-3.919 4.203h-3.008v-8.354h3.008Zm-1.715 7.173h1.57a2.61 2.61 0 0 0 2.085-.847 2.63 2.63 0 0 0 .66-2.158 2.642 2.642 0 0 0-.67-2.143 2.627 2.627 0 0 0-2.075-.844h-1.57v5.992ZM58.168 17.422a2.997 2.997 0 0 1 .76-2.293 2.978 2.978 0 0 1 2.204-.978 2.969 2.969 0 0 1 2.203.978 2.988 2.988 0 0 1 .76 2.293 2.995 2.995 0 0 1-.758 2.297 2.98 2.98 0 0 1-2.205.98 2.97 2.97 0 0 1-2.205-.98 2.99 2.99 0 0 1-.759-2.297Zm4.652 0c0-1.366-.612-2.165-1.686-2.165-1.078 0-1.684.799-1.684 2.165 0 1.377.606 2.17 1.684 2.17 1.074 0 1.686-.798 1.686-2.17ZM71.974 20.577h-1.286l-1.3-4.643h-.097l-1.293 4.643h-1.275l-1.732-6.304h1.258l1.126 4.81h.092l1.292-4.81h1.19l1.292 4.81h.098l1.12-4.81h1.24l-1.725 6.304ZM75.157 14.273h1.193v1.001h.093a1.885 1.885 0 0 1 1.875-1.123 2.036 2.036 0 0 1 1.65.648 2.053 2.053 0 0 1 .525 1.697v4.08h-1.24v-3.768c0-1.013-.439-1.517-1.356-1.517a1.437 1.437 0 0 0-1.433.983 1.45 1.45 0 0 0-.067.615v3.688h-1.24v-6.304ZM82.47 11.812h1.24v8.765h-1.24v-8.765ZM85.434 17.422a2.996 2.996 0 0 1 .76-2.293 2.978 2.978 0 0 1 2.204-.978 2.97 2.97 0 0 1 2.203.978 2.989 2.989 0 0 1 .76 2.293 2.995 2.995 0 0 1-.758 2.297 2.978 2.978 0 0 1-2.205.98 2.969 2.969 0 0 1-2.205-.98 2.988 2.988 0 0 1-.76-2.297Zm4.651 0c0-1.366-.612-2.165-1.685-2.165-1.079 0-1.685.799-1.685 2.165 0 1.377.606 2.17 1.684 2.17 1.074 0 1.686-.798 1.686-2.17ZM92.667 18.794c0-1.135.843-1.789 2.338-1.882l1.702-.098v-.544c0-.666-.439-1.042-1.287-1.042-.692 0-1.172.255-1.31.7h-1.2c.127-1.082 1.142-1.777 2.568-1.777 1.575 0 2.464.787 2.464 2.119v4.307h-1.194v-.886h-.098a2.116 2.116 0 0 1-1.888.99 1.891 1.891 0 0 1-1.465-.477 1.904 1.904 0 0 1-.63-1.41Zm4.04-.539v-.527l-1.535.099c-.865.058-1.258.353-1.258.909 0 .567.491.898 1.166.898a1.477 1.477 0 0 0 1.47-.808 1.49 1.49 0 0 0 .157-.57ZM99.572 17.422c0-1.992 1.02-3.254 2.608-3.254a2.066 2.066 0 0 1 1.927 1.106h.093v-3.462h1.24v8.765h-1.188v-.996h-.098a2.186 2.186 0 0 1-1.974 1.1c-1.599 0-2.608-1.262-2.608-3.259Zm1.281 0c0 1.337.628 2.142 1.679 2.142 1.045 0 1.691-.816 1.691-2.137 0-1.313-.653-2.141-1.691-2.141-1.044 0-1.679.81-1.679 2.136ZM110.571 17.422a3.004 3.004 0 0 1 .761-2.293 2.98 2.98 0 0 1 2.203-.978 2.965 2.965 0 0 1 2.203.978 2.99 2.99 0 0 1 .76 2.293 2.981 2.981 0 0 1-2.963 3.276 2.97 2.97 0 0 1-2.205-.98 2.999 2.999 0 0 1-.759-2.296Zm4.652 0c0-1.366-.612-2.165-1.686-2.165-1.078 0-1.685.799-1.685 2.165 0 1.377.607 2.17 1.685 2.17 1.074 0 1.686-.798 1.686-2.17ZM118.162 14.273h1.194v1.001h.093a1.88 1.88 0 0 1 1.875-1.123 2.04 2.04 0 0 1 2.105 1.436c.091.294.115.605.07.909v4.08h-1.24v-3.768c0-1.013-.439-1.517-1.356-1.517a1.434 1.434 0 0 0-1.116.453 1.437 1.437 0 0 0-.384 1.145v3.688h-1.241v-6.304ZM130.507 12.703v1.599h1.362v1.047h-1.362v3.242c0 .66.271.95.889.95.158-.001.316-.01.473-.03v1.037c-.223.04-.449.061-.675.064-1.379 0-1.928-.487-1.928-1.702v-3.56h-.998V14.3h.998v-1.598h1.241ZM133.563 11.812h1.229v3.474h.098a1.93 1.93 0 0 1 1.916-1.13 2.064 2.064 0 0 1 1.633.665 2.08 2.08 0 0 1 .532 1.686v4.07h-1.242v-3.763c0-1.007-.467-1.517-1.344-1.517a1.464 1.464 0 0 0-1.5.967 1.471 1.471 0 0 0-.082.631v3.682h-1.24v-8.765ZM146.202 18.875a2.545 2.545 0 0 1-2.723 1.824 2.85 2.85 0 0 1-2.805-2.026 2.866 2.866 0 0 1-.098-1.228 2.914 2.914 0 0 1 1.692-3.042c.379-.17.79-.255 1.206-.252 1.748 0 2.803 1.199 2.803 3.178v.434h-4.438v.07a1.671 1.671 0 0 0 1.001 1.671c.212.091.442.137.673.135a1.505 1.505 0 0 0 1.495-.764h1.194Zm-4.363-2.032h3.175a1.522 1.522 0 0 0-1.547-1.633 1.599 1.599 0 0 0-1.157.472 1.628 1.628 0 0 0-.471 1.16Z" fill="#fff"></path></g><defs><clipPath id="a"><path fill="#fff" d="M0 0h167v56H0z"></path></clipPath></defs></svg>