<svg xmlns="http://www.w3.org/2000/svg" size="24" viewBox="0 0 30 30" fill="none" role="presentation" class="sc-aXZVg iTzIsZ"><path fill="#F0FFFF" d="M15.003 7.382A7.605 7.605 0 0 0 7.387 15c0 4.217 3.4 7.618 7.616 7.618A7.605 7.605 0 0 0 22.62 15c0-4.217-3.4-7.618-7.617-7.618Zm0 12.57A4.961 4.961 0 0 1 10.052 15a4.957 4.957 0 0 1 4.951-4.953A4.957 4.957 0 0 1 19.955 15a4.961 4.961 0 0 1-4.952 4.953ZM24.708 7.07c0 .988-.795 1.777-1.776 1.777a1.777 1.777 0 1 1 1.777-1.777Zm5.045 1.803c-.113-2.38-.657-4.488-2.4-6.225C25.616.91 23.508.366 21.128.248c-2.452-.14-9.804-.14-12.256 0C6.498.36 4.39.903 2.647 2.64.904 4.378.367 6.487.247 8.867c-.139 2.453-.139 9.806 0 12.26.113 2.38.657 4.488 2.4 6.226 1.743 1.737 3.845 2.28 6.225 2.4 2.452.139 9.804.139 12.256 0 2.38-.113 4.488-.657 6.225-2.4 1.737-1.738 2.28-3.846 2.4-6.227.139-2.453.139-9.8 0-12.253ZM26.584 23.76a5.014 5.014 0 0 1-2.824 2.824c-1.955.776-6.596.597-8.757.597-2.16 0-6.808.172-8.757-.597a5.014 5.014 0 0 1-2.823-2.824c-.776-1.956-.597-6.598-.597-8.759 0-2.162-.172-6.81.597-8.759a5.014 5.014 0 0 1 2.823-2.824c1.956-.776 6.596-.597 8.757-.597 2.161 0 6.808-.172 8.757.597 1.3.517 2.3 1.518 2.824 2.824.776 1.956.597 6.598.597 8.759 0 2.162.179 6.81-.597 8.759Z"></path></svg>