<svg width="154" height="134" viewBox="0 0 154 134" fill="none" xmlns="http://www.w3.org/2000/svg">
<path d="M84.6695 97.2434C97.6424 81.4509 84.4353 52.1212 76.2102 39.4305C69.2394 28.2561 49.4706 9.84193 26.162 25.5803C-2.97372 45.2534 18.0553 84.8659 36.4737 84.1455C54.8922 83.4251 68.4533 116.984 84.6695 97.2434Z" fill="#2D1A83"/>
<path d="M103.436 119.166C130.205 119.166 151.906 97.4649 151.906 70.6955C151.906 43.9261 130.205 22.2252 103.436 22.2252C76.6666 22.2252 54.9657 43.9261 54.9657 70.6955C54.9657 97.4649 76.6666 119.166 103.436 119.166Z" fill="#6675F6"/>
<path d="M103.436 107.64C123.84 107.64 140.38 91.0992 140.38 70.6955C140.38 50.2917 123.84 33.7513 103.436 33.7513C83.0323 33.7513 66.4918 50.2917 66.4918 70.6955C66.4918 91.0992 83.0323 107.64 103.436 107.64Z" fill="#BDF2FF"/>
<path d="M103.436 76.2858C100.348 76.2858 97.8457 73.7733 97.8457 70.6955C97.8457 67.6177 100.358 65.1052 103.436 65.1052C106.514 65.1052 109.026 67.6177 109.026 70.6955C109.026 73.7733 106.514 76.2858 103.436 76.2858ZM103.436 68.2458C102.086 68.2458 100.986 69.345 100.986 70.6955C100.986 72.0459 102.086 73.1452 103.436 73.1452C104.786 73.1452 105.886 72.0459 105.886 70.6955C105.886 69.345 104.786 68.2458 103.436 68.2458Z" fill="#6675F6"/>
<path d="M23.7584 73.543C22.8895 73.543 22.188 72.8416 22.188 71.9831C22.188 71.1142 22.879 70.4128 23.7479 70.4023L46.9466 70.2872C47.8155 70.2872 48.517 70.9886 48.517 71.847C48.517 72.7159 47.826 73.4173 46.9571 73.4278L23.7584 73.543Z" fill="white"/>
<path d="M28.752 59.4206C27.8935 59.4206 27.1816 58.7192 27.1816 57.8608C27.1816 56.9919 27.8726 56.2905 28.7415 56.28L47.8679 56.1753C48.7263 56.1753 49.4382 56.8767 49.4382 57.7352C49.4382 58.6041 48.7473 59.3055 47.8784 59.3159L28.752 59.4206Z" fill="white"/>
<path d="M38.3937 45.2983C37.5352 45.2983 36.8338 44.6073 36.8234 43.7384C36.8234 42.8695 37.5143 42.1681 38.3832 42.1577L52.8406 42.053C53.7095 42.0006 54.4213 42.7439 54.4213 43.6128C54.4213 44.4817 53.7304 45.1831 52.8615 45.1936L38.4041 45.2983H38.3937Z" fill="white"/>
<path d="M39.7232 101.788C38.8648 101.788 38.1634 101.097 38.1529 100.228C38.1529 99.3589 38.8438 98.6575 39.7127 98.647L54.1701 98.5319C55.0076 98.49 55.7509 99.2228 55.7509 100.092C55.7509 100.961 55.0599 101.662 54.191 101.672L39.7337 101.788H39.7232Z" fill="white"/>
<path d="M28.752 87.6653C27.8935 87.6653 27.1816 86.9639 27.1816 86.1055C27.1816 85.2365 27.8726 84.5351 28.7415 84.5247L47.8679 84.42C48.7263 84.42 49.4382 85.1214 49.4382 85.9798C49.4382 86.8487 48.7473 87.5501 47.8784 87.5606L28.752 87.6653Z" fill="white"/>
<path d="M112.115 9.39047H94.7574C92.6991 9.39047 91.0305 11.0591 91.0305 13.1173V15.8916C91.0305 17.9499 92.6991 19.6184 94.7574 19.6184H112.115C114.173 19.6184 115.841 17.9499 115.841 15.8916V13.1173C115.841 11.0591 114.173 9.39047 112.115 9.39047Z" fill="#BDF2FF"/>
<path d="M106.158 67.4292C105.928 67.4292 105.708 67.3769 105.488 67.2722C104.703 66.8953 104.368 65.9636 104.745 65.1784L111.445 51.0875C111.821 50.3023 112.753 49.9778 113.538 50.3442C114.324 50.7211 114.659 51.6528 114.282 52.438L107.582 66.5289C107.309 67.0942 106.755 67.4292 106.158 67.4292Z" fill="#6675F6"/>
</svg>
