<svg width="158" height="122" viewBox="0 0 158 122" fill="none" xmlns="http://www.w3.org/2000/svg">
<path d="M33.0624 7.3142C17.9907 30.2708 40.2759 57.466 51.7519 66.9286C68.1461 66.9286 74.7398 111.591 106.545 113.957C138.35 116.323 189.793 20.5622 131.472 10.9668C91.947 4.46379 86.8357 26.2397 75.6876 20.5622C64.5395 14.8847 44.8662 -10.6649 33.0624 7.3142Z" fill="#2D1A83"/>
<path d="M82.4375 93.2295C82.5879 97.2895 84.9938 103.154 89.0538 105.41C92.7155 107.444 95.6701 108.417 95.6701 110.672C95.6701 112.928 84.6931 118.642 73.4153 113.078C62.1375 107.515 61.0849 100.598 60.333 97.7406C72.6634 90.3725 82.4375 93.2295 82.4375 93.2295Z" fill="#FF48D8"/>
<path d="M95.8144 86.1026C97.3933 78.6592 108.422 68.0212 109.799 53.397C111.603 34.2247 101.904 0.165771 54.5377 0.165771C7.17094 0.165771 0.178711 35.3369 0.178711 50.0136C0.178711 69.637 14.6143 79.787 13.9376 86.7793C25.6665 96.0271 70.1011 106.854 95.8144 86.1026Z" fill="#FF48D8"/>
<path d="M26.6548 93.2295C26.5045 97.2895 24.0985 103.154 20.0385 105.41C16.3768 107.444 13.4222 108.417 13.4222 110.672C13.4222 112.928 24.3993 118.642 35.6771 113.078C46.9549 107.515 48.0075 100.598 48.7593 97.7406C36.4289 90.3725 26.6548 93.2295 26.6548 93.2295Z" fill="#FF48D8"/>
<path d="M67.3162 95.9979C67.3162 95.9979 66.4139 103.961 65.0606 108.635C63.7073 113.309 62.0512 121.146 53.9332 121.146C45.8151 121.146 43.9675 112.206 43.4072 108.981C42.8057 105.519 41.9035 95.1324 41.9035 95.1324C41.9035 95.1324 54.3843 83.8802 67.3162 95.9979Z" fill="#FF48D8"/>
<path d="M95.514 86.0274C94.4614 94.4482 103.032 94.7489 102.581 99.5608C102.13 104.373 84.2361 104.373 79.4243 94.8993C74.6124 85.4259 95.514 86.0274 95.514 86.0274Z" fill="#FF48D8"/>
<path d="M14.0453 86.0274C15.0979 94.4482 6.5268 94.7489 6.97791 99.5608C7.42902 104.373 25.3231 104.373 30.135 94.8993C34.9468 85.4259 14.0453 86.0274 14.0453 86.0274Z" fill="#FF48D8"/>
<path d="M33.507 74.9473C40.618 74.9473 46.3826 69.1827 46.3826 62.0717C46.3826 54.9607 40.618 49.196 33.507 49.196C26.396 49.196 20.6313 54.9607 20.6313 62.0717C20.6313 69.1827 26.396 74.9473 33.507 74.9473Z" fill="white"/>
<path d="M34.3782 73.1735C39.3869 73.1735 43.4473 69.1131 43.4473 64.1043C43.4473 59.0956 39.3869 55.0352 34.3782 55.0352C29.3694 55.0352 25.309 59.0956 25.309 64.1043C25.309 69.1131 29.3694 73.1735 34.3782 73.1735Z" fill="url(#paint0_linear_191_1811)"/>
<path d="M29.0982 61.325C30.2269 61.325 31.1419 60.4099 31.1419 59.2812C31.1419 58.1525 30.2269 57.2374 29.0982 57.2374C27.9694 57.2374 27.0544 58.1525 27.0544 59.2812C27.0544 60.4099 27.9694 61.325 29.0982 61.325Z" fill="white"/>
<path d="M73.8728 73.9465C80.431 73.9465 85.7476 68.63 85.7476 62.0717C85.7476 55.5135 80.431 50.1969 73.8728 50.1969C67.3145 50.1969 61.998 55.5135 61.998 62.0717C61.998 68.63 67.3145 73.9465 73.8728 73.9465Z" fill="white"/>
<path d="M73.847 73.0765C78.8298 73.0765 82.8692 69.0371 82.8692 64.0543C82.8692 59.0715 78.8298 55.0321 73.847 55.0321C68.8641 55.0321 64.8247 59.0715 64.8247 64.0543C64.8247 69.0371 68.8641 73.0765 73.847 73.0765Z" fill="url(#paint1_linear_191_1811)"/>
<path d="M69.1962 60.9508C70.3483 60.9508 71.2823 60.0168 71.2823 58.8647C71.2823 57.7126 70.3483 56.7786 69.1962 56.7786C68.044 56.7786 67.11 57.7126 67.11 58.8647C67.11 60.0168 68.044 60.9508 69.1962 60.9508Z" fill="white"/>
<path d="M86.7066 38.2982C87.022 38.4299 87.2832 38.557 87.5655 38.6969C87.8426 38.8351 88.1176 38.9833 88.3923 39.1422C88.6666 39.3 88.9419 39.4749 89.2209 39.6773C89.4996 39.8876 89.7823 40.0946 90.0884 40.4924C90.3956 40.8916 90.3209 41.4642 89.9216 41.7713C89.6492 41.981 89.2959 42.0127 89.0013 41.8848L88.6456 41.7291C88.5741 41.6979 88.3706 41.5924 88.1596 41.5187C87.9449 41.4395 87.7085 41.3645 87.4597 41.2998C87.2123 41.2343 86.958 41.1743 86.6991 41.1223C86.4459 41.0718 86.1675 41.0196 85.9373 40.9911C85.1606 40.895 84.6091 40.1876 84.7051 39.411C84.8013 38.6345 85.5086 38.0827 86.2853 38.1788C86.4141 38.1948 86.5366 38.2275 86.6512 38.2747L86.7066 38.2982Z" fill="#100030"/>
<path d="M22.6912 42.3912C22.4555 42.4013 22.1705 42.4356 21.9101 42.4684C21.6438 42.5028 21.3811 42.5455 21.1233 42.5946C20.8642 42.643 20.6154 42.7025 20.3829 42.7698C20.1535 42.8338 19.9294 42.9239 19.8089 42.9799L19.5922 43.0808C19.2393 43.2452 18.8198 43.0922 18.6555 42.7391C18.5465 42.5049 18.5779 42.2405 18.714 42.0417C18.971 41.6688 19.2331 41.4464 19.4934 41.2263C19.7546 41.012 20.0175 40.8217 20.2815 40.6475C20.546 40.4722 20.8126 40.3068 21.0821 40.1509C21.3572 39.9935 21.612 39.8483 21.9218 39.6983L22.0022 39.6593C22.7172 39.3131 23.5777 39.612 23.9239 40.3271C24.2701 41.0421 23.9711 41.9025 23.2561 42.2487C23.0759 42.3359 22.8792 42.3821 22.6912 42.3912Z" fill="#100030"/>
<path d="M48.7408 82.2659C48.8946 82.5831 49.082 82.821 49.3595 83.0453C49.6389 83.2655 49.9809 83.4581 50.3609 83.6078C51.123 83.9041 52.0151 84.0447 52.9052 84.0036C53.7881 83.9736 54.7135 83.7595 55.5288 83.4132C55.9348 83.242 56.319 83.0361 56.6112 82.8063C56.9148 82.5762 57.0939 82.367 57.2289 82.1542L57.4993 81.7274C57.7897 81.2691 58.3967 81.1329 58.8549 81.4233C59.1183 81.5902 59.2758 81.8665 59.3065 82.1542C59.3523 82.6059 59.3021 83.0864 59.1493 83.4824C59.1126 83.5821 59.0811 83.693 59.0348 83.7836L58.8927 84.0565C58.7984 84.2475 58.6823 84.393 58.5706 84.5596C58.1006 85.1792 57.5426 85.6448 56.9504 86.018C55.7594 86.7504 54.429 87.1533 53.035 87.2118C51.6532 87.2731 50.2245 86.9784 48.9689 86.208C48.3459 85.8215 47.7643 85.3079 47.331 84.6359C46.9091 83.9636 46.6467 83.0931 46.7858 82.2658C46.8746 81.7379 47.3744 81.382 47.9023 81.4708C48.2217 81.5245 48.4782 81.7287 48.6112 81.9986L48.7408 82.2659Z" fill="#100030"/>
<path d="M150.344 9.231L140.443 18.023C140.399 18.0654 140.366 18.119 140.346 18.1788C140.326 18.2385 140.32 18.3025 140.329 18.3645C140.339 18.4266 140.362 18.4847 140.398 18.5334C140.434 18.5821 140.481 18.6197 140.535 18.6428L144.753 20.3231C144.799 20.3376 144.841 20.3625 144.877 20.3962C144.913 20.4299 144.942 20.4716 144.962 20.5186C144.982 20.5657 144.992 20.6169 144.992 20.6691C144.992 20.7212 144.982 20.773 144.963 20.8212L141.78 26.8242C141.598 27.1301 142.041 27.5087 142.277 27.2655L152.884 17.8676C152.928 17.8191 152.961 17.7605 152.981 17.6965C153 17.6325 153.006 17.5648 152.997 17.4987C152.988 17.4326 152.966 17.37 152.931 17.3157C152.896 17.2615 152.849 17.2171 152.795 17.1861L148.334 15.9342C148.281 15.9333 148.229 15.9165 148.185 15.8855C148.142 15.8546 148.107 15.8108 148.085 15.7591C148.063 15.7074 148.055 15.6498 148.062 15.5927C148.069 15.5357 148.09 15.4814 148.123 15.4361L150.841 9.67235C150.868 9.59925 150.873 9.51933 150.856 9.44399C150.839 9.36866 150.8 9.30173 150.744 9.2528C150.689 9.20387 150.621 9.17542 150.549 9.17151C150.477 9.16759 150.405 9.18842 150.344 9.231Z" fill="#FFBAFF"/>
<path d="M130.016 57.0073L130.933 61.0924C131.547 63.8206 133.607 66.2296 136.612 67.7388L137 67.9347L135.575 68.8344C133.254 70.3074 131.667 72.3608 131.102 74.6392L130.016 79L129.466 74.6755C129.183 72.4552 127.942 70.3727 125.945 68.7619L125 68C127.688 66.2731 129.36 63.777 129.621 61.0851L130.016 57V57.0073Z" fill="#F484FA"/>
<defs>
<linearGradient id="paint0_linear_191_1811" x1="42.9557" y1="64.1043" x2="25.0479" y2="64.1043" gradientUnits="userSpaceOnUse">
<stop/>
<stop offset="0.4481" stop-color="#100030"/>
<stop offset="0.8399" stop-color="#180070"/>
<stop offset="1"/>
</linearGradient>
<linearGradient id="paint1_linear_191_1811" x1="64.8746" y1="64.0543" x2="82.4043" y2="64.0543" gradientUnits="userSpaceOnUse">
<stop/>
<stop offset="0.4481" stop-color="#100030"/>
<stop offset="0.8399" stop-color="#180070"/>
<stop offset="1"/>
</linearGradient>
</defs>
</svg>
