<svg width="32" height="32" viewBox="0 0 32 32" fill="none" xmlns="http://www.w3.org/2000/svg">
    <g clip-path="url(#clip0_9323_21705)">
        <g filter="url(#filter0_d_9323_21705)">
            <path fill-rule="evenodd" clip-rule="evenodd"
                d="M11.5457 16.6649L11.9439 15.4559C9.31933 17.0321 7.08959 18.6267 5.47186 20.0429C4.39225 20.988 3.61798 21.8254 3.17469 22.5002C2.95274 22.8381 2.83683 23.1009 2.79146 23.2894C2.74798 23.4701 2.78021 23.5295 2.78292 23.5345L2.78299 23.5346L2.78306 23.5348C2.78574 23.5398 2.81766 23.5993 2.99257 23.6623C3.17502 23.728 3.45823 23.7754 3.86249 23.7756C4.55502 23.7759 5.48127 23.6384 6.60344 23.3577C6.57601 23.2275 6.56158 23.0926 6.56158 22.9542C6.56158 21.8791 7.43313 21.0076 8.50824 21.0076C9.30419 21.0076 9.98856 21.4853 10.2903 22.1696C12.2497 21.4231 14.4357 20.4348 16.704 19.2418L16.7825 17.9004C16.8124 17.39 16.3572 16.986 15.854 17.0764L12.436 17.6899C11.8468 17.7957 11.3585 17.2335 11.5457 16.6649ZM10.4548 22.9318C12.3582 22.2122 14.4662 21.2695 16.6514 20.1388L16.2844 26.4066C16.2282 27.3646 17.6069 27.5757 17.8399 26.6448L19.9203 18.3349C26.4001 14.5254 30.7429 10.4934 29.8917 8.91501C29.0487 7.35184 23.3963 8.7232 16.7377 11.9761L16.749 5.79247C16.7506 4.89349 15.4892 4.68997 15.208 5.54385L12.3102 14.3436C5.701 18.193 1.24297 22.3032 2.10442 23.9006C2.55031 24.7274 4.34162 24.7332 6.91563 24.0739C7.26793 24.5741 7.84992 24.9009 8.50824 24.9009C9.58335 24.9009 10.4549 24.0294 10.4549 22.9542C10.4549 22.9468 10.4549 22.9393 10.4548 22.9318ZM17.6667 13.3045C17.2808 13.3738 16.92 13.1518 16.7889 12.81C19.7919 11.3247 22.5866 10.2274 24.8183 9.60945C26.2011 9.22658 27.3262 9.03966 28.1336 9.03999C28.5379 9.04015 28.8211 9.08764 29.0035 9.15331C29.1784 9.21626 29.2104 9.27583 29.213 9.28083L29.2132 9.28109C29.2159 9.28607 29.2481 9.34548 29.2046 9.52621C29.1593 9.71473 29.0434 9.97747 28.8214 10.3154C28.3781 10.9902 27.6038 11.8276 26.5242 12.7727C24.9337 14.165 22.7516 15.7299 20.1843 17.2802L21.048 13.83C21.1873 13.2736 20.7062 12.7588 20.1417 12.8602L17.6667 13.3045Z"
                fill="#FF48D8" />
        </g>
    </g>
    <defs>
        <filter id="filter0_d_9323_21705" x="-1.98195" y="1.02" width="35.96" height="30.204"
            filterUnits="userSpaceOnUse" color-interpolation-filters="sRGB">
            <feFlood flood-opacity="0" result="BackgroundImageFix" />
            <feColorMatrix in="SourceAlpha" type="matrix" values="0 0 0 0 0 0 0 0 0 0 0 0 0 0 0 0 0 0 127 0"
                result="hardAlpha" />
            <feOffset />
            <feGaussianBlur stdDeviation="1.99" />
            <feColorMatrix type="matrix" values="0 0 0 0 0.941176 0 0 0 0 0.313726 0 0 0 0 0.972549 0 0 0 0.85 0" />
            <feBlend mode="normal" in2="BackgroundImageFix" result="effect1_dropShadow_9323_21705" />
            <feBlend mode="normal" in="SourceGraphic" in2="effect1_dropShadow_9323_21705" result="shape" />
        </filter>
        <clipPath id="clip0_9323_21705">
            <rect width="32" height="32" fill="white" />
        </clipPath>
    </defs>
</svg>