<svg width="153" height="156" viewBox="0 0 153 156" fill="none" xmlns="http://www.w3.org/2000/svg">
<path d="M83.2071 14.1943C64.2481 6.12132 41.6134 6.02571 19.849 24.2855C-14.4901 63.6894 19.849 130.484 70.1486 122.315C120.448 114.146 136.892 75.7029 118.997 61.2868C101.102 46.8707 106.906 24.2855 83.2071 14.1943Z" fill="#2D1A83"/>
<path d="M97.2815 154.693C96.4853 154.52 95.7822 154.017 95.3205 153.29C94.8588 152.564 94.6746 151.671 94.8067 150.8C95.2811 148.042 95.5122 145.242 95.4969 142.436C95.3315 140.517 95.0547 138.612 94.668 136.731C94.4645 135.602 94.2462 134.438 94.0781 133.203C93.2288 127.404 93.7091 121.467 95.4763 115.918C95.4997 115.845 95.5369 115.779 95.5854 115.722C95.6326 115.665 95.6897 115.618 95.7535 115.585C95.8185 115.552 95.8886 115.534 95.96 115.53C96.0306 115.527 96.101 115.54 96.1665 115.569L101.544 117.691C99.9992 122.306 99.5596 127.272 100.267 132.123C100.42 133.175 100.618 134.233 100.815 135.33C101.249 137.489 101.561 139.675 101.75 141.875C101.793 145.208 101.535 148.538 100.98 151.817C100.918 152.271 100.773 152.707 100.553 153.099C100.329 153.492 100.037 153.832 99.6915 154.1C99.3441 154.366 98.9507 154.552 98.5352 154.648C98.1246 154.757 97.6978 154.772 97.2815 154.693Z" fill="url(#paint0_linear_208_1809)"/>
<path d="M123.867 152.455C123.537 155.69 120.534 155.421 119.54 155.161C115.626 154.044 112.268 151.31 110.18 147.541C108.092 143.773 107.439 139.267 108.36 134.983C108.605 133.851 108.868 132.719 109.127 131.658C110.897 124.503 109.216 115.944 109.204 115.86L115.331 114.414C115.407 114.828 117.328 124.676 115.18 133.412C114.932 134.441 114.688 135.499 114.457 136.564C113.893 139.163 114.298 141.9 115.584 144.175C116.871 146.45 118.934 148.079 121.322 148.706C122.33 149.026 124.15 150.065 123.867 152.455Z" fill="url(#paint1_linear_208_1809)"/>
<path d="M52.4922 134.999C44.9763 133.64 39.9558 125.799 40.9351 117.579L44.8642 84.6438C45.2456 81.4499 45.0445 78.2055 44.2725 75.096C43.5005 71.9865 42.1727 69.0728 40.3649 66.5212C38.557 63.9697 36.3046 61.8303 33.7362 60.2252C31.1678 58.6202 28.3337 57.5809 25.3958 57.1667L20.7352 56.5093C20.3865 56.4603 20.0501 56.3369 19.7452 56.1464C19.4404 55.9559 19.173 55.702 18.9585 55.3991C18.744 55.0962 18.5865 54.7503 18.4951 54.3811C18.4036 54.012 18.38 53.6269 18.4256 53.2478L18.4875 52.7059C18.5393 52.2681 18.6703 51.8459 18.8728 51.4634C19.0753 51.0809 19.3453 50.7457 19.6674 50.477C19.9885 50.2084 20.3552 50.0112 20.7464 49.8967C21.1377 49.7823 21.5458 49.7528 21.9476 49.81L26.2129 50.4129C29.9669 50.9429 33.5882 52.2717 36.8699 54.3234C40.1515 56.375 43.0293 59.1093 45.339 62.3702C47.6486 65.6311 49.3448 69.3546 50.3308 73.3282C51.3167 77.3018 51.5731 81.4476 51.0852 85.529L47.1473 118.561C46.8777 120.603 47.2876 122.682 48.3032 124.425C49.3188 126.168 50.8734 127.459 52.6869 128.066C53.759 128.395 54.8838 128.469 55.9847 128.284C57.0856 128.099 58.1369 127.658 59.0672 126.992C59.9976 126.327 60.7859 125.452 61.3788 124.428C61.9716 123.403 62.3552 122.252 62.5037 121.052L63.6836 111.085L69.8368 111.954L68.6569 121.918C68.4125 123.944 67.7965 125.896 66.8456 127.659C65.8946 129.422 64.6279 130.959 63.1206 132.18C61.6132 133.4 59.8959 134.28 58.0702 134.766C56.2446 135.252 54.3478 135.334 52.4922 135.009V134.999Z" fill="url(#paint2_linear_208_1809)"/>
<path d="M152.315 17.8785C152.251 16.2438 151.782 14.6581 150.958 13.2893C150.574 12.4238 149.979 11.6895 149.238 11.1663H149.152C147.943 10.1048 146.487 9.4277 144.946 9.21011L81.9806 0.320454C80.4764 0.110248 78.9478 0.345122 77.556 1.00033C77.4633 1.00345 77.3721 1.02633 77.2876 1.06767C76.2045 1.47388 75.2684 2.24441 74.6151 3.26764C73.9325 4.09429 73.3911 5.04671 73.0163 6.08013C68.3764 16.0409 66.2319 36.9406 66.2319 36.9406L69.0194 37.335L61.0551 104.04C60.781 106.455 61.3971 108.89 62.7689 110.812C64.1406 112.735 66.1566 113.99 68.3764 114.302L131.374 123.182C133.601 123.495 135.852 122.833 137.63 121.342C139.409 119.851 140.57 117.653 140.858 115.232L148.822 48.5273L151.533 48.9089C151.533 48.9089 154.226 28.9489 152.315 17.8785Z" fill="#5840FF"/>
<path d="M148.786 48.6494L147.441 59.941C147.306 58.3568 146.556 52.6099 143.294 51.138C139.816 49.5569 79.1782 41.4209 68.6653 40.0195L68.9897 37.3064L148.689 48.5307L148.786 48.6494Z" fill="#2D1A83"/>
<path d="M142.719 54.566L114.242 50.5509L112.806 62.6026L141.283 66.6081L142.719 54.566Z" fill="#E8F8F8"/>
<path opacity="0.2" d="M141.744 62.827L141.284 66.608L130.24 65.059C126.234 60.6815 120.358 54.3254 116.916 50.9292L134.319 53.3825L141.744 62.827Z" fill="#B6C5C5"/>
<path d="M142.719 54.566L141.282 66.6081L141.079 66.5792L142.462 54.9765L114.189 50.9903L114.242 50.5509L142.719 54.566Z" fill="#B6C5C5"/>
<path d="M131.918 70.2957L129.998 86.401C129.937 86.8989 129.697 87.3501 129.33 87.6555C128.963 87.961 128.5 88.0957 128.042 88.0302L111.892 85.7532C111.434 85.6893 111.018 85.43 110.735 85.0326C110.452 84.6351 110.326 84.1318 110.385 83.6334L112.305 67.5314C112.35 67.1594 112.495 66.8102 112.722 66.5281C112.95 66.246 113.249 66.0438 113.582 65.9471C113.804 65.8836 114.034 65.8672 114.261 65.899L130.411 68.176C130.638 68.2071 130.858 68.2866 131.057 68.4101C131.357 68.5953 131.599 68.8738 131.753 69.2097C131.906 69.5457 131.964 69.9239 131.918 70.2957Z" fill="#D9DDFF"/>
<path d="M117.734 68.9554L115.495 68.6348C115.213 68.5957 114.929 68.6797 114.704 68.8685C114.478 69.0572 114.331 69.3353 114.295 69.6417L114.162 70.7481C114.126 71.055 114.203 71.365 114.377 71.6101C114.55 71.8553 114.806 72.0158 115.088 72.0566L117.327 72.3773C117.609 72.4164 117.894 72.3323 118.119 72.1435C118.344 71.9548 118.491 71.6767 118.528 71.3703L118.66 70.2639C118.696 69.957 118.619 69.6471 118.446 69.4019C118.272 69.1567 118.016 68.9962 117.734 68.9554Z" fill="#A49FC8"/>
<path d="M123.616 69.7603L121.381 69.4396C121.24 69.4194 121.097 69.4298 120.961 69.4701C120.824 69.5105 120.696 69.58 120.585 69.6746C120.473 69.7692 120.379 69.887 120.31 70.0212C120.241 70.1554 120.196 70.3032 120.18 70.4562L120.047 71.5626C120.029 71.7144 120.039 71.8687 120.075 72.0165C120.112 72.1644 120.175 72.3029 120.261 72.4241C120.347 72.5454 120.455 72.647 120.577 72.7231C120.699 72.7993 120.834 72.8484 120.974 72.8678L123.209 73.1885C123.492 73.2276 123.777 73.1437 124.002 72.955C124.228 72.7663 124.375 72.4882 124.413 72.1815L124.543 71.0751C124.562 70.9225 124.554 70.7673 124.517 70.6183C124.481 70.4694 124.418 70.3297 124.332 70.2074C124.246 70.0851 124.138 69.9826 124.016 69.9058C123.893 69.8291 123.757 69.7796 123.616 69.7603Z" fill="#A49FC8"/>
<path d="M129.513 70.5844L127.277 70.2637C126.995 70.2246 126.71 70.3086 126.485 70.4974C126.26 70.6861 126.113 70.9642 126.076 71.2706L125.944 72.377C125.925 72.5291 125.934 72.6837 125.971 72.8319C126.007 72.9802 126.07 73.1191 126.156 73.2407C126.242 73.3623 126.35 73.4642 126.472 73.5405C126.595 73.6168 126.73 73.6661 126.87 73.6855L129.106 74.0062C129.388 74.0453 129.673 73.9614 129.898 73.7727C130.124 73.584 130.272 73.3059 130.309 72.9992L130.439 71.8928C130.458 71.7407 130.448 71.5861 130.412 71.4379C130.375 71.2897 130.312 71.1508 130.226 71.0292C130.14 70.9076 130.033 70.8057 129.91 70.7293C129.788 70.653 129.653 70.6037 129.513 70.5844Z" fill="#A49FC8"/>
<path d="M117.228 73.0827L114.989 72.762C114.849 72.7422 114.707 72.7526 114.571 72.7925C114.435 72.8324 114.308 72.9011 114.197 72.9947C114.085 73.0882 113.992 73.2048 113.922 73.3376C113.852 73.4705 113.806 73.6171 113.788 73.769L113.656 74.8754C113.62 75.1823 113.697 75.4922 113.871 75.7374C114.044 75.9826 114.3 76.1431 114.582 76.1838L116.818 76.5045C116.958 76.5243 117.1 76.514 117.236 76.4741C117.372 76.4342 117.5 76.3656 117.611 76.2721C117.723 76.1786 117.817 76.062 117.887 75.9291C117.958 75.7962 118.003 75.6496 118.021 75.4976L118.154 74.3911C118.19 74.0842 118.113 73.7743 117.939 73.5292C117.766 73.284 117.51 73.1235 117.228 73.0827Z" fill="#A49FC8"/>
<path d="M123.109 73.8877L120.873 73.567C120.733 73.5472 120.591 73.5576 120.455 73.5974C120.318 73.6373 120.191 73.706 120.079 73.7995C119.967 73.893 119.874 74.0095 119.803 74.1424C119.733 74.2753 119.687 74.422 119.669 74.574L119.536 75.6804C119.5 75.987 119.578 76.2965 119.751 76.5412C119.925 76.7858 120.181 76.9457 120.463 76.9856L122.702 77.3063C122.841 77.3261 122.983 77.3158 123.119 77.2758C123.255 77.2359 123.382 77.1672 123.494 77.0737C123.605 76.9801 123.699 76.8636 123.769 76.7307C123.839 76.5978 123.884 76.4513 123.902 76.2994L124.035 75.193C124.071 74.8864 123.993 74.5769 123.82 74.3322C123.646 74.0875 123.39 73.9277 123.109 73.8877Z" fill="#A49FC8"/>
<path d="M129 74.7086L126.761 74.3879C126.622 74.3681 126.48 74.3785 126.344 74.4184C126.208 74.4583 126.08 74.5271 125.969 74.6206C125.857 74.7141 125.764 74.8307 125.694 74.9636C125.624 75.0964 125.579 75.243 125.561 75.3949L125.428 76.5013C125.392 76.8082 125.469 77.1181 125.643 77.3633C125.816 77.6085 126.072 77.769 126.354 77.8097L128.59 78.1304C128.872 78.1696 129.157 78.0856 129.383 77.8969C129.608 77.7082 129.756 77.4302 129.794 77.1235L129.923 76.0171C129.96 75.7105 129.884 75.4006 129.711 75.1553C129.538 74.91 129.282 74.7493 129 74.7086Z" fill="#A49FC8"/>
<path d="M116.729 77.2486L114.493 76.9279C114.21 76.8888 113.925 76.9732 113.699 77.1626C113.474 77.352 113.326 77.6308 113.289 77.9381L113.16 79.0445C113.141 79.1961 113.151 79.3502 113.187 79.4978C113.224 79.6455 113.287 79.7839 113.373 79.9051C113.458 80.0263 113.565 80.1279 113.687 80.2042C113.809 80.2805 113.943 80.33 114.083 80.3498L116.322 80.6704C116.462 80.6907 116.604 80.6806 116.74 80.6409C116.876 80.6011 117.003 80.5325 117.115 80.4389C117.227 80.3452 117.32 80.2285 117.39 80.0954C117.46 79.9624 117.505 79.8155 117.522 79.6635L117.655 78.5571C117.673 78.405 117.664 78.2506 117.627 78.1025C117.59 77.9545 117.527 77.8158 117.441 77.6943C117.355 77.5728 117.248 77.4709 117.126 77.3944C117.004 77.3179 116.869 77.2684 116.729 77.2486Z" fill="#A49FC8"/>
<path d="M122.614 78.044L120.378 77.7233C120.096 77.6841 119.811 77.7681 119.586 77.9568C119.36 78.1455 119.212 78.4236 119.175 78.7303L119.042 79.8367C119.006 80.1436 119.083 80.4535 119.257 80.6987C119.431 80.9438 119.686 81.1043 119.968 81.1451L122.207 81.4658C122.347 81.486 122.489 81.476 122.625 81.4362C122.761 81.3965 122.889 81.3278 123 81.2342C123.112 81.1406 123.206 81.0239 123.275 80.8908C123.345 80.7577 123.39 80.6109 123.408 80.4588L123.541 79.3524C123.559 79.2004 123.549 79.0459 123.513 78.8979C123.476 78.7498 123.413 78.6111 123.327 78.4896C123.241 78.3681 123.134 78.2662 123.011 78.1897C122.889 78.1133 122.754 78.0637 122.614 78.044Z" fill="#A49FC8"/>
<path d="M128.505 78.8646L126.266 78.5439C126.127 78.5237 125.985 78.5336 125.849 78.5731C125.713 78.6127 125.585 78.6811 125.474 78.7744C125.362 78.8676 125.269 78.984 125.199 79.1167C125.129 79.2494 125.083 79.3959 125.066 79.5477L124.933 80.6541C124.915 80.8061 124.924 80.9606 124.961 81.1086C124.998 81.2566 125.061 81.3954 125.147 81.5169C125.233 81.6384 125.34 81.7403 125.462 81.8167C125.584 81.8932 125.719 81.9427 125.859 81.9625L128.095 82.2832C128.235 82.303 128.377 82.2927 128.513 82.2528C128.649 82.2129 128.777 82.1443 128.889 82.0507C129 81.9572 129.094 81.8407 129.164 81.7078C129.235 81.5749 129.28 81.4283 129.299 81.2762L129.428 80.1698C129.447 80.0182 129.437 79.8642 129.401 79.7165C129.364 79.5689 129.301 79.4305 129.215 79.3093C129.13 79.1881 129.023 79.0864 128.901 79.0101C128.779 78.9338 128.645 78.8844 128.505 78.8646Z" fill="#A49FC8"/>
<path d="M116.239 81.3599L114.015 81.0392C113.733 81.0001 113.448 81.0841 113.223 81.2729C112.998 81.4616 112.851 81.7397 112.814 82.0462L112.682 83.1525C112.663 83.3044 112.673 83.4587 112.71 83.6065C112.746 83.7544 112.81 83.8929 112.896 84.0141C112.982 84.1354 113.089 84.237 113.211 84.3131C113.333 84.3892 113.468 84.4384 113.608 84.4578L115.847 84.7785C116.129 84.8176 116.413 84.7335 116.638 84.5448C116.863 84.356 117.01 84.0779 117.047 83.7715L117.18 82.6651C117.197 82.5122 117.187 82.3571 117.149 82.2086C117.111 82.0602 117.046 81.9213 116.959 81.8001C116.871 81.6788 116.763 81.5775 116.639 81.502C116.516 81.4264 116.38 81.3781 116.239 81.3599Z" fill="#A49FC8"/>
<path d="M122.123 82.1651L119.884 81.8444C119.745 81.8242 119.603 81.8342 119.466 81.874C119.33 81.9137 119.203 81.9824 119.091 82.076C118.98 82.1696 118.886 82.2863 118.816 82.4194C118.746 82.5525 118.701 82.6993 118.684 82.8514L118.551 83.9578C118.515 84.2643 118.592 84.5738 118.766 84.8185C118.94 85.0632 119.195 85.223 119.477 85.263L121.713 85.5837C121.853 85.6039 121.995 85.5939 122.132 85.5542C122.268 85.5145 122.396 85.4459 122.508 85.3523C122.619 85.2587 122.713 85.142 122.783 85.0089C122.854 84.8758 122.899 84.7289 122.917 84.5767L123.047 83.4703C123.065 83.3187 123.055 83.1647 123.019 83.017C122.982 82.8694 122.919 82.731 122.834 82.6098C122.748 82.4886 122.641 82.3869 122.519 82.3106C122.397 82.2343 122.263 82.1849 122.123 82.1651Z" fill="#A49FC8"/>
<path d="M128.02 82.9859L125.781 82.6652C125.642 82.6454 125.5 82.6557 125.364 82.6956C125.228 82.7356 125.1 82.8043 124.989 82.8978C124.877 82.9914 124.784 83.1079 124.714 83.2408C124.644 83.3736 124.599 83.5202 124.581 83.6721L124.448 84.7785C124.412 85.0854 124.489 85.3954 124.663 85.6405C124.836 85.8857 125.092 86.0462 125.374 86.087L127.61 86.4077C127.75 86.4275 127.892 86.4172 128.028 86.3773C128.164 86.3374 128.292 86.2687 128.404 86.1752C128.516 86.0817 128.609 85.9652 128.68 85.8323C128.75 85.6994 128.795 85.5527 128.814 85.4007L128.946 84.2943C128.982 83.9874 128.905 83.6775 128.732 83.4323C128.558 83.1871 128.302 83.0266 128.02 82.9859Z" fill="#A49FC8"/>
<path d="M117.373 68.6832L115.137 68.3625C114.997 68.3422 114.855 68.3522 114.718 68.392C114.582 68.4317 114.454 68.5003 114.343 68.5939C114.231 68.6875 114.137 68.8042 114.067 68.9373C113.997 69.0704 113.951 69.2172 113.933 69.3695L113.801 70.4759C113.765 70.7824 113.842 71.0919 114.016 71.3366C114.189 71.5813 114.445 71.7411 114.727 71.7811L116.966 72.1018C117.248 72.1408 117.533 72.0564 117.758 71.8669C117.984 71.6775 118.13 71.3986 118.166 71.0916L118.299 69.9852C118.334 69.6792 118.256 69.3705 118.083 69.1265C117.909 68.8825 117.654 68.7232 117.373 68.6832Z" fill="#5840FF"/>
<path d="M123.257 69.4942L121.018 69.1735C120.878 69.1537 120.736 69.1641 120.6 69.204C120.464 69.2439 120.337 69.3126 120.225 69.4062C120.114 69.4997 120.02 69.6163 119.95 69.7491C119.88 69.882 119.835 70.0286 119.817 70.1805L119.685 71.2869C119.649 71.5938 119.726 71.9037 119.899 72.1489C120.073 72.3941 120.329 72.5546 120.611 72.5953L122.847 72.916C122.987 72.9349 123.129 72.9235 123.265 72.8826C123.401 72.8417 123.528 72.772 123.639 72.6776C123.751 72.5832 123.844 72.4659 123.913 72.3323C123.983 72.1988 124.027 72.0517 124.044 71.8994L124.177 70.793C124.211 70.4885 124.134 70.1815 123.962 69.9384C123.79 69.6953 123.536 69.5358 123.257 69.4942Z" fill="#5840FF"/>
<path d="M129.154 70.3089L126.915 69.9882C126.775 69.9684 126.633 69.9788 126.497 70.0187C126.361 70.0586 126.234 70.1273 126.122 70.2209C126.011 70.3144 125.917 70.431 125.847 70.5638C125.777 70.6967 125.732 70.8433 125.714 70.9952L125.582 72.1016C125.546 72.4081 125.623 72.7177 125.796 72.9624C125.97 73.207 126.226 73.3669 126.508 73.4068L128.744 73.7275C129.026 73.7666 129.312 73.6822 129.537 73.4929C129.763 73.3035 129.91 73.0246 129.947 72.7173L130.08 71.6141C130.115 71.3077 130.037 70.9987 129.864 70.7542C129.69 70.5097 129.435 70.3497 129.154 70.3089Z" fill="#5840FF"/>
<path d="M116.856 72.8165L114.617 72.4958C114.335 72.4567 114.051 72.5408 113.826 72.7295C113.601 72.9183 113.453 73.1964 113.417 73.5028L113.284 74.6092C113.266 74.7611 113.275 74.9153 113.312 75.0632C113.349 75.211 113.412 75.3495 113.498 75.4708C113.584 75.592 113.691 75.6936 113.813 75.7698C113.936 75.8459 114.07 75.8951 114.21 75.9144L116.449 76.2351C116.731 76.2742 117.016 76.1902 117.241 76.0014C117.466 75.8127 117.613 75.5346 117.65 75.2282L117.782 74.1218C117.818 73.8154 117.74 73.5063 117.566 73.2618C117.393 73.0173 117.138 72.8573 116.856 72.8165Z" fill="#5840FF"/>
<path d="M122.741 73.6121L120.502 73.2914C120.22 73.2523 119.936 73.3363 119.711 73.5251C119.486 73.7138 119.339 73.9919 119.302 74.2984L119.169 75.4047C119.151 75.5566 119.16 75.7109 119.197 75.8587C119.234 76.0065 119.297 76.1451 119.383 76.2663C119.469 76.3876 119.576 76.4892 119.698 76.5653C119.821 76.6414 119.956 76.6906 120.095 76.71L122.331 77.0307C122.471 77.0505 122.613 77.0402 122.749 77.0003C122.885 76.9604 123.013 76.8917 123.125 76.7982C123.237 76.7047 123.33 76.5882 123.401 76.4553C123.471 76.3224 123.516 76.1757 123.535 76.0237L123.667 74.9173C123.703 74.6109 123.625 74.3018 123.451 74.0573C123.278 73.8129 123.023 73.6528 122.741 73.6121Z" fill="#5840FF"/>
<path d="M128.637 74.436L126.398 74.1153C126.116 74.0762 125.832 74.1602 125.606 74.349C125.381 74.5378 125.234 74.8158 125.198 75.1223L125.065 76.2287C125.047 76.3807 125.056 76.5351 125.093 76.6832C125.13 76.8312 125.193 76.97 125.279 77.0915C125.365 77.213 125.472 77.3149 125.594 77.3913C125.716 77.4678 125.851 77.5173 125.991 77.5371L128.227 77.8578C128.367 77.878 128.509 77.868 128.645 77.8283C128.782 77.7886 128.91 77.72 129.021 77.6264C129.133 77.5328 129.227 77.4161 129.297 77.283C129.367 77.1499 129.413 77.003 129.431 76.8508L129.563 75.7444C129.582 75.5924 129.572 75.4379 129.535 75.2899C129.499 75.1418 129.435 75.0031 129.349 74.8816C129.263 74.7601 129.156 74.6582 129.034 74.5817C128.912 74.5053 128.777 74.4558 128.637 74.436Z" fill="#5840FF"/>
<path d="M116.374 76.9727L114.135 76.652C113.996 76.6322 113.854 76.6425 113.718 76.6825C113.582 76.7224 113.454 76.7911 113.343 76.8846C113.231 76.9782 113.138 77.0947 113.068 77.2276C112.998 77.3605 112.953 77.507 112.935 77.659L112.802 78.7654C112.764 79.0714 112.84 79.3813 113.012 79.6272C113.184 79.873 113.438 80.0348 113.72 80.077L115.958 80.3977C116.098 80.4175 116.24 80.4071 116.376 80.3672C116.512 80.3273 116.639 80.2586 116.751 80.165C116.862 80.0715 116.956 79.9549 117.026 79.8221C117.096 79.6892 117.141 79.5426 117.159 79.3907L117.292 78.2843C117.329 77.9782 117.254 77.6683 117.082 77.4225C116.91 77.1766 116.656 77.0149 116.374 76.9727Z" fill="#5840FF"/>
<path d="M122.246 77.7678L120.007 77.4471C119.725 77.408 119.44 77.4921 119.215 77.6808C118.99 77.8696 118.843 78.1477 118.806 78.4541L118.674 79.5605C118.655 79.7126 118.665 79.867 118.702 80.015C118.738 80.1631 118.801 80.3018 118.887 80.4233C118.973 80.5448 119.081 80.6467 119.203 80.7232C119.325 80.7996 119.46 80.8492 119.6 80.869L121.836 81.1896C121.976 81.2099 122.118 81.1999 122.254 81.1602C122.391 81.1205 122.518 81.0518 122.63 80.9582C122.742 80.8647 122.836 80.748 122.906 80.6149C122.976 80.4818 123.022 80.3349 123.039 80.1827L123.172 79.0763C123.19 78.9242 123.181 78.7698 123.144 78.6217C123.107 78.4737 123.044 78.335 122.958 78.2135C122.872 78.092 122.765 77.9901 122.643 77.9136C122.521 77.8371 122.386 77.7876 122.246 77.7678Z" fill="#5840FF"/>
<path d="M128.141 78.5893L125.902 78.2686C125.62 78.2295 125.336 78.3135 125.111 78.5023C124.886 78.6911 124.739 78.9692 124.702 79.2756L124.569 80.382C124.533 80.6889 124.61 80.9988 124.784 81.244C124.957 81.4892 125.213 81.6497 125.495 81.6904L127.731 82.0111C127.871 82.0309 128.013 82.0206 128.149 81.9807C128.286 81.9408 128.413 81.8722 128.525 81.7787C128.637 81.6852 128.73 81.5686 128.801 81.4357C128.871 81.3028 128.917 81.1562 128.935 81.0041L129.068 79.8977C129.104 79.5908 129.026 79.2809 128.853 79.0357C128.679 78.7906 128.423 78.63 128.141 78.5893Z" fill="#5840FF"/>
<path d="M115.877 81.0938L113.638 80.7731C113.356 80.734 113.071 80.818 112.846 81.0068C112.621 81.1955 112.474 81.4736 112.438 81.78L112.305 82.8864C112.269 83.1933 112.346 83.5032 112.52 83.7484C112.693 83.9936 112.949 84.1541 113.231 84.1949L115.47 84.5156C115.752 84.5547 116.037 84.4706 116.262 84.2819C116.487 84.0931 116.634 83.815 116.67 83.5086L116.803 82.4022C116.839 82.0953 116.762 81.7854 116.588 81.5402C116.415 81.295 116.159 81.1345 115.877 81.0938Z" fill="#6675F6"/>
<path d="M121.761 81.889L119.522 81.5683C119.24 81.5292 118.955 81.6133 118.73 81.8021C118.505 81.9908 118.358 82.2689 118.321 82.5753L118.189 83.6817C118.153 83.9886 118.23 84.2985 118.404 84.5437C118.577 84.7889 118.833 84.9494 119.115 84.9902L121.351 85.3109C121.491 85.3307 121.633 85.3203 121.769 85.2804C121.905 85.2406 122.033 85.1719 122.144 85.0784C122.256 84.9849 122.35 84.8684 122.42 84.7355C122.491 84.6026 122.536 84.4559 122.554 84.3039L122.687 83.1975C122.723 82.8906 122.646 82.5807 122.472 82.3355C122.299 82.0903 122.043 81.9298 121.761 81.889Z" fill="#5840FF"/>
<path d="M127.648 82.7101L125.412 82.3894C125.272 82.3696 125.13 82.3799 124.994 82.4198C124.858 82.4597 124.73 82.5284 124.619 82.6219C124.507 82.7154 124.413 82.8319 124.343 82.9648C124.272 83.0977 124.227 83.2444 124.209 83.3964L124.076 84.5028C124.04 84.8097 124.117 85.1196 124.291 85.3648C124.464 85.61 124.72 85.7705 125.002 85.8112L127.241 86.1319C127.381 86.1517 127.523 86.1414 127.659 86.1014C127.795 86.0615 127.922 85.9928 128.034 85.8993C128.145 85.8057 128.238 85.6892 128.309 85.5563C128.379 85.4234 128.424 85.2769 128.442 85.125L128.574 84.0186C128.61 83.7117 128.533 83.4017 128.36 83.1566C128.186 82.9114 127.93 82.7509 127.648 82.7101Z" fill="#BB00D4"/>
<path d="M146.168 70.3985L114.258 65.9088C114.258 65.9088 112.526 65.1423 112.21 68.3012C111.895 71.46 109.671 89.6081 109.671 89.6081C109.634 89.792 109.634 89.9823 109.671 90.1661C109.706 90.3496 109.777 90.5227 109.879 90.6742C109.981 90.8256 110.111 90.952 110.261 91.0448C110.411 91.1388 110.578 91.1957 110.75 91.2116L143.15 95.7783" stroke="#6675F6" stroke-width="1.07889" stroke-miterlimit="10"/>
<path d="M77.3969 89.0312L74.4471 113.683L67.294 112.676C64.7365 112.314 62.7012 108.869 62.2086 106.095C62.2041 105.967 62.1853 105.84 62.1525 105.717C61.7868 102.892 64.2174 87.1936 64.2174 87.1936L77.3969 89.0312Z" fill="#2D1A83"/>
<path d="M93.4227 91.2823L90.4729 115.944L75.2847 113.801L78.2344 89.1497L93.4227 91.2823Z" fill="#2D1A83"/>
<path d="M109.465 93.5462L94.2703 91.404L91.3206 116.065L106.515 118.208L109.465 93.5462Z" fill="#2D1A83"/>
<path d="M125.813 95.8391L122.864 120.507L107.36 118.32L110.309 93.6616L125.813 95.8391Z" fill="#2D1A83"/>
<path d="M141.475 98.0363L141.304 99.4795L140.814 103.575L140.198 108.751L139.637 113.439L139.437 115.129C139.393 115.644 139.294 116.151 139.142 116.64C138.955 117.094 138.734 117.531 138.481 117.945C138.144 118.513 137.755 119.042 137.319 119.523C136.154 120.778 134.627 121.559 132.995 121.736C132.268 121.799 131.537 121.769 130.818 121.646L123.703 120.642L126.653 95.9486L141.475 98.0363Z" fill="#2D1A83"/>
<path d="M75.1877 107.545L74.4561 113.683L67.303 112.676C64.7455 112.316 62.7102 108.869 62.2176 106.095C62.2442 105.867 62.1911 105.72 62.1616 105.717L75.1877 107.545Z" fill="#6675F6"/>
<path d="M91.2132 109.802L76.0278 107.657L75.2933 113.795L90.4816 115.937L91.2132 109.802Z" fill="#6675F6"/>
<path d="M107.255 112.063L92.0608 109.924L91.3292 116.062L106.523 118.205L107.255 112.063Z" fill="#6675F6"/>
<path d="M123.59 114.366L108.086 112.182L107.354 118.32L122.864 120.507L123.59 114.366Z" fill="#6675F6"/>
<path d="M141.469 98.0361L141.295 99.4824L140.808 103.568L140.188 108.754L139.631 113.442L139.43 115.129C139.393 115.642 139.294 116.148 139.135 116.633C138.957 117.092 138.735 117.529 138.475 117.938C138.146 118.513 137.758 119.045 137.318 119.523C136.155 120.78 134.627 121.562 132.994 121.735C132.271 121.8 131.543 121.77 130.826 121.646L123.708 120.642L124.443 114.504L125.817 114.696C127.269 114.901 128.72 115.184 130.18 115.399C131.26 115.549 132.855 116.085 133.796 115.273C135.162 114.1 134.867 111.601 135.018 109.924C135.044 109.713 136.469 97.3594 136.516 97.3658L141.469 98.0361Z" fill="#6675F6"/>
<path d="M94.7003 116.537L101.222 117.467L94.6973 116.547L94.7003 116.537Z" fill="url(#paint3_radial_208_1809)"/>
<path d="M103.561 107.808C103.237 109.75 102.814 111.672 102.295 113.564C102.015 114.469 100.871 115.594 98.2129 115.084C97.9168 115.066 97.6275 114.981 97.3634 114.834C96.9655 114.611 96.6431 114.257 96.4427 113.821C96.2422 113.386 96.1742 112.893 96.2484 112.413C97.0567 110.63 97.5898 108.714 97.8265 106.743C98.0182 104.133 97.4725 101.49 97.1775 98.9246C96.9563 96.6797 96.8206 93.9795 96.5404 91.7474L102.994 92.6165C102.994 92.6165 104.378 102.6 103.561 107.808Z" fill="url(#paint4_linear_208_1809)"/>
<path d="M119.584 102.253C118.513 106.258 117.153 110.447 116.891 114.632C116.863 114.818 116.854 115.008 116.864 115.196C116.608 116.064 116.052 116.79 115.314 117.222C114.576 117.654 113.713 117.759 112.906 117.515C112.179 117.407 111.506 117.042 110.991 116.475C110.476 115.908 110.147 115.172 110.056 114.382C110.783 109.301 112.011 104.321 113.72 99.5271C115.298 95.3581 115.643 94.396 115.643 94.396L121.513 95.2234C120.743 97.7793 120.242 99.665 119.584 102.253Z" fill="url(#paint5_linear_208_1809)"/>
<path d="M130.779 110.915C130.463 113.546 129.952 116.145 129.251 118.685C129.124 118.948 128.928 119.162 128.687 119.301C128.447 119.44 128.173 119.497 127.903 119.465C127.428 119.356 127.404 118.477 127.437 118.009C127.877 116.585 128.235 115.133 128.507 113.66C129.528 107.888 129.77 98.3823 129.776 96.3972L131.463 96.6345C131.477 101.405 131.248 106.172 130.779 110.915Z" fill="url(#paint6_linear_208_1809)"/>
<path d="M129.879 121.497L131.944 121.742H131.864L129.879 121.497Z" fill="url(#paint7_linear_208_1809)"/>
<path d="M134.448 110.675C134.127 113.421 133.59 116.132 132.844 118.779C132.718 119.072 132.544 119.338 132.331 119.564C132.115 119.715 131.803 119.808 131.192 119.516C131.048 119.431 130.936 119.295 130.874 119.13C130.813 118.965 130.806 118.782 130.856 118.612C131.404 116.928 131.845 115.205 132.174 113.455C133.106 108.221 133.381 99.9538 133.463 96.9521L135.195 97.1958C135.167 101.7 134.918 106.199 134.448 110.675Z" fill="url(#paint8_linear_208_1809)"/>
<path d="M70.199 107.529C70.1846 107.609 70.1748 107.691 70.1695 107.772C70.1458 107.992 70.0983 108.207 70.0279 108.414C69.7899 108.997 69.3963 109.488 68.8982 109.825C68.2935 110.178 67.146 110.078 65.7154 109.559C64.2847 109.039 64.2405 107.211 64.2198 106.993C64.449 103.827 64.9577 100.692 65.739 97.6321C67.2994 91.7794 68.0693 87.6906 68.0693 87.6906L73.9186 88.5147C73.9186 88.5147 70.901 100.438 70.199 107.529Z" fill="url(#paint9_linear_208_1809)"/>
<path d="M70.1993 107.529C70.1849 107.609 70.1751 107.691 70.1698 107.773L70.1993 107.529Z" fill="#4A1B59"/>
<path d="M64.0106 110.331C63.9575 110.787 63.9664 111.226 63.9516 111.614L63.9811 110.296L64.0106 110.331Z" fill="#672578"/>
<path d="M5.01588 69.0066L5.93298 72.7203C6.54674 75.2005 8.60671 77.3905 11.612 78.7625L12 78.9406L10.575 79.7586C8.25398 81.0976 6.66668 82.9644 6.10231 85.0356L5.01588 89L4.46562 85.0686C4.18343 83.0501 2.94182 81.157 0.945345 79.6926L0 79C2.68783 77.4301 4.3598 75.161 4.62082 72.7137L5.01588 69V69.0066Z" fill="#FA98FF"/>
<path d="M19.0918 64.0066L19.476 66.0497C19.7321 67.414 20.5859 68.6201 21.8399 69.3715L22 69.4703L21.4077 69.9185C20.4418 70.6567 19.7801 71.6848 19.5454 72.8185L19.0918 75L18.8623 72.8382C18.7449 71.731 18.2273 70.6896 17.3949 69.879L17 69.4967C18.1206 68.6333 18.8143 67.3877 18.921 66.0431L19.0864 64L19.0918 64.0066Z" fill="#FA98FF"/>
<path d="M51.1867 30.6999L48.1435 26.1161C48.1043 26.0211 48.0886 25.9166 48.0978 25.8129C48.1071 25.7092 48.141 25.61 48.1963 25.5249L52.7714 20.4228C52.8599 20.3643 52.9233 20.27 52.9478 20.1606C52.9722 20.0513 52.9558 19.9358 52.9019 19.8397C52.8481 19.7436 52.7613 19.6747 52.6606 19.6481C52.56 19.6215 52.4538 19.6394 52.3653 19.6979L46.018 21.7996C45.9284 21.8161 45.8365 21.8083 45.7503 21.7769C45.6641 21.7455 45.5864 21.6915 45.5241 21.6197L42.6741 16.63C42.6475 16.5198 42.5817 16.4256 42.4912 16.368C42.4007 16.3105 42.2929 16.2945 42.1914 16.3233C42.09 16.3522 42.0033 16.4237 41.9503 16.522C41.8974 16.6204 41.8826 16.7375 41.9092 16.8477L41.7899 23.0164C41.7951 23.118 41.7662 23.2182 41.7085 23.2984C41.6508 23.3785 41.5684 23.4332 41.4764 23.4523L35.9242 24.9984C35.8211 24.9875 35.7182 25.0216 35.6383 25.0931C35.5583 25.1646 35.5078 25.2677 35.4978 25.3797C35.4878 25.4918 35.5191 25.6035 35.5849 25.6904C35.6508 25.7773 35.7456 25.8322 35.8487 25.843L41.3774 28.5147C41.4652 28.5431 41.5408 28.6045 41.5909 28.6878C41.6409 28.7711 41.6621 28.8711 41.6506 28.9698L41.3489 32.3484C41.3263 32.3992 41.3132 32.4543 41.3103 32.5106C41.3073 32.5669 41.3146 32.6234 41.3317 32.6766C41.3488 32.7299 41.3754 32.779 41.4099 32.8211C41.4445 32.8632 41.4864 32.8974 41.5331 32.922C41.5799 32.9465 41.6306 32.9608 41.6824 32.964C41.7343 32.9672 41.7862 32.9593 41.8352 32.9407C41.8842 32.9221 41.9294 32.8932 41.9681 32.8557C42.0069 32.8181 42.0385 32.7726 42.061 32.7218L44.8453 29.2214C44.8924 29.144 44.9617 29.0858 45.0424 29.0557C45.1232 29.0257 45.2108 29.0256 45.2917 29.0553L50.695 31.3727C50.7772 31.4436 50.8818 31.4761 50.986 31.4631C51.0902 31.4501 51.1853 31.3927 51.2505 31.3034C51.3157 31.2142 51.3456 31.1005 51.3336 30.9873C51.3217 30.8741 51.2688 30.7707 51.1867 30.6999Z" fill="#F484FA"/>
<defs>
<linearGradient id="paint0_linear_208_1809" x1="97.5964" y1="151.074" x2="99.7122" y2="114.563" gradientUnits="userSpaceOnUse">
<stop offset="0.46847" stop-color="#5840FF"/>
<stop offset="1" stop-color="#2D1A83"/>
</linearGradient>
<linearGradient id="paint1_linear_208_1809" x1="111.791" y1="153.672" x2="115.313" y2="119.307" gradientUnits="userSpaceOnUse">
<stop offset="0.645641" stop-color="#5840FF"/>
<stop offset="1" stop-color="#2D1A83"/>
</linearGradient>
<linearGradient id="paint2_linear_208_1809" x1="11.8285" y1="59.5055" x2="83.2229" y2="129.403" gradientUnits="userSpaceOnUse">
<stop offset="0.472919" stop-color="#5840FF"/>
<stop offset="1" stop-color="#2D1A83"/>
</linearGradient>
<radialGradient id="paint3_radial_208_1809" cx="0" cy="0" r="1" gradientUnits="userSpaceOnUse" gradientTransform="translate(98.8523 116.378) rotate(8.01239) scale(2.23818 2.42606)">
<stop offset="0.15" stop-color="#D01B77"/>
<stop offset="0.34" stop-color="#CC1B77"/>
<stop offset="0.53" stop-color="#C01C78"/>
<stop offset="0.72" stop-color="#AB1E79"/>
<stop offset="0.91" stop-color="#8E207A"/>
<stop offset="1" stop-color="#7F217B"/>
</radialGradient>
<linearGradient id="paint4_linear_208_1809" x1="49957.8" y1="-126.947" x2="52518.7" y2="182.359" gradientUnits="userSpaceOnUse">
<stop stop-color="#4A31D9"/>
<stop offset="1" stop-color="#3C22B3"/>
</linearGradient>
<linearGradient id="paint5_linear_208_1809" x1="112.538" y1="120.226" x2="118.996" y2="96.4504" gradientUnits="userSpaceOnUse">
<stop offset="0.431899" stop-color="#5840FF"/>
<stop offset="1" stop-color="#3920AD"/>
</linearGradient>
<linearGradient id="paint6_linear_208_1809" x1="129.445" y1="96.3972" x2="129.445" y2="119.474" gradientUnits="userSpaceOnUse">
<stop stop-color="#5840FF"/>
<stop offset="0.9999" stop-color="#3C22B4"/>
<stop offset="1" stop-color="#5840FF" stop-opacity="0"/>
</linearGradient>
<linearGradient id="paint7_linear_208_1809" x1="131.683" y1="122.236" x2="129.636" y2="121.989" gradientUnits="userSpaceOnUse">
<stop stop-color="#86217B"/>
<stop offset="0.22" stop-color="#D01B77"/>
<stop offset="0.41" stop-color="#CC1B77"/>
<stop offset="0.6" stop-color="#C01C78"/>
<stop offset="0.8" stop-color="#AB1E79"/>
<stop offset="1" stop-color="#7F217B"/>
</linearGradient>
<linearGradient id="paint8_linear_208_1809" x1="133.009" y1="96.9521" x2="133.009" y2="119.707" gradientUnits="userSpaceOnUse">
<stop stop-color="#5840FF"/>
<stop offset="0.9999" stop-color="#3C22B4"/>
<stop offset="1" stop-color="#5840FF" stop-opacity="0"/>
</linearGradient>
<linearGradient id="paint9_linear_208_1809" x1="67.2631" y1="109.187" x2="72.3515" y2="82.542" gradientUnits="userSpaceOnUse">
<stop stop-color="#5840FF"/>
<stop offset="1" stop-color="#3A20AE"/>
</linearGradient>
</defs>
</svg>
