<svg aria-label="Electroverse, by Octopus Energy" class="w-40 h-16 overflow-hidden hidden sm:block relative pr-4 -m-2" width="1003" height="406" viewBox="0 0 1003 406" fill="none" xmlns="http://www.w3.org/2000/svg"><path d="M435.424 283.963H399.982V212.529H434.875V224.984H412.437V241.56H431.761V253.924H412.437V271.508H435.424V283.963ZM440.66 283.963V212.529H453.024V271.508H472.439V283.963H440.66ZM512.876 283.963H477.433V212.529H512.326V224.984H489.889V241.56H509.212V253.924H489.889V271.508H512.876V283.963ZM553.096 283.963C547.784 283.963 542.9 283.047 538.443 281.216C534.047 279.323 530.262 276.759 527.087 273.523C523.973 270.226 521.531 266.349 519.76 261.892C517.99 257.435 517.104 252.642 517.104 247.513C517.104 242.324 517.959 237.592 519.669 233.318C521.439 229.044 523.881 225.381 526.995 222.328C530.17 219.214 533.955 216.803 538.351 215.093C542.808 213.384 547.723 212.529 553.096 212.529H563.537V224.984H553.096C549.677 224.984 546.502 225.595 543.572 226.816C540.702 227.976 538.199 229.594 536.062 231.67C533.986 233.745 532.337 236.249 531.116 239.179C529.956 242.049 529.376 245.163 529.376 248.521C529.376 251.879 529.956 254.962 531.116 257.771C532.276 260.579 533.894 263.021 535.97 265.097C538.046 267.112 540.549 268.699 543.48 269.859C546.411 270.958 549.616 271.508 553.096 271.508H563.537V283.963H553.096ZM596.582 224.984V283.963H584.127V224.984H565.902V212.529H614.807V224.984H596.582ZM672.667 283.963H655.266L636.309 263.907C635.21 262.747 634.355 261.648 633.745 260.61C633.195 259.572 632.92 258.534 632.92 257.496C632.92 253.588 635.393 251.451 640.338 251.085C646.993 250.597 651.908 249.284 655.083 247.147C658.319 244.949 659.937 241.652 659.937 237.256C659.937 233.165 658.685 230.113 656.182 228.098C653.74 226.022 650.229 224.984 645.65 224.984H631.913V283.963H619.458V212.529H645.925C649.649 212.529 653.16 213.078 656.457 214.177C659.754 215.215 662.593 216.772 664.974 218.848C667.416 220.863 669.34 223.397 670.744 226.449C672.148 229.502 672.85 233.013 672.85 236.981C672.85 239.362 672.484 241.805 671.751 244.308C671.019 246.811 669.797 249.162 668.088 251.36C666.378 253.558 664.119 255.512 661.311 257.221C658.502 258.87 654.992 260.03 650.779 260.701L672.667 283.963ZM711.59 283.963C706.339 283.963 701.485 283.047 697.028 281.216C692.632 279.323 688.847 276.728 685.672 273.431C682.497 270.134 680.024 266.288 678.254 261.892C676.483 257.435 675.598 252.642 675.598 247.513C675.598 242.385 676.452 237.683 678.162 233.41C679.933 229.136 682.375 225.442 685.489 222.328C688.663 219.214 692.449 216.803 696.845 215.093C701.302 213.384 706.217 212.529 711.59 212.529H713.696C719.13 212.529 724.045 213.414 728.441 215.185C732.898 216.894 736.683 219.306 739.797 222.42C742.972 225.534 745.414 229.227 747.124 233.501C748.833 237.775 749.688 242.446 749.688 247.513C749.688 252.642 748.803 257.435 747.032 261.892C745.261 266.288 742.758 270.134 739.522 273.431C736.347 276.728 732.562 279.323 728.166 281.216C723.77 283.047 718.947 283.963 713.696 283.963H711.59ZM711.59 224.984C708.171 224.984 705.026 225.564 702.157 226.724C699.287 227.884 696.784 229.502 694.647 231.578C692.571 233.654 690.922 236.127 689.701 238.996C688.541 241.866 687.961 245.041 687.961 248.521C687.961 251.879 688.541 254.962 689.701 257.771C690.861 260.579 692.479 263.021 694.555 265.097C696.631 267.112 699.104 268.699 701.973 269.859C704.904 270.958 708.109 271.508 711.59 271.508H713.696C717.237 271.508 720.443 270.928 723.312 269.768C726.243 268.608 728.746 267.02 730.822 265.006C732.898 262.93 734.485 260.488 735.584 257.679C736.744 254.87 737.324 251.818 737.324 248.521C737.324 245.102 736.744 241.957 735.584 239.088C734.424 236.218 732.776 233.745 730.639 231.67C728.563 229.533 726.06 227.884 723.129 226.724C720.259 225.564 717.115 224.984 713.696 224.984H711.59ZM741.413 212.529H756.158L786.838 260.793V212.529H799.202V278.285C799.202 280.178 798.713 281.674 797.736 282.773C796.821 283.872 795.569 284.421 793.982 284.421C792.577 284.421 791.234 284.146 789.952 283.597C788.731 283.047 787.693 282.101 786.838 280.758L741.413 212.529ZM842.626 283.963H807.184V212.529H842.077V224.984H819.639V241.56H838.963V253.924H819.639V271.508H842.626V283.963ZM901.713 283.963H884.312L865.354 263.907C864.255 262.747 863.401 261.648 862.79 260.61C862.241 259.572 861.966 258.534 861.966 257.496C861.966 253.588 864.439 251.451 869.384 251.085C876.039 250.597 880.954 249.284 884.129 247.147C887.365 244.949 888.983 241.652 888.983 237.256C888.983 233.165 887.731 230.113 885.228 228.098C882.786 226.022 879.275 224.984 874.696 224.984H860.958V283.963H848.503V212.529H874.97C878.695 212.529 882.206 213.078 885.502 214.177C888.799 215.215 891.638 216.772 894.02 218.848C896.462 220.863 898.385 223.397 899.789 226.449C901.194 229.502 901.896 233.013 901.896 236.981C901.896 239.362 901.529 241.805 900.797 244.308C900.064 246.811 898.843 249.162 897.133 251.36C895.424 253.558 893.165 255.512 890.356 257.221C887.548 258.87 884.037 260.03 879.824 260.701L901.713 283.963ZM909.154 283.963V271.508H934.156C938.002 271.508 941.177 270.592 943.68 268.76C946.183 266.929 947.435 264.548 947.435 261.617C947.435 260.152 947.099 258.808 946.428 257.587C945.756 256.366 944.84 255.328 943.68 254.474C942.52 253.558 941.116 252.856 939.467 252.367C937.819 251.879 936.048 251.635 934.156 251.635H928.478C925.547 251.635 922.83 251.177 920.327 250.261C917.823 249.284 915.656 247.941 913.824 246.231C911.993 244.461 910.558 242.415 909.52 240.095C908.482 237.714 907.963 235.089 907.963 232.219C907.963 229.411 908.482 226.816 909.52 224.435C910.619 222.053 912.145 219.978 914.099 218.207C916.053 216.436 918.403 215.063 921.151 214.086C923.898 213.048 926.921 212.529 930.218 212.529H953.937V224.984H929.576C926.951 224.984 924.875 225.717 923.349 227.182C921.823 228.586 921.059 230.296 921.059 232.311C921.059 234.509 921.823 236.34 923.349 237.806C924.936 239.271 927.012 240.004 929.576 240.004H936.628C939.803 240.004 942.734 240.553 945.42 241.652C948.107 242.69 950.427 244.186 952.381 246.14C954.334 248.093 955.861 250.413 956.96 253.1C958.059 255.786 958.608 258.717 958.608 261.892C958.608 265.128 958.028 268.089 956.868 270.775C955.708 273.462 954.029 275.782 951.831 277.736C949.694 279.689 947.13 281.216 944.138 282.315C941.146 283.414 937.819 283.963 934.156 283.963H909.154ZM1001.02 283.963H965.575V212.529H1000.47V224.984H978.03V241.56H997.354V253.924H978.03V271.508H1001.02V283.963Z" fill="white"></path><g clip-path="url(#clip0_9319_21702)"><path d="M595.639 156.108C595.639 168.961 586.194 179.383 571.569 179.383C558.274 179.383 547.988 169.273 547.988 156.421C547.988 142.904 558.522 133.459 571.817 133.459C585.112 133.459 595.646 143.249 595.646 156.102L595.639 156.108ZM571.81 170.719C579.706 170.719 585.327 164.316 585.327 156.421C585.327 148.526 580.285 142.122 571.81 142.122C563.336 142.122 558.294 148.526 558.294 156.421C558.294 164.316 563.863 170.719 571.81 170.719Z" fill="white"></path><path d="M711.155 156.108C711.155 168.961 701.709 179.383 687.085 179.383C673.79 179.383 663.504 169.28 663.504 156.421C663.504 142.904 674.037 133.459 687.333 133.459C700.628 133.459 711.161 143.249 711.161 156.102L711.155 156.108ZM687.326 170.719C695.221 170.719 700.843 164.316 700.843 156.421C700.843 148.526 695.801 142.122 687.326 142.122C678.851 142.122 673.809 148.526 673.809 156.421C673.809 164.316 679.379 170.719 687.326 170.719Z" fill="white"></path><path d="M763.712 160.681C763.712 160.681 763.712 143.087 763.712 138.54C764.545 132.176 773.515 135.589 773.515 135.589V159.327C773.515 166.72 778.583 170.342 784.837 170.342C791.091 170.342 796.159 166.85 796.159 159.32C796.159 159.32 796.185 143.113 796.185 138.559C797.018 132.195 805.988 135.609 805.988 135.609V150.865C807.265 169.671 825.251 171.078 825.251 171.078C843.158 173.56 841.582 166.205 841.582 166.205C841.119 162.505 838.357 161.665 833.595 161.053C830.638 160.675 828.065 160.414 828.065 160.414C808.868 159.203 810.757 146.539 810.757 146.539C810.998 135.824 822.463 134.195 822.463 134.195C832.592 132.391 839.738 134.162 839.738 134.162C855.496 137.439 847.737 144.911 846.435 145.334C846.435 145.334 842.24 141.491 832.416 140.937C820.319 140.168 820.534 145.875 820.534 145.875C820.144 150.037 825.472 150.8 825.472 150.8L838.435 152.61C853.743 154.747 851.88 165.606 851.88 165.606C850.877 179.188 834.69 179.292 834.69 179.292C812.555 180.576 804.217 169.085 804.217 169.085C801.116 175.26 794.921 179.384 784.628 179.384C772.356 179.384 763.705 172.505 763.705 160.16" fill="white"></path><path d="M619.846 134.188C602.141 135.452 598.102 151.907 598.532 156.688C598.284 163.912 603.339 179.377 622.901 179.383C625.474 179.338 627.839 179.103 629.995 178.706V169.938C628.119 170.27 625.859 170.479 623.129 170.55C614.003 170.778 608.818 163.287 608.85 156.688C608.85 149.034 615.111 142.748 623.129 142.826H638.946L638.985 164.479C638.985 164.479 637.845 182.829 661.042 178.98V170.244C648.183 173.013 648.873 164.922 648.873 164.922V142.839H661.042V134.175H648.873V123.955H638.985V134.175L619.853 134.188H619.846Z" fill="white"></path><path d="M723.876 192.542C723.042 198.906 714.072 195.493 714.072 195.493V156.421C714.639 143.953 722.098 133.804 737.452 133.459C751.007 133.159 760.746 143.249 760.831 156.102C760.922 169.723 751.372 179.846 737.256 179.246C732.227 178.966 727.309 176.986 723.915 172.628C723.915 172.628 723.87 187.988 723.876 192.542V192.542ZM737.197 170.758C745.008 170.758 750.577 164.355 750.577 156.46C750.577 148.565 745.588 142.161 737.197 142.161C728.807 142.161 723.817 148.565 723.817 156.46C723.817 164.355 729.328 170.758 737.197 170.758Z" fill="white"></path></g><g filter="url(#filter0_dd_9319_21702)"><path fill-rule="evenodd" clip-rule="evenodd" d="M190.938 196.176L186.858 208.565C184.939 214.393 189.944 220.156 195.984 219.072L231.017 212.782C236.175 211.856 240.842 215.997 240.535 221.229L239.73 234.981C203.186 254.2 168.727 268.237 142.092 275.612C127.918 279.536 116.386 281.452 108.111 281.449C103.967 281.447 101.064 280.96 99.1938 280.287C97.401 279.642 97.0738 279.032 97.0463 278.98L97.0456 278.979L97.0449 278.978C97.0172 278.927 96.6868 278.318 97.1325 276.465C97.5975 274.533 98.7855 271.84 101.061 268.376C105.604 261.46 113.54 252.876 124.607 243.189C141.187 228.674 164.039 212.331 190.938 196.176ZM194.693 184.775C126.952 224.23 81.2607 266.357 90.0904 282.73C99.3279 299.859 164.904 282.611 239.191 244.174L235.429 308.417C234.854 318.237 248.985 320.4 251.374 310.858L272.696 225.685C339.118 186.637 383.634 145.307 374.909 129.128C366.268 113.105 308.329 127.163 240.076 160.507L240.191 97.1228C240.208 87.9083 227.279 85.8222 224.397 94.5744L194.693 184.775ZM240.601 169.054C241.945 172.556 245.643 174.831 249.598 174.121L274.967 169.567C280.753 168.528 285.684 173.804 284.256 179.507L275.402 214.874C301.72 198.983 324.089 182.942 340.393 168.669C351.459 158.982 359.395 150.398 363.939 143.482C366.214 140.018 367.402 137.325 367.867 135.393C368.312 133.54 367.982 132.932 367.954 132.88L367.953 132.878C367.925 132.827 367.598 132.216 365.805 131.571C363.935 130.898 361.032 130.411 356.889 130.409C348.613 130.406 337.081 132.322 322.907 136.246C300.031 142.58 271.384 153.829 240.601 169.054Z" fill="#FF48D8"></path></g><circle cx="155.727" cy="273.03" r="19.9532" fill="#FF48D8"></circle><defs><filter id="filter0_dd_9319_21702" x="0.437706" y="0.437706" width="464.125" height="405.124" filterUnits="userSpaceOnUse" color-interpolation-filters="sRGB"><feFlood flood-opacity="0" result="BackgroundImageFix"></feFlood><feColorMatrix in="SourceAlpha" type="matrix" values="0 0 0 0 0 0 0 0 0 0 0 0 0 0 0 0 0 0 127 0" result="hardAlpha"></feColorMatrix><feOffset></feOffset><feGaussianBlur stdDeviation="44.2811"></feGaussianBlur><feColorMatrix type="matrix" values="0 0 0 0 0.295662 0 0 0 0 0.106979 0 0 0 0 0.9875 0 0 0 1 0"></feColorMatrix><feBlend mode="normal" in2="BackgroundImageFix" result="effect1_dropShadow_9319_21702"></feBlend><feColorMatrix in="SourceAlpha" type="matrix" values="0 0 0 0 0 0 0 0 0 0 0 0 0 0 0 0 0 0 127 0" result="hardAlpha"></feColorMatrix><feOffset dy="5.44999"></feOffset><feGaussianBlur stdDeviation="20.4375"></feGaussianBlur><feColorMatrix type="matrix" values="0 0 0 0 0.461825 0 0 0 0 0.0102083 0 0 0 0 0.816667 0 0 0 1 0"></feColorMatrix><feBlend mode="normal" in2="effect1_dropShadow_9319_21702" result="effect2_dropShadow_9319_21702"></feBlend><feBlend mode="normal" in="SourceGraphic" in2="effect2_dropShadow_9319_21702" result="shape"></feBlend></filter><clipPath id="clip0_9319_21702"><rect width="303.976" height="72.4567" fill="white" transform="translate(547.988 123.955)"></rect></clipPath></defs></svg>