<svg aria-label="Electroverse, by Octopus Energy" class="w-18 h-18 sm:hidden -m-2" width="453" height="393" viewBox="0 0 453 393" fill="none" xmlns="http://www.w3.org/2000/svg"><g filter="url(#filter0_dd_8935_96932)"><path fill-rule="evenodd" clip-rule="evenodd" d="M180.858 196.565L184.938 184.176C158.039 200.331 135.187 216.674 118.607 231.189C107.54 240.876 99.6042 249.46 95.0606 256.376C92.7855 259.84 91.5975 262.533 91.1325 264.465C90.6868 266.318 91.0172 266.927 91.0449 266.978L91.0456 266.979L91.0463 266.98C91.0738 267.032 91.401 267.642 93.1938 268.287C95.0639 268.96 97.9668 269.447 102.111 269.449C109.208 269.452 118.702 268.043 130.203 265.166C129.921 263.831 129.773 262.448 129.773 261.03C129.773 250.01 138.707 241.076 149.727 241.076C157.886 241.076 164.901 245.973 167.993 252.988C188.076 245.337 210.481 235.207 233.73 222.981L234.535 209.229C234.842 203.997 230.175 199.856 225.017 200.782L189.984 207.072C183.944 208.156 178.939 202.393 180.858 196.565ZM169.679 260.801C189.187 253.426 210.793 243.763 233.191 232.174L229.429 296.417C228.854 306.237 242.985 308.4 245.374 298.858L266.696 213.685C333.118 174.637 377.634 133.307 368.909 117.128C360.268 101.105 302.329 115.163 234.076 148.507L234.191 85.1228C234.208 75.9083 221.279 73.8222 218.397 82.5744L188.693 172.775C120.952 212.23 75.2607 254.357 84.0904 270.73C88.6605 279.204 107.021 279.264 133.403 272.507C137.014 277.634 142.979 280.983 149.727 280.983C160.746 280.983 169.68 272.049 169.68 261.03C169.68 260.953 169.679 260.877 169.679 260.801ZM243.598 162.121C239.643 162.831 235.945 160.556 234.601 157.054C265.384 141.829 294.031 130.58 316.907 124.246C331.081 120.322 342.613 118.406 350.889 118.409C355.032 118.411 357.935 118.898 359.805 119.571C361.598 120.216 361.925 120.827 361.953 120.878L361.954 120.88C361.982 120.932 362.312 121.54 361.867 123.393C361.402 125.325 360.214 128.018 357.939 131.482C353.395 138.398 345.459 146.982 334.393 156.669C318.089 170.942 295.72 186.983 269.402 202.874L278.256 167.507C279.684 161.804 274.753 156.528 268.967 157.567L243.598 162.121Z" fill="#FF48D8"></path></g><defs><filter id="filter0_dd_8935_96932" x="0.837723" y="0.28771" width="451.325" height="392.324" filterUnits="userSpaceOnUse" color-interpolation-filters="sRGB"><feFlood flood-opacity="0" result="BackgroundImageFix"></feFlood><feColorMatrix in="SourceAlpha" type="matrix" values="0 0 0 0 0 0 0 0 0 0 0 0 0 0 0 0 0 0 127 0" result="hardAlpha"></feColorMatrix><feOffset dy="5.44999"></feOffset><feGaussianBlur stdDeviation="41.0811"></feGaussianBlur><feColorMatrix type="matrix" values="0 0 0 0 0.294118 0 0 0 0 0.105882 0 0 0 0 0.988235 0 0 0 1 0"></feColorMatrix><feBlend mode="normal" in2="BackgroundImageFix" result="effect1_dropShadow_8935_96932"></feBlend><feColorMatrix in="SourceAlpha" type="matrix" values="0 0 0 0 0 0 0 0 0 0 0 0 0 0 0 0 0 0 127 0" result="hardAlpha"></feColorMatrix><feOffset dy="1.3146"></feOffset><feGaussianBlur stdDeviation="20.7821"></feGaussianBlur><feColorMatrix type="matrix" values="0 0 0 0 0.462745 0 0 0 0 0.0117647 0 0 0 0 0.815686 0 0 0 1 0"></feColorMatrix><feBlend mode="normal" in2="effect1_dropShadow_8935_96932" result="effect2_dropShadow_8935_96932"></feBlend><feBlend mode="normal" in="SourceGraphic" in2="effect2_dropShadow_8935_96932" result="shape"></feBlend></filter></defs></svg>