<svg width="337" height="361" viewBox="0 0 337 361" fill="none" xmlns="http://www.w3.org/2000/svg">
<path d="M116.5 83.0002C52.4998 79.0002 1.99999 127 41 211C-9.49997 206.5 -7.00024 242 21.4998 252C49.9998 262 96.0395 352.286 145.5 354.5C212.5 357.5 271.5 343.5 315 270.5C358.5 197.5 331 105 271.5 108.5C212 112 196.5 88.0002 116.5 83.0002Z" fill="#180048" stroke="#180048"/>
<path d="M190 361H161L164.75 286.981L165.855 265.384L167.971 223.678L171.041 163.333L172.298 131.797L173.516 101.222L173.545 100.741L173.705 95L179.184 95.1387V95.2404C179.184 95.2404 179.26 95.1664 179.278 95.1387L179.458 99.4748V99.521L179.571 102.452L180.053 114.175L180.79 132.333L184.276 218.621C184.276 218.621 184.228 218.195 184.162 217.437L185.73 256.009L186.987 286.953L190 361Z" fill="#FA98FF"/>
<path d="M214.837 198C214.531 195.689 214.178 193.377 213.826 191.066C212.944 185.325 211.989 179.593 210.959 173.871C209.624 166.493 208.158 159.143 206.479 151.84C204.819 144.619 202.973 137.418 200.626 130.382C199.522 127.063 192.314 114.86 189.615 112.16C186.943 109.488 184.262 106.807 181.591 104.136C180.552 103.1 179.504 102.046 178.446 100.992C179.995 99.6703 179.875 96.2404 179.281 94.6872C181.34 91.1556 184.754 85.1741 188.724 77.6117C189.132 76.8444 189.504 76.1418 189.81 75.5316C200.236 55.4422 213.956 25.4515 218 0C216.618 1.88598 215.273 3.79969 213.928 5.7134C210.579 10.4746 207.305 15.2727 204.095 20.1263C199.949 26.376 195.913 32.7088 192.073 39.1525C188.27 45.5223 184.615 51.9938 181.442 58.6965C179.94 61.8582 176.702 75.6518 176.786 79.4515C176.841 81.8552 176.888 84.2681 176.944 86.6718L177.027 90.5455C177.027 90.6194 177.027 90.6934 177.027 90.7673C177.036 91.2851 177.046 91.8028 177.064 92.3205C176.944 92.2928 176.832 92.265 176.693 92.2558C174.782 92.0894 173.298 93.6703 172.918 94.0493C172.287 94.6872 171.712 95.4361 171.396 96.2773C171.1 96.1849 170.803 96.074 170.506 95.9815C164.968 94.1695 159.402 92.4407 153.809 90.7858C146.601 88.6502 139.356 86.6348 132.056 84.8413C124.839 83.0663 117.557 81.4576 110.201 80.3667C106.732 79.8582 92.5486 80.7643 88.9216 81.9476C85.3225 83.1217 81.7233 84.2958 78.1148 85.4607C75.7958 86.2188 73.4767 86.9769 71 87.7812C71 87.7812 128.856 102.758 171.498 98.8567C171.962 99.6795 172.806 100.345 173.586 100.826C174.615 101.464 175.793 101.75 176.962 101.575C179.921 114.129 193.223 166.826 214.865 197.982L214.837 198Z" fill="#FA98FF"/>
<path d="M153.208 322.716V356.636L149.891 357.088V321.962L153.208 322.716Z" fill="#98FFFF"/>
<path d="M149.891 357.088L146.423 354.978V324.375L149.891 321.962V357.088Z" fill="#FFA26B"/>
<path d="M271.553 321.858V325.412L93.8117 337.28L18 247.277L18.073 242.436L110.368 280.429L271.553 321.858Z" fill="#FFA26B"/>
<path d="M95.1103 333.34L18.073 242.436L186.846 250.426L271.553 321.858L95.1103 333.34Z" fill="#60EDF5"/>
<path d="M22.0054 243.63L31.2607 254.162L55.9581 282.263L68.186 296.174V296.18L80.8468 310.587L98.2864 330.427L187.946 325.339L251.813 321.719H251.822L267.424 320.831L254.299 309.783L219.065 280.147L185.344 251.777L22.0054 243.63Z" fill="#180048"/>
<path opacity="0.2" d="M219.065 280.147L31.2605 254.161L55.958 282.262L254.299 309.783L219.065 280.147Z" fill="#F0FFFF"/>
<path opacity="0.2" d="M251.813 321.718L68.1859 296.18L80.8467 310.586L187.946 325.338L251.813 321.718Z" fill="#F0FFFF"/>
<path d="M250.381 304.683L78.2179 308.575L78.2528 310.119L250.416 306.227L250.381 304.683Z" fill="#60EDF5"/>
<path d="M232.995 289.99L63.111 290.599L63.1165 292.143L233 291.534L232.995 289.99Z" fill="#60EDF5"/>
<path d="M47.2628 272.722L47.2372 274.266L216.25 277.072L216.275 275.528L47.2628 272.722Z" fill="#60EDF5"/>
<path d="M259.64 220.688L248.942 241.669L258.688 242.657L251.661 259.815L271.677 236.863L260.666 235.746L271.354 222.058L259.64 220.688Z" fill="#6675F6"/>
<path d="M242.443 211.246L241.204 224.411L246.495 222.908L246.381 233.318L252.073 217.195L246.096 218.892L248.839 209.536L242.443 211.246Z" fill="#FFA26B"/>
<path d="M271.553 321.858V325.412L93.8117 337.28L18 247.277L18.073 242.436L110.368 280.429L271.553 321.858Z" fill="#FFA26B"/>
<path d="M95.1103 333.34L18.073 242.436L186.846 250.426L271.553 321.858L95.1103 333.34Z" fill="#60EDF5"/>
<path d="M22.0054 243.63L31.2607 254.162L55.9581 282.263L68.186 296.174V296.18L80.8468 310.587L98.2864 330.427L187.946 325.339L251.813 321.719H251.822L267.424 320.831L254.299 309.783L219.065 280.147L185.344 251.777L22.0054 243.63Z" fill="#180048"/>
<path opacity="0.2" d="M219.065 280.147L31.2605 254.161L55.958 282.262L254.299 309.783L219.065 280.147Z" fill="#F0FFFF"/>
<path opacity="0.2" d="M251.813 321.718L68.1859 296.18L80.8467 310.586L187.946 325.338L251.813 321.718Z" fill="#F0FFFF"/>
<path d="M250.381 304.683L78.2179 308.575L78.2528 310.119L250.416 306.227L250.381 304.683Z" fill="#60EDF5"/>
<path d="M232.995 289.99L63.111 290.599L63.1165 292.143L233 291.534L232.995 289.99Z" fill="#60EDF5"/>
<path d="M47.2628 272.722L47.2372 274.266L216.25 277.072L216.275 275.528L47.2628 272.722Z" fill="#60EDF5"/>
<path d="M32.6291 257.238L32.5839 258.782L199.647 263.676L199.692 262.132L32.6291 257.238Z" fill="#60EDF5"/>
<path d="M58.9738 244.281L57.8611 245.352L138.44 329.108L139.552 328.038L58.9738 244.281Z" fill="#60EDF5"/>
<path d="M95.1714 246.079L94.0948 247.186L176.881 327.717L177.958 326.61L95.1714 246.079Z" fill="#60EDF5"/>
<path d="M128.81 247.669L127.754 248.795L209.655 325.543L210.711 324.417L128.81 247.669Z" fill="#60EDF5"/>
<path d="M159.383 249.11L158.353 250.261L240.574 323.861L241.604 322.711L159.383 249.11Z" fill="#60EDF5"/>
</svg>
