<svg width="1056" height="390" viewBox="0 0 1056 390" fill="none" xmlns="http://www.w3.org/2000/svg">
<g clip-path="url(#clip0_6_2242)">
<path d="M1040.07 358.991C1027.12 371.969 1005.83 381.228 974.63 383.974C934.147 387.543 899.943 388.667 869.416 388.262C868.086 388.25 866.768 388.227 865.461 388.204C863.75 388.181 862.062 388.146 860.373 388.1C858.928 388.065 857.483 388.03 856.049 387.984C853.84 387.926 851.643 387.856 849.469 387.775C845.121 387.624 840.855 387.439 836.646 387.23C832.101 386.999 827.626 386.744 823.221 386.454C822.168 386.385 821.128 386.315 820.099 386.245C819.15 386.188 818.202 386.118 817.266 386.048C815.739 385.944 814.225 385.828 812.71 385.712C809.692 385.492 806.697 385.249 803.725 384.994C802.233 384.878 800.753 384.751 799.273 384.612C797.793 384.484 796.325 384.357 794.856 384.218C792.139 383.963 789.433 383.708 786.75 383.441C782.171 382.989 777.638 382.526 773.117 382.039C770.238 381.726 767.382 381.413 764.526 381.1C755.819 380.127 747.158 379.119 738.428 378.099C736.416 377.856 734.404 377.624 732.38 377.392C732.045 377.358 731.721 377.323 731.397 377.276C730.287 377.149 729.165 377.022 728.055 376.894C723.014 376.303 717.938 375.724 712.792 375.156C710.641 374.924 708.479 374.681 706.305 374.437C704.779 374.275 703.241 374.113 701.703 373.951C700.211 373.789 698.708 373.638 697.205 373.487C696.257 373.383 695.285 373.279 694.325 373.186C693.019 373.059 691.712 372.919 690.394 372.792C689.006 372.653 687.607 372.514 686.208 372.386C679.155 371.703 671.939 371.054 664.527 370.474C663.741 370.405 662.954 370.347 662.157 370.289C660.538 370.162 658.907 370.034 657.265 369.918C654.941 369.744 652.594 369.582 650.223 369.42C648.419 369.304 646.604 369.188 644.777 369.072C642.245 368.91 639.678 368.759 637.087 368.62C629.317 368.192 621.304 367.832 613.013 367.554C610.249 367.462 607.451 367.38 604.629 367.311C603.681 367.288 602.733 367.265 601.785 367.241C590.025 366.975 577.687 366.871 564.679 366.987C563.002 366.998 561.325 367.021 559.637 367.044H559.302C557.498 367.068 555.682 367.091 553.855 367.126C553.636 367.126 553.404 367.137 553.185 367.137C551.011 367.172 548.825 367.218 546.617 367.276C544.397 367.323 542.153 367.38 539.887 367.438C537.991 367.496 536.071 367.554 534.152 367.612C530.301 367.74 526.393 367.879 522.427 368.041C519.651 368.145 516.842 368.273 514.009 368.4C512.794 368.458 511.569 368.516 510.343 368.574C508.308 368.678 506.25 368.771 504.168 368.887C501.069 369.049 497.924 369.223 494.744 369.408H494.733C492.108 369.559 489.46 369.721 486.777 369.895C486.211 369.93 485.644 369.965 485.077 369.999C483.505 370.104 481.921 370.208 480.325 370.312C479.724 370.347 479.122 370.393 478.509 370.44C476.948 370.544 475.364 370.648 473.78 370.764C472.682 370.845 471.583 370.926 470.473 371.007C469.374 371.077 468.264 371.158 467.143 371.251C466.461 371.297 465.778 371.355 465.085 371.401C463.535 371.517 461.974 371.633 460.401 371.761L457.418 372.004C455.371 372.166 453.313 372.328 451.243 372.502C446.41 372.908 441.484 373.337 436.489 373.789C435.298 373.893 434.107 373.997 432.904 374.113C418.438 375.446 403.314 376.998 387.484 378.771C385.16 379.038 382.812 379.304 380.465 379.582C374.718 380.243 368.878 380.927 362.935 381.657C361.455 381.842 359.986 382.016 358.518 382.19C153.687 406.466 39.4537 370.532 8.60304 324.158C5.60816 319.65 3.39959 315.05 1.96575 310.392C-6.88012 281.584 14.1303 250.749 63.4474 228.697C139.938 194.49 293.556 134.836 168.673 158.012C62.8808 177.641 76.167 45.6096 323.62 18.9576C468.16 3.39516 768.804 -20.441 893.687 54.8799C929.209 76.3058 932.967 101.22 927.845 120.78C923.289 138.173 911.078 152.612 894.994 160.596C849.62 183.134 767.035 242.765 853.216 213.633C943.513 183.111 1022.37 232.116 1047.58 285.408C1060.16 311.991 1059.4 339.616 1040.07 358.991Z" fill="#100030"/>
<path d="M1040.07 358.991C1027.12 371.969 1005.83 381.228 974.63 383.974C934.147 387.543 899.943 388.667 869.416 388.262C868.086 388.25 866.768 388.227 865.461 388.204C863.75 388.181 862.062 388.146 860.373 388.1C858.928 388.065 857.483 388.03 856.049 387.984C853.84 387.926 851.643 387.856 849.469 387.775C845.121 387.624 840.855 387.439 836.646 387.23C832.101 386.999 827.626 386.744 823.221 386.454C822.168 386.385 821.128 386.315 820.099 386.245C819.15 386.188 818.202 386.118 817.266 386.048C815.878 385.956 814.502 385.852 813.126 385.747C812.987 385.736 812.849 385.724 812.71 385.712C809.692 385.492 806.697 385.249 803.725 384.994C802.234 384.878 800.753 384.751 799.273 384.612C797.793 384.484 796.325 384.357 794.856 384.218C792.139 383.963 789.433 383.708 786.75 383.441C785.721 383.337 784.692 383.233 783.663 383.128C780.125 382.781 776.621 382.422 773.117 382.039C770.238 381.726 767.382 381.413 764.526 381.1C755.819 380.127 747.158 379.119 738.428 378.099C736.416 377.856 734.404 377.624 732.38 377.392C732.045 377.358 731.721 377.323 731.397 377.276C730.287 377.149 729.165 377.022 728.055 376.894C723.014 376.303 717.938 375.724 712.792 375.156C710.641 374.924 708.479 374.681 706.305 374.437C704.779 374.275 703.241 374.113 701.703 373.951C700.211 373.789 698.708 373.638 697.205 373.487C696.257 373.383 695.285 373.279 694.326 373.186C693.019 373.059 691.712 372.919 690.394 372.792C689.006 372.653 687.607 372.514 686.208 372.386C679.154 371.703 671.939 371.054 664.527 370.474C663.741 370.405 662.954 370.347 662.157 370.289C660.538 370.162 658.907 370.034 657.265 369.918C654.941 369.744 652.594 369.582 650.223 369.42C648.419 369.304 646.604 369.188 644.777 369.072C642.245 368.91 639.678 368.759 637.088 368.62C629.317 368.192 621.304 367.832 613.013 367.554C610.249 367.462 607.451 367.38 604.63 367.311C603.681 367.288 602.733 367.265 601.785 367.241C590.025 366.975 577.687 366.871 564.679 366.987C563.002 366.998 561.325 367.021 559.637 367.044H559.302C557.498 367.068 555.682 367.091 553.855 367.126C553.636 367.126 553.404 367.137 553.185 367.137C551.011 367.172 548.825 367.218 546.617 367.276C544.397 367.323 542.153 367.38 539.887 367.438C537.991 367.496 536.071 367.554 534.152 367.612C530.301 367.74 526.393 367.879 522.427 368.041C519.651 368.145 516.841 368.273 514.008 368.4C512.794 368.458 511.569 368.516 510.343 368.574C508.308 368.678 506.25 368.771 504.168 368.887C501.069 369.049 497.924 369.223 494.744 369.408H494.733C492.108 369.559 489.46 369.721 486.777 369.895C486.211 369.93 485.644 369.965 485.077 369.999C483.505 370.104 481.921 370.208 480.325 370.312C479.724 370.347 479.122 370.393 478.509 370.44C476.948 370.544 475.364 370.648 473.78 370.764C472.682 370.845 471.583 370.926 470.473 371.008C469.374 371.077 468.264 371.158 467.143 371.251C466.461 371.297 465.778 371.355 465.084 371.401C463.535 371.517 461.974 371.633 460.401 371.761L457.418 372.004C455.371 372.166 453.313 372.328 451.243 372.502C446.41 372.908 441.484 373.337 436.489 373.789C435.298 373.893 434.107 373.997 432.904 374.113C418.438 375.446 403.314 376.998 387.484 378.771C385.159 379.038 382.812 379.304 380.465 379.582C374.718 380.243 368.878 380.927 362.935 381.657C361.455 381.842 359.986 382.016 358.518 382.19C153.687 406.466 39.4537 370.532 8.60303 324.158C39.0721 307.61 96.2396 293.775 137 292.5C211.005 290.182 255.096 303.983 325.782 298.201C396.468 292.43 505.001 216.333 594.119 219.612C666.458 222.289 731.883 281.573 787.352 302.57C795.018 305.467 802.499 307.645 809.773 308.827C814.71 309.638 846.151 308.526 850.903 308.653C944 311.15 1027.5 352.5 1040.07 358.991Z" fill="#18F0B8"/>
<path d="M338.097 233.576V243.124" stroke="#D9DDFF" stroke-width="4.54" stroke-linecap="round" stroke-linejoin="round"/>
<path d="M248.066 260.054L313.017 304.829L301.002 259.023L294.469 234.155L288.225 112.877L274.696 95.1477L262.196 112.877L254.934 233.819L236.318 304.969L300.991 259.011" stroke="#D9DDFF" stroke-width="4.54" stroke-linecap="round" stroke-linejoin="round"/>
<path d="M262.196 112.889L288.26 139.471L259.675 166.749L291.752 196.101L254.923 233.831L304.379 272.001" stroke="#D9DDFF" stroke-width="4.54" stroke-linecap="round" stroke-linejoin="round"/>
<path d="M288.225 112.889L261.572 139.911L289.855 167.653L258.033 195.939L294.469 234.167L244.955 272.001" stroke="#D9DDFF" stroke-width="4.54" stroke-linecap="round" stroke-linejoin="round"/>
<path d="M256.149 209.705L242.978 217.318L214.903 233.576L254.241 233.194L242.978 217.307" stroke="#D9DDFF" stroke-width="4.54" stroke-linecap="round" stroke-linejoin="round"/>
<path d="M212.613 243.692H218.418" stroke="#D9DDFF" stroke-width="4.54" stroke-linecap="round" stroke-linejoin="round"/>
<path d="M214.96 233.576V243.124" stroke="#D9DDFF" stroke-width="4.54" stroke-linecap="round" stroke-linejoin="round"/>
<path d="M258.808 169.368L244.528 177.63M244.528 177.63L216.429 193.888H256.738L244.528 177.63Z" stroke="#D9DDFF" stroke-width="4.54" stroke-linecap="round" stroke-linejoin="round"/>
<path d="M214.151 204.015H219.956" stroke="#D9DDFF" stroke-width="4.54" stroke-linecap="round" stroke-linejoin="round"/>
<path d="M216.487 193.899V203.448" stroke="#D9DDFF" stroke-width="4.54" stroke-linecap="round" stroke-linejoin="round"/>
<path d="M261.572 127.953L246.054 136.933M246.054 136.933L217.978 153.191H258.091L246.054 136.933Z" stroke="#D9DDFF" stroke-width="4.54" stroke-linecap="round" stroke-linejoin="round"/>
<path d="M215.7 163.307H221.482" stroke="#D9DDFF" stroke-width="4.54" stroke-linecap="round" stroke-linejoin="round"/>
<path d="M218.036 153.191V162.74" stroke="#D9DDFF" stroke-width="4.54" stroke-linecap="round" stroke-linejoin="round"/>
<path d="M293.151 208.65L308.472 217.318M308.472 217.318L338.12 233.576H294.573L308.472 217.318Z" stroke="#D9DDFF" stroke-width="4.54" stroke-linecap="round" stroke-linejoin="round"/>
<path d="M340.965 243.692H334.848" stroke="#D9DDFF" stroke-width="4.54" stroke-linecap="round" stroke-linejoin="round"/>
<path d="M291.116 169.02L306.842 177.641M306.842 177.641L336.513 193.899H293.509L306.842 177.641Z" stroke="#D9DDFF" stroke-width="4.54" stroke-linecap="round" stroke-linejoin="round"/>
<path d="M338.964 204.015H332.847" stroke="#D9DDFF" stroke-width="4.54" stroke-linecap="round" stroke-linejoin="round"/>
<path d="M336.49 193.899V203.448" stroke="#D9DDFF" stroke-width="4.54" stroke-linecap="round" stroke-linejoin="round"/>
<path d="M289 128.034L305.223 136.933M305.223 136.933L334.871 153.191H292.133L305.223 136.933Z" stroke="#D9DDFF" stroke-width="4.54" stroke-linecap="round" stroke-linejoin="round"/>
<path d="M337.322 163.307H331.205" stroke="#D9DDFF" stroke-width="4.54" stroke-linecap="round" stroke-linejoin="round"/>
<path d="M334.859 153.191V162.74" stroke="#D9DDFF" stroke-width="4.54" stroke-linecap="round" stroke-linejoin="round"/>
<path d="M666.204 180.619C666.273 181.349 666.308 181.755 666.308 181.755L662.411 92.5403C662.411 92.5403 662.376 92.5867 662.353 92.6099V92.5403L658.491 92.4592L658.387 96.6077L656.791 141.823L654.814 185.428L649.749 296.081C649.749 296.081 659.37 306.753 671.268 296.544L666.204 180.619Z" fill="#FFA26B"/>
<path d="M705.206 27.5675C703.946 28.6915 702.709 29.8271 701.46 30.9743C698.384 33.8133 695.331 36.6987 692.337 39.6304C688.463 43.4081 684.659 47.2552 680.958 51.2067C677.304 55.1118 673.743 59.1212 670.482 63.3623C668.944 65.367 664.539 74.5909 664.007 77.2909C663.486 79.9677 662.954 82.6445 662.434 85.3212C662.226 86.3641 662.029 87.4071 661.81 88.4731C660.399 88.0791 658.399 89.5392 657.705 90.5242C654.768 90.7212 649.819 91.1036 643.702 91.7757C643.077 91.8452 642.511 91.9031 642.025 91.9611C625.825 93.8383 602.386 97.7666 585.55 105.623C587.238 105.681 588.915 105.716 590.603 105.751C594.789 105.832 598.987 105.843 603.173 105.809C608.573 105.762 613.984 105.612 619.373 105.31C624.703 105.009 630.046 104.58 635.33 103.769C637.816 103.387 647.367 99.7597 649.61 98.1721C651.831 96.5962 654.062 95.0319 656.282 93.4559C656.583 93.2357 656.895 93.0272 657.196 92.807C657.231 92.8881 657.254 92.9692 657.3 93.0503C657.971 94.2671 659.509 94.5104 659.89 94.5799C660.526 94.7074 661.208 94.7422 661.833 94.5799C661.891 94.8001 661.948 95.0087 662.006 95.2288C663.151 99.273 664.342 103.294 665.602 107.292C667.221 112.46 668.933 117.593 670.783 122.68C672.621 127.71 674.576 132.704 676.888 137.536C677.975 139.819 684.219 147.919 686.382 149.611C688.532 151.291 690.671 152.959 692.822 154.64C694.21 155.717 695.586 156.807 697.066 157.954C697.066 157.954 682.785 117.362 663.336 93.4675C663.648 92.8533 663.706 92.077 663.671 91.428C663.637 90.5589 663.336 89.7478 662.758 89.1221C669.06 82.3084 695.239 53.0723 705.195 27.5559L705.206 27.5675Z" fill="#FFA26B"/>
<path d="M484.118 353.058L502.492 310.855L511.28 308.63L511.222 306.266L398.573 309.059L395.89 309.117L397.567 377.45" fill="#F050F8"/>
<path d="M397.578 377.439L312.612 344.981L311.375 294.678L311.19 287.146L310.958 278.038L357.917 228.964L395.902 309.117L397.578 377.45" fill="#F484FA"/>
<path d="M310.958 278.038L307.05 281.978L304.599 280.113L357.812 224.711L357.917 228.964L310.958 278.038Z" fill="#F050F8"/>
<path d="M357.812 224.711L395.902 309.117L393.022 310.751L355.696 231.281L357.812 224.711Z" fill="#F050F8"/>
<path d="M355.696 231.27L356.494 230.412L386.281 296.393L355.696 231.258V231.27Z" fill="#BF40C6"/>
<path d="M357.812 224.7L395.902 309.105L515.049 306.162L490.512 221.42L357.812 224.7Z" fill="#60F0F8"/>
<path d="M490.512 221.42L527.931 305.849L515.061 306.162L490.524 221.42H490.512Z" fill="#60F0F8"/>
<path d="M337.091 358.968L337.01 298.607L346.446 298.375L346.989 358.724" fill="#F050F8"/>
<path d="M337.091 358.968L312.67 347.449L312.473 339.384L336.802 347.554L337.08 358.968" fill="#F484FA"/>
<path d="M351.973 298.236L334.582 298.676L316.52 264.77L333.738 264.342L351.985 298.248L351.973 298.236Z" fill="#60F0F8"/>
<path d="M316.509 264.77L297.568 284.562L311.109 284.226L310.958 278.027L307.05 281.967L304.599 280.101L317.515 266.659L316.509 264.77Z" fill="#00C8F8"/>
<path d="M316.509 264.77L317.515 266.659L312.323 272.059C312.323 272.059 317.7 265.581 316.509 264.77Z" fill="#57C1E6"/>
<path d="M351.973 298.236H351.765C345.486 287.401 330.477 264.411 330.477 264.411L333.726 264.33L351.961 298.236H351.973Z" fill="#00C8F8"/>
<path d="M323.828 264.585L356.494 230.424L357.003 231.548L325.204 264.562L323.828 264.597V264.585Z" fill="#BF40C6"/>
<path d="M319.076 269.568L310.97 278.038L311.005 279.197L319.561 270.46L319.087 269.579L319.076 269.568Z" fill="#BF40C6"/>
<path d="M316.613 329.303L331.575 334.564C331.575 334.564 331.575 314.783 331.529 306.938C331.518 304.192 330.396 301.631 328.303 299.835C327.54 299.186 326.696 298.642 325.782 298.213C324.857 297.773 323.84 297.355 322.776 297.436C321.735 297.506 320.718 297.935 319.827 298.445C317.827 299.58 316.624 301.539 316.231 303.74C316.081 304.586 316.035 305.444 316.046 306.301C316.277 315.166 316.613 329.303 316.613 329.303Z" fill="white"/>
<path d="M522.704 368.03C521.074 368.099 519.432 368.169 517.778 368.238H517.755C507.811 368.667 497.496 369.223 486.777 369.895L474.069 368.331L473.583 348.55L496.097 306.637L521.166 306.011L522.704 368.03Z" fill="#F050F8"/>
<path d="M522.704 368.029C521.074 368.099 519.432 368.168 517.778 368.238H517.755C499.901 369.014 480.834 370.162 460.401 371.761C460.17 371.784 459.95 371.795 459.719 371.819C458.956 371.877 458.181 371.935 457.418 372.004C460.933 361.587 474.613 354.379 481.643 350.439C489.529 346.024 498.248 346.001 499.82 329.824C501.405 313.659 484.002 312.164 484.002 312.164L396.029 314.343L395.902 309.105L521.178 306L522.704 368.029Z" fill="#BF40C6"/>
<path d="M560.805 365.816L560.655 345.862L542.974 308.526L535.019 306.788V304.656L636.116 303.926L638.521 303.902L638.961 365.248" fill="#F050F8"/>
<path d="M638.972 365.26L714.26 333.706L713.937 288.549L713.89 281.793L713.833 273.612L670.32 230.946L638.533 303.926L638.972 365.272" fill="#F484FA"/>
<path d="M713.833 273.612L717.452 277.03L719.603 275.292L670.285 227.122L670.32 230.946L713.833 273.624V273.612Z" fill="#F050F8"/>
<path d="M670.285 227.121L638.533 303.914L641.169 305.305L672.378 232.95L670.285 227.11V227.121Z" fill="#F050F8"/>
<path d="M672.378 232.962L671.638 232.208L646.801 292.257L672.378 232.962Z" fill="#BF40C6"/>
<path d="M670.285 227.122L638.533 303.914L531.585 304.691L551.173 227.979L670.285 227.122Z" fill="#60F0F8"/>
<path d="M551.173 227.979L520.021 304.772L531.573 304.69L551.161 227.979H551.173Z" fill="#60F0F8"/>
<path d="M682.577 292.882L683.814 347.032L692.707 346.963L691.041 292.824L682.577 292.882Z" fill="#F050F8"/>
<path d="M483.713 237.991L506.319 290.704H482.036H402.562L381.448 237.991H483.713Z" fill="#6072D8"/>
<path d="M506.816 287.83V290.704H505.371L505.082 287.83L381.448 237.991V235.117H382.916L506.816 287.83Z" fill="#6072D8"/>
<path d="M381.956 235.117L382.176 235.673L386.119 245.511L386.697 246.96L389.183 253.171L391.265 258.362L391.843 259.811L396.966 272.592L397.544 274.029L403.071 287.83H506.828L500.503 273.079L500.017 271.931L494.467 259.011L493.993 257.899L488.951 246.16L488.477 245.036L484.222 235.117H381.956Z" fill="#6675F6"/>
<g opacity="0.2">
<mask id="mask0_6_2242" style="mask-type:luminance" maskUnits="userSpaceOnUse" x="396" y="266" width="111" height="22">
<path d="M506.886 266.242H396.191V287.865H506.886V266.242Z" fill="white"/>
</mask>
<g mask="url(#mask0_6_2242)">
<path d="M497.658 266.242L506.886 287.865H402.782L396.191 270.228L497.658 266.242Z" fill="#D8AACB"/>
</g>
</g>
<path d="M468.322 235.071L468.334 235.117L487.367 287.83H488.685L470.045 235.117L469.987 234.943L468.322 235.071Z" fill="#BDF2FF"/>
<path d="M456.377 235.175L475.387 287.83H476.706L458.077 235.117L458.054 235.047L457.175 235.117L456.377 235.175Z" fill="#BDF2FF"/>
<path d="M446.502 235.175L465.501 287.83H466.819L448.191 235.117L448.167 235.047L447.3 235.117L446.502 235.175Z" fill="#BDF2FF"/>
<path d="M434.916 234.885L454.03 287.807L455.325 287.76L436.581 234.746L434.916 234.885Z" fill="#BDF2FF"/>
<path d="M422.613 235.314L441.565 287.83H442.883L424.278 235.187L422.613 235.314Z" fill="#BDF2FF"/>
<path d="M410.599 234.839L429.794 288.433H431.112L412.264 234.711L410.599 234.839Z" fill="#BDF2FF"/>
<path d="M396.075 235.047L415.178 287.969L416.484 287.934L397.74 234.908L396.075 235.047Z" fill="#BDF2FF"/>
<path d="M386.119 245.5L386.697 246.96L472.369 246.288L474 246.276L488.951 246.16L488.477 245.036L473.572 245.106H471.942L386.119 245.5Z" fill="#BDF2FF"/>
<path d="M391.265 258.362L391.843 259.811L477.006 259.15L478.544 259.139L494.467 259.011L493.993 257.899L478.128 257.968L476.59 257.98L391.265 258.362Z" fill="#BDF2FF"/>
<path d="M396.954 272.592L397.532 274.029L500.503 273.079L500.017 271.932L396.954 272.592Z" fill="#BDF2FF"/>
<g opacity="0.2">
<mask id="mask1_6_2242" style="mask-type:luminance" maskUnits="userSpaceOnUse" x="382" y="234" width="103" height="20">
<path d="M484.476 234.943H382.176V253.159H484.476V234.943Z" fill="white"/>
</mask>
<g mask="url(#mask1_6_2242)">
<path d="M382.176 235.673L389.183 253.159L483.586 235.117L484.488 234.943L460.424 235.117L382.176 235.673Z" fill="#D8AACB"/>
</g>
</g>
<path d="M692.707 346.963L714.284 335.931L714.226 328.7L692.626 336.719L692.695 346.963H692.707Z" fill="#F484FA"/>
<path d="M677.628 292.905L693.238 292.801L708.467 261.873L693.019 261.978L677.628 292.905Z" fill="#60F0F8"/>
<path d="M708.467 261.873L726.02 279.093L713.867 279.174L713.833 273.612L717.452 277.03L719.603 275.292L707.623 263.6L708.467 261.873Z" fill="#00C8F8"/>
<path d="M708.467 261.873L707.623 263.588L712.433 268.281C712.433 268.281 707.427 262.627 708.467 261.862V261.873Z" fill="#57C1E6"/>
<path d="M677.628 292.906H677.813C683.132 283.01 695.933 261.955 695.933 261.955L693.007 261.978L677.617 292.906H677.628Z" fill="#00C8F8"/>
<path d="M701.911 261.92L671.638 232.208L671.211 233.228L700.674 261.931H701.911V261.92Z" fill="#BF40C6"/>
<path d="M706.317 266.242L713.821 273.612V274.643L705.912 267.053L706.317 266.23V266.242Z" fill="#BF40C6"/>
<path d="M654.71 358.655L653.183 309.951L671.719 305.629L672.043 351.378L654.698 358.643" fill="#5840FF"/>
<path d="M710.225 319.755L696.95 324.9C696.95 324.9 696.395 307.159 696.199 300.125C696.141 297.668 697.054 295.339 698.893 293.659C699.552 293.056 700.304 292.546 701.101 292.129C701.922 291.7 702.824 291.306 703.773 291.341C704.721 291.376 705.634 291.735 706.444 292.164C708.271 293.114 709.404 294.841 709.832 296.811C709.994 297.564 710.063 298.329 710.063 299.105C710.109 307.054 710.213 319.755 710.213 319.755H710.225Z" fill="white"/>
<path d="M526.52 366.06L526.081 304.725L548.594 304.563L569.975 341.517L570.102 359.269" fill="#F050F8"/>
<path d="M526.52 366.06L526.081 304.725L638.533 303.914L638.568 308.607L559.614 309.175C559.614 309.175 544.05 311.006 545.923 325.467C547.796 339.929 555.613 339.697 562.817 343.44C570.021 347.183 584.868 354.379 585.99 365.619" fill="#BF40C6"/>
<path d="M535.851 226.901H670.077L638.059 304.053L511.28 308.63L535.851 226.901Z" fill="#60F0F8"/>
<path d="M548.606 237.052L526 289.765H550.271H629.756L650.859 237.052H548.606Z" fill="#6072D8"/>
<path d="M525.491 286.892V289.765H526.948L527.225 286.892L650.859 237.052V234.178H649.402L525.491 286.892Z" fill="#6072D8"/>
<path d="M650.351 234.178L650.131 234.735L646.188 244.573L645.61 246.021L643.135 252.232L641.042 257.424L640.464 258.872L635.353 271.654L634.775 273.09L629.248 286.892H525.491L531.816 272.14L532.302 270.993L537.841 258.084L538.326 256.96L543.356 245.222L543.842 244.098L548.097 234.178H650.351Z" fill="#6675F6"/>
<g opacity="0.2">
<mask id="mask2_6_2242" style="mask-type:luminance" maskUnits="userSpaceOnUse" x="525" y="265" width="112" height="22">
<path d="M636.116 265.303H525.421V286.926H636.116V265.303Z" fill="white"/>
</mask>
<g mask="url(#mask2_6_2242)">
<path d="M534.649 265.303L525.421 286.926H629.525L636.116 269.29L534.649 265.303Z" fill="#D8AACB"/>
</g>
</g>
<path d="M563.996 234.132L563.985 234.178L544.94 286.891H543.633L562.262 234.178L562.32 234.005L563.996 234.132Z" fill="#BDF2FF"/>
<path d="M575.93 234.236L556.92 286.891H555.613L574.241 234.178L574.264 234.109L575.132 234.178L575.93 234.236Z" fill="#BDF2FF"/>
<path d="M585.816 234.236L566.806 286.891H565.5L584.116 234.178L584.151 234.109L585.018 234.178L585.816 234.236Z" fill="#BDF2FF"/>
<path d="M597.402 233.947L578.288 286.868L576.993 286.834L595.726 233.808L597.402 233.947Z" fill="#BDF2FF"/>
<path d="M609.706 234.376L590.754 286.892H589.435L608.041 234.248L609.706 234.376Z" fill="#BDF2FF"/>
<path d="M621.72 233.9L602.513 287.494H601.195L620.043 233.773L621.72 233.9Z" fill="#BDF2FF"/>
<path d="M636.232 234.109L617.129 287.031L615.834 286.996L634.567 233.97L636.232 234.109Z" fill="#BDF2FF"/>
<path d="M646.188 244.573L645.61 246.021L559.949 245.349L558.319 245.338L543.356 245.222L543.842 244.098L558.735 244.167L560.365 244.179L646.188 244.573Z" fill="#BDF2FF"/>
<path d="M641.042 257.424L640.464 258.872L555.301 258.212L553.774 258.2L537.84 258.084L538.326 256.96L554.191 257.03L555.717 257.041L641.042 257.424Z" fill="#BDF2FF"/>
<path d="M635.353 271.654L634.775 273.091L531.816 272.14L532.302 270.993L635.353 271.654Z" fill="#BDF2FF"/>
<g opacity="0.2">
<mask id="mask3_6_2242" style="mask-type:luminance" maskUnits="userSpaceOnUse" x="547" y="234" width="104" height="19">
<path d="M650.131 234.005H547.831V252.221H650.131V234.005Z" fill="white"/>
</mask>
<g mask="url(#mask3_6_2242)">
<path d="M650.131 234.735L643.135 252.232L548.721 234.178L547.831 234.005L571.894 234.178L650.131 234.735Z" fill="#D8AACB"/>
</g>
</g>
<path d="M525.815 208.407C522.716 205.788 520.091 206.53 516.818 208.592C497.346 220.864 437.24 258.072 426.787 264.608C425.076 265.605 423.307 266.52 421.653 267.598C419.872 268.733 419.398 268.142 419.375 266.253C419.306 260.494 419.19 254.747 419.005 248.976C418.959 247.574 419.468 246.774 420.647 246.056C440.744 233.622 460.818 221.177 480.891 208.708C493.276 201.014 505.671 193.354 517.975 185.544C520.021 184.235 521.525 184.27 523.606 185.452C537.806 193.54 614.713 236.762 622.263 240.876C624.137 241.896 624.981 243.066 624.969 245.256C624.946 250.668 625.085 256.091 625.351 261.502C625.478 263.936 624.669 263.936 622.934 262.928C620.46 261.479 526.809 209.218 525.826 208.384L525.815 208.407Z" fill="#5840FF"/>
<path d="M617.893 367.728C588.649 366.627 555.925 366.569 517.778 368.238C499.913 369.014 480.845 370.162 460.401 371.761C450.376 372.549 440.015 373.441 429.296 374.449C428.579 341.632 427.839 308.804 427.134 275.987C427.111 274.666 427.134 273.345 427.134 272.024C427.018 269.556 426.903 267.076 426.787 264.608C437.24 258.084 497.346 220.876 516.818 208.593C520.079 206.53 522.704 205.788 525.803 208.407C526.797 209.241 606.526 252.858 615.453 258.721C616.239 295.061 617.002 331.4 617.893 367.728Z" fill="#F484FA"/>
<path d="M517.755 368.238C499.901 369.014 480.834 370.162 460.401 371.761C460.17 371.784 459.95 371.796 459.719 371.819C459.43 358.84 459.141 345.874 458.863 332.884C458.84 331.794 458.667 330.659 459.476 329.732V328.469C458.586 327.588 458.713 326.452 458.702 325.352C458.366 310.6 458.031 295.837 457.707 281.074C457.696 279.997 457.487 278.861 458.297 277.923C458.424 277.737 458.47 277.54 458.413 277.32C459.453 276.891 460.529 276.984 461.604 277.077C461.812 276.926 462.02 276.926 462.217 277.077C479.469 276.683 496.721 276.3 513.974 275.918C514.182 275.918 514.402 275.906 514.598 275.906L515.292 275.976C515.789 275.953 515.963 276.173 515.812 276.636C515.87 276.868 515.94 277.077 516.009 277.297C515.986 278.502 515.905 279.707 515.928 280.924C516.252 297.552 516.587 314.181 516.922 330.809V330.89C517.188 343.336 517.477 355.781 517.755 368.238Z" fill="#FFB5FF"/>
<path d="M453.857 377.578C453.302 351.227 452.712 324.865 452.122 298.502C452.712 324.853 453.29 351.227 453.857 377.578Z" fill="#FFB5FF"/>
<path d="M451.995 278.548C452.087 278.293 452.215 278.085 452.388 277.934C452.215 278.096 452.099 278.305 451.995 278.548Z" fill="#FFB5FF"/>
<path d="M452.562 277.772C452.689 277.679 452.839 277.598 453.024 277.54C452.851 277.598 452.7 277.679 452.562 277.772Z" fill="#FFB5FF"/>
<path d="M483.435 238.953C486.199 237.307 488.974 235.65 491.749 234.005C488.986 235.65 486.211 237.307 483.435 238.953Z" fill="#FFB5FF"/>
<path d="M597.553 334.691C596.917 334.842 596.235 334.784 595.575 334.796C577.502 335.201 559.429 335.618 541.356 335.978C540.13 336.001 538.638 336.615 537.806 335.027V334.726C535.875 333.961 536.499 331.667 537.17 331.574C540.06 331.227 538.973 329.222 538.95 327.901C538.65 311.377 538.233 294.852 537.967 278.328C537.956 277.436 536.626 275.466 539.17 275.466C539.401 275.466 539.633 275.466 539.852 275.454C548.687 275.269 557.509 275.06 566.344 274.875L569.697 274.805C576.866 274.608 584.035 274.539 591.193 274.145C593.61 274.017 593.841 274.944 593.864 276.938C594.084 289.974 594.384 303.022 594.697 316.07C594.801 320.705 594.974 325.351 595.101 329.987L595.321 329.917L595.471 330.091C598.073 329.268 597.31 331.539 597.807 332.652C598.605 333.451 599.299 334.274 597.553 334.703H597.541L597.553 334.691Z" fill="#FFB5FF"/>
<path d="M537.794 335.027C538.245 334.888 538.696 334.761 539.159 334.622C540.049 334.61 540.928 334.587 541.807 334.564L543.136 334.529H543.795C560.389 334.402 576.959 334.054 593.54 333.393C594.986 333.266 596.616 334.135 597.807 332.629C598.594 333.428 599.299 334.251 597.541 334.68C596.905 334.83 596.223 334.772 595.564 334.784C577.491 335.19 559.417 335.607 541.344 335.966C540.118 335.989 538.627 336.603 537.794 335.016V335.027Z" fill="#FFB5FF"/>
<path d="M515.824 276.659C515.662 276.439 515.477 276.219 515.315 275.999C515.801 275.976 515.974 276.184 515.824 276.659Z" fill="#38516B"/>
<path d="M514.621 275.918H513.997C514.205 275.929 514.413 275.918 514.621 275.918Z" fill="#38516B"/>
<path d="M462.24 277.088H461.627C461.835 276.937 462.043 276.937 462.24 277.088Z" fill="#38516B"/>
<path d="M516.934 330.902C516.576 330.775 516.205 330.636 515.847 330.508H515.859V330.485C516.217 330.601 516.576 330.717 516.922 330.821C516.587 314.192 516.252 297.564 515.94 280.924C515.916 279.719 515.986 278.514 516.009 277.308C515.94 277.088 515.882 276.868 515.812 276.648C515.65 276.428 515.477 276.208 515.304 275.987L514.61 275.906C514.402 275.906 514.194 275.918 513.985 275.929C496.733 276.312 479.481 276.694 462.228 277.088H461.616C460.529 276.995 459.453 276.891 458.424 277.332C458.47 277.54 458.436 277.737 458.308 277.923C458.702 294.783 459.095 311.62 459.476 328.469V329.732C459.777 343.741 460.101 357.751 460.401 371.761C480.845 370.162 499.913 369.014 517.778 368.238C517.501 355.793 517.211 343.347 516.934 330.902ZM514.529 332.536C513.569 334.726 511.869 335.051 510.123 333.811C508.632 332.768 508.585 330.948 509.973 329.848C511.846 328.353 513.43 329.338 514.552 331.192L514.529 332.536Z" fill="#5840FF"/>
<path d="M515.246 325.282C515.664 325.595 515.188 325.664 515.095 325.85C515.142 325.664 515.2 325.479 515.246 325.282Z" fill="#BFA3E9"/>
<path d="M464.934 283.195C471.005 283.23 477.076 283.091 483.135 282.79C485.32 282.674 485.632 283.45 485.667 285.374C485.921 299.082 486.291 312.79 486.627 326.499C486.396 326.765 486.164 327.02 485.921 327.275C479.307 327.391 472.682 327.403 466.067 327.681C463.859 327.773 463.338 327.113 463.304 324.981C463.119 311.933 462.807 298.885 462.437 285.849C462.379 283.867 462.818 283.195 464.923 283.207L464.934 283.195Z" fill="#BFA3E9"/>
<path d="M515.465 335.097C515.408 335.537 515.361 335.966 515.35 336.406C515.373 335.966 515.408 335.526 515.465 335.097Z" fill="#BFA3E9"/>
<path d="M507.14 326.777C507.036 327.02 506.92 327.264 506.816 327.507C506.701 327.275 506.585 327.032 506.469 326.788C501.751 326.858 497.045 326.951 492.316 326.985C491.356 326.985 489.992 327.588 489.888 325.78C489.61 312.512 489.402 299.244 489.009 285.976C488.928 283.473 489.402 282.523 492.131 282.581C497.751 282.708 503.393 282.581 509.013 282.199C511.777 282.013 512.193 283.021 512.228 285.443C512.447 298.931 512.829 312.42 513.153 325.896C511.314 327.368 509.094 326.151 507.128 326.777H507.14Z" fill="#BFA3E9"/>
<path d="M513.176 325.908C512.158 326.719 511.037 326.707 509.904 326.649C508.967 326.591 508.03 326.499 507.14 326.788H506.481C503.648 326.835 500.815 326.881 497.993 326.927C496.109 326.962 494.224 326.974 492.339 326.985C491.379 326.985 490.015 327.588 489.911 325.78C489.633 312.524 489.425 299.244 489.032 285.976C488.963 283.473 489.425 282.534 492.154 282.581C493.773 282.616 495.392 282.639 497.011 282.616C500.977 282.616 504.966 282.465 508.921 282.21H509.025C511.8 282.025 512.205 283.033 512.239 285.455C512.459 298.943 512.852 312.431 513.176 325.908Z" fill="#75FFFF"/>
<path d="M486.627 326.499C486.396 326.754 486.164 327.02 485.921 327.275L483.088 327.321C479.122 327.379 475.145 327.426 471.178 327.518C469.479 327.553 467.767 327.611 466.067 327.681C463.859 327.773 463.35 327.113 463.304 324.981C463.107 311.933 462.807 298.885 462.437 285.848C462.379 283.867 462.818 283.195 464.923 283.218C466.68 283.218 468.438 283.218 470.195 283.195C474.162 283.16 478.151 283.044 482.106 282.859C482.452 282.847 482.788 282.824 483.123 282.812C485.309 282.697 485.621 283.473 485.655 285.385C485.91 299.093 486.28 312.802 486.615 326.51L486.627 326.499Z" fill="#75FFFF"/>
<path d="M459.488 328.469C458.609 327.588 458.736 326.452 458.713 325.363C458.378 310.6 458.054 295.849 457.73 281.086C457.707 279.997 457.511 278.861 458.32 277.923C458.713 294.771 459.106 311.62 459.499 328.469H459.488Z" fill="#FFB5FF"/>
<path d="M514.54 332.536C513.581 334.726 511.869 335.062 510.123 333.822C508.632 332.779 508.585 330.96 509.973 329.847C511.846 328.353 513.43 329.338 514.552 331.203C514.552 331.644 514.54 332.096 514.529 332.536H514.54Z" fill="#FFBC2F"/>
<path d="M515.084 325.861L515.235 325.271C515.664 325.595 515.13 325.664 515.072 325.861H515.084Z" fill="#38516B"/>
<path d="M516.934 330.833V330.914C516.576 330.786 516.206 330.647 515.847 330.52V330.497C516.217 330.612 516.576 330.728 516.934 330.833Z" fill="#38516B"/>
<path d="M590.187 301.029C589.574 301.029 588.95 301.04 588.325 301.052C586.163 301.087 584.024 301.121 581.873 301.145C577.352 301.214 572.819 301.272 568.309 301.342C568.159 294.412 568.009 287.483 567.87 280.553C567.847 279.371 567.488 278.05 569.107 277.575C573.189 277.482 577.259 277.39 581.341 277.308C583.492 277.262 585.654 277.216 587.793 277.169L588.799 277.146C589.331 277.517 590.441 277.135 590.361 278.328C590.175 278.409 589.979 278.49 589.782 278.56C589.99 278.687 590.21 278.815 590.418 278.954C590.58 278.989 590.742 278.989 590.904 278.966C590.696 284.713 590.869 290.461 591.262 296.208C591.806 301.133 590.199 301.029 590.199 301.029H590.187Z" fill="#75FFFF"/>
<path d="M563.661 301.608L561.51 301.654C559.359 301.701 557.209 301.747 555.058 301.794C550.849 301.875 546.651 301.956 542.442 302.048C541.494 301.631 541.737 300.774 541.726 300.044C541.564 293.624 541.425 287.204 541.263 280.796C541.228 279.638 541.205 278.56 542.581 278.143C546.559 278.062 550.548 277.981 554.526 277.888C556.677 277.841 558.828 277.795 560.978 277.76L562.262 277.726C562.99 277.957 563.846 278.027 564.089 278.977C564.089 278.977 564.297 291.944 564.54 298.132C564.979 301.712 563.649 301.608 563.649 301.608H563.661Z" fill="#75FFFF"/>
<path d="M588.88 326.962H589.401C590.545 326.927 591.632 326.962 591.933 325.525C591.413 319.117 591.343 312.698 591.471 306.278C591.112 305.594 591.089 304.702 590.256 304.32C589.632 304.354 589.008 304.401 588.383 304.424C586.232 304.54 584.082 304.632 581.931 304.702C577.629 304.841 573.328 304.864 569.026 304.783C568.83 305.165 568.46 305.548 568.46 305.919C568.564 312.524 568.772 319.117 568.841 325.722C568.864 327.715 570.136 327.368 571.293 327.345C575.004 327.275 578.716 327.182 582.428 327.101L588.88 326.974V326.962Z" fill="#75FFFF"/>
<path d="M564.574 306.915C564.679 313.532 564.76 320.149 564.864 326.765C564.655 326.974 564.436 327.171 564.228 327.368L543.634 327.831H543.021C541.76 327.426 542.338 326.348 542.315 325.595C542.119 319.731 542.038 313.856 541.853 307.993C541.818 306.811 541.772 305.757 543.171 305.374C547.16 305.432 551.15 305.421 555.127 305.305C557.29 305.247 559.429 305.154 561.58 305.038C562.285 305.003 562.99 304.957 563.707 304.911C564.505 305.363 564.563 306.139 564.574 306.915Z" fill="#75FFFF"/>
<path d="M506.481 326.788H507.14C507.036 327.02 506.932 327.263 506.816 327.507C506.701 327.275 506.585 327.032 506.469 326.788H506.481Z" fill="#263A4F"/>
<path d="M595.471 330.079L595.321 329.917L595.113 329.986C594.974 325.351 594.812 320.716 594.697 316.07C594.396 303.033 594.084 289.985 593.864 276.937C593.829 274.956 593.61 274.017 591.193 274.145C584.035 274.539 576.866 274.608 569.697 274.805L566.355 274.886C557.521 275.072 548.698 275.28 539.852 275.466H539.17C536.626 275.477 537.956 277.447 537.967 278.34C538.233 294.864 538.65 311.388 538.95 327.912C538.974 329.233 540.06 331.238 537.17 331.586C536.487 331.667 535.875 333.973 537.806 334.737V335.039C538.257 334.9 538.708 334.772 539.159 334.633C540.037 334.622 540.928 334.598 541.806 334.575C542.246 334.575 542.685 334.552 543.136 334.541H543.795C560.377 334.413 576.959 334.065 593.54 333.405C594.986 333.277 596.616 334.147 597.807 332.64C597.298 331.528 598.062 329.268 595.471 330.079ZM591.864 286.891C591.91 285.918 591.956 284.933 591.933 283.971C591.945 284.945 591.898 285.918 591.864 286.891ZM590.488 278.78C590.488 278.78 590.499 278.676 590.488 278.618C590.488 278.676 590.488 278.722 590.488 278.78ZM569.107 277.563L588.811 277.146C589.343 277.517 590.453 277.134 590.372 278.328C590.187 278.409 590.881 290.46 591.274 296.196C591.817 301.121 590.199 301.028 590.199 301.028C582.902 301.133 575.606 301.249 568.309 301.353C568.159 294.423 568.009 287.482 567.87 280.564C567.847 279.382 567.488 278.073 569.107 277.586V277.563ZM541.864 307.97C541.83 306.799 541.783 305.745 543.183 305.339C550.04 305.443 556.885 305.316 563.719 304.876C564.517 305.328 564.575 306.104 564.586 306.88C564.69 313.497 564.771 320.114 564.875 326.73C564.887 326.846 564.875 326.95 564.864 327.032C564.829 327.147 564.76 327.24 564.644 327.287C564.748 327.24 564.829 327.159 564.864 327.032C564.887 326.95 564.898 326.846 564.875 326.73C564.655 326.927 564.447 327.124 564.239 327.321C557.382 327.472 550.514 327.623 543.645 327.785H543.021C541.76 327.379 542.338 326.302 542.315 325.548C542.13 319.685 542.038 313.81 541.864 307.946V307.97ZM562.273 277.725C563.002 277.957 563.858 278.027 564.1 278.977C564.1 278.977 564.32 291.944 564.551 298.132C564.991 301.712 563.661 301.608 563.661 301.608C556.584 301.759 549.508 301.909 542.442 302.048C541.506 301.631 541.737 300.762 541.726 300.032C541.564 293.612 541.436 287.204 541.263 280.785C541.228 279.626 541.194 278.548 542.593 278.131L562.285 277.714L562.273 277.725ZM565.546 288.537C565.557 289.336 565.546 290.136 565.523 290.936C565.557 290.136 565.569 289.336 565.546 288.537ZM589.412 326.95C583.376 327.055 577.34 327.217 571.304 327.344C570.148 327.368 568.876 327.715 568.853 325.722C568.784 319.117 568.575 312.524 568.471 305.93C568.471 305.559 568.841 305.177 569.038 304.795C576.115 304.945 583.203 304.771 590.28 304.343C591.112 304.737 591.135 305.629 591.494 306.301C591.378 312.721 591.424 319.14 591.956 325.548C591.644 326.974 590.557 326.95 589.424 326.974L589.412 326.95Z" fill="#5840FF"/>
<path d="M561.51 301.654L560.99 277.772C558.839 277.818 556.688 277.865 554.538 277.899L555.058 301.794L561.51 301.654Z" fill="white"/>
<path d="M561.58 305.026L562.077 327.402L555.625 327.553L555.127 305.304C557.29 305.247 559.429 305.154 561.58 305.038V305.026Z" fill="white"/>
<path d="M587.782 277.169L588.302 301.052C586.14 301.087 583.989 301.121 581.85 301.145L581.33 277.297C583.48 277.25 585.643 277.204 587.782 277.158V277.169Z" fill="white"/>
<path d="M581.931 304.69L582.428 327.078L588.88 326.962L588.383 304.424L581.931 304.702V304.69Z" fill="white"/>
<path d="M508.921 282.21L509.904 326.649C508.967 326.591 508.03 326.499 507.14 326.788H506.481C503.648 326.835 500.815 326.881 497.993 326.927L497.011 282.627C500.988 282.627 504.966 282.476 508.921 282.21Z" fill="white"/>
<path d="M482.117 282.847L483.1 327.322C479.122 327.379 475.156 327.426 471.19 327.519L470.207 283.183C474.173 283.149 478.163 283.033 482.117 282.847Z" fill="white"/>
<path d="M813.126 385.747C812.987 385.736 812.848 385.724 812.71 385.712C809.692 385.492 806.697 385.249 803.725 384.994C802.233 384.878 800.753 384.751 799.273 384.612C797.793 384.484 796.325 384.357 794.856 384.218C792.139 383.963 789.433 383.708 786.75 383.441C785.721 383.337 784.692 383.233 783.663 383.128L786.958 311.18L787.352 302.57L790.474 234.213L793.203 173.91L795.411 111.382L795.434 110.733L795.55 105.646L800.881 105.762V105.866C800.881 105.866 800.95 105.797 800.973 105.762L801.17 110.177L806.361 229.126C806.361 229.126 806.304 228.558 806.223 227.55L809.773 308.827L810.247 319.789L813.126 385.747Z" fill="#FFA26B"/>
<path d="M803.02 107.465C803.02 106.515 802.627 105.519 802.187 104.719C801.609 103.665 800.73 102.842 799.632 102.425C803.239 90.0953 817.647 37.7299 814.259 0.0114746C813.392 2.1784 812.548 4.35691 811.727 6.53542C809.669 11.9585 807.668 17.4048 805.76 22.8859C803.286 29.9544 800.938 37.0694 798.799 44.2422C796.683 51.334 794.74 58.4953 793.307 65.7608C792.636 69.1908 792.867 83.3396 793.873 87.0013C794.868 90.6399 795.862 94.2785 796.857 97.917C797.238 99.3308 797.631 100.756 798.024 102.193C796.036 102.587 794.451 105.623 794.209 107.257C790.693 109.319 784.808 112.842 777.65 117.466C776.922 117.929 776.251 118.37 775.684 118.74C756.79 131.081 730.195 150.421 714.203 170.55C716.319 169.588 718.435 168.591 720.528 167.583C725.754 165.092 730.958 162.519 736.115 159.889C742.775 156.482 749.366 152.971 755.853 149.251C762.271 145.578 768.608 141.742 774.655 137.478C777.5 135.462 787.086 125.067 788.878 121.73C790.659 118.404 792.451 115.09 794.232 111.764C794.475 111.313 794.717 110.849 794.972 110.397C795.064 110.478 795.145 110.559 795.261 110.64C796.833 111.73 798.892 111.081 799.412 110.93C800.268 110.687 801.123 110.304 801.806 109.725C802.014 109.957 802.222 110.2 802.442 110.432C806.338 114.719 810.293 118.961 814.317 123.144C819.497 128.544 824.77 133.839 830.205 138.996C835.57 144.083 841.074 149.054 846.902 153.608C849.654 155.752 862.351 161.928 866.074 162.681L877.14 164.929C879.522 165.416 881.893 165.891 884.436 166.413C884.436 166.413 841.791 125.009 803.008 107.477L803.02 107.465Z" fill="#FFA26B"/>
<path d="M377.967 370.579L360.622 363.313L360.946 317.564L379.482 321.887L377.956 370.59" fill="#5840FF"/>
<path d="M828.69 235.442C828.69 235.442 844.555 230.621 852.742 243.113L860.928 255.604C860.928 255.604 838.773 268.467 828.69 235.43V235.442Z" fill="#18F0B8"/>
<path d="M397.798 132.333C397.798 132.333 395.324 150.086 379.413 152.461L363.49 154.837C363.49 154.837 360.958 127.269 397.798 132.345V132.333Z" fill="#10C395"/>
<path d="M855.309 200.272C855.309 200.272 839.455 196.182 831.812 208.314L824.169 220.435C824.169 220.435 846.532 231.965 855.297 200.272H855.309Z" fill="#18F0B8"/>
<path d="M79.1503 211.177C79.1503 211.177 84.4925 231.386 103.26 231.896L122.027 232.406C122.027 232.406 121.113 200.134 79.1503 211.177Z" fill="#10C395"/>
<path d="M567.442 153.62C567.442 153.62 571.327 166.656 583.538 166.61L595.76 166.564C595.76 166.564 594.512 145.578 567.442 153.62Z" fill="#18F0B8"/>
<path d="M189.66 72.3544C189.66 72.3544 187.983 58.3911 175.53 56.2937L163.076 54.1963C163.076 54.1963 160.683 75.7844 189.672 72.3544H189.66Z" fill="#18F0B8"/>
<path d="M486.28 55.7839C486.28 55.7839 488.558 72.1691 503.255 74.3592L517.952 76.5493C517.952 76.5493 520.287 51.1024 486.291 55.7839H486.28Z" fill="#10C395"/>
<path d="M880.563 33.0369C880.563 33.0369 876.492 48.4139 862.223 48.7963L847.943 49.1903C847.943 49.1903 848.637 24.6357 880.563 33.0369Z" fill="#10C395"/>
<path d="M484.684 120.803C485.424 120.803 485.424 119.644 484.684 119.644C483.944 119.644 483.944 120.803 484.684 120.803Z" fill="#F0FFFF"/>
<path d="M628.854 36.8145C629.595 36.8145 629.595 35.6558 628.854 35.6558C628.114 35.6558 628.114 36.8145 628.854 36.8145Z" fill="#F0FFFF"/>
<path d="M630.277 167.062C631.017 167.062 631.017 165.903 630.277 165.903C629.537 165.903 629.537 167.062 630.277 167.062Z" fill="#F0FFFF"/>
<path d="M718.342 229.694C719.082 229.694 719.082 228.535 718.342 228.535C717.602 228.535 717.602 229.694 718.342 229.694Z" fill="#F0FFFF"/>
<path d="M379.563 69.5619C380.303 69.5619 380.303 68.4031 379.563 68.4031C378.823 68.4031 378.823 69.5619 379.563 69.5619Z" fill="#F0FFFF"/>
<path d="M358.263 202.648C359.003 202.648 359.003 201.489 358.263 201.489C357.523 201.489 357.523 202.648 358.263 202.648Z" fill="#F0FFFF"/>
<path d="M193.487 220.447C194.228 220.447 194.228 219.288 193.487 219.288C192.747 219.288 192.747 220.447 193.487 220.447Z" fill="#F0FFFF"/>
<path d="M214.082 116.527C214.822 116.527 214.822 115.368 214.082 115.368C213.342 115.368 213.342 116.527 214.082 116.527Z" fill="#F0FFFF"/>
<path d="M77.7164 252.476C78.4565 252.476 78.4565 251.317 77.7164 251.317C76.9764 251.317 76.9764 252.476 77.7164 252.476Z" fill="#F0FFFF"/>
<path d="M33.6837 280.947C34.4237 280.947 34.4237 279.788 33.6837 279.788C32.9436 279.788 32.9436 280.947 33.6837 280.947Z" fill="#F0FFFF"/>
<path d="M163.654 275.964C164.394 275.964 164.394 274.805 163.654 274.805C162.914 274.805 162.914 275.964 163.654 275.964Z" fill="#F0FFFF"/>
<path d="M999.641 279.846C1000.38 279.846 1000.38 278.687 999.641 278.687C998.901 278.687 998.901 279.846 999.641 279.846Z" fill="#F0FFFF"/>
<path d="M958.256 308.874C958.996 308.874 958.996 307.715 958.256 307.715C957.516 307.715 957.516 308.874 958.256 308.874Z" fill="#F0FFFF"/>
<path d="M912.732 220.748C913.472 220.748 913.472 219.589 912.732 219.589C911.992 219.589 911.992 220.748 912.732 220.748Z" fill="#F0FFFF"/>
<path d="M836.172 103.584C836.912 103.584 836.912 102.425 836.172 102.425C835.432 102.425 835.432 103.584 836.172 103.584Z" fill="#F0FFFF"/>
<path d="M755.472 77.6617C756.212 77.6617 756.212 76.5029 755.472 76.5029C754.732 76.5029 754.732 77.6617 755.472 77.6617Z" fill="#F0FFFF"/>
<path d="M262.74 65.4596C263.48 65.4596 263.48 64.3008 262.74 64.3008C262 64.3008 262 65.4596 262.74 65.4596Z" fill="#F0FFFF"/>
<path d="M456.458 149.784C457.95 149.784 457.95 147.467 456.458 147.467C454.967 147.467 454.967 149.784 456.458 149.784Z" fill="#F0FFFF"/>
<path d="M896.809 232.614C898.301 232.614 898.301 230.297 896.809 230.297C895.317 230.297 895.317 232.614 896.809 232.614Z" fill="#F0FFFF"/>
<path d="M746.233 211.061C747.724 211.061 747.724 208.743 746.233 208.743C744.741 208.743 744.741 211.061 746.233 211.061Z" fill="#F0FFFF"/>
<path d="M905.933 100.003C907.424 100.003 907.424 97.6853 905.933 97.6853C904.441 97.6853 904.441 100.003 905.933 100.003Z" fill="#F0FFFF"/>
<path d="M928.099 299.905C929.591 299.905 929.591 297.587 928.099 297.587C926.607 297.587 926.607 299.905 928.099 299.905Z" fill="#F0FFFF"/>
<path d="M1009.59 327.333C1011.08 327.333 1011.08 325.015 1009.59 325.015C1008.09 325.015 1008.09 327.333 1009.59 327.333Z" fill="#F0FFFF"/>
<path d="M562.204 31.1945C563.696 31.1945 563.696 28.877 562.204 28.877C560.712 28.877 560.712 31.1945 562.204 31.1945Z" fill="#F0FFFF"/>
<path d="M425.168 28.4365C426.66 28.4365 426.66 26.1189 425.168 26.1189C423.677 26.1189 423.677 28.4365 425.168 28.4365Z" fill="#F0FFFF"/>
<path d="M207.178 263.472C208.67 263.472 208.67 261.155 207.178 261.155C205.687 261.155 205.687 263.472 207.178 263.472Z" fill="#F0FFFF"/>
<path d="M77.4967 265.315C78.9884 265.315 78.9884 262.997 77.4967 262.997C76.0051 262.997 76.0051 265.315 77.4967 265.315Z" fill="#F0FFFF"/>
<path d="M140.956 129.819C142.447 129.819 142.447 127.501 140.956 127.501C139.464 127.501 139.464 129.819 140.956 129.819Z" fill="#F0FFFF"/>
<path d="M545.657 176.83C547.149 176.83 547.149 174.513 545.657 174.513C544.165 174.513 544.165 176.83 545.657 176.83Z" fill="#F0FFFF"/>
<path d="M711.208 125.218C712.699 125.218 712.699 122.901 711.208 122.901C709.716 122.901 709.716 125.218 711.208 125.218Z" fill="#F0FFFF"/>
<path d="M827.222 289.534C828.713 289.534 828.713 287.216 827.222 287.216C825.73 287.216 825.73 289.534 827.222 289.534Z" fill="#F0FFFF"/>
<path d="M813.774 96.8046C815.265 96.8046 815.265 94.4871 813.774 94.4871C812.282 94.4871 812.282 96.8046 813.774 96.8046Z" fill="#F0FFFF"/>
<path d="M190.296 104.638C192.528 104.638 192.528 101.162 190.296 101.162C188.064 101.162 188.064 104.638 190.296 104.638Z" fill="#F0FFFF"/>
<path d="M123.091 256.949C125.322 256.949 125.322 253.472 123.091 253.472C120.859 253.472 120.859 256.949 123.091 256.949Z" fill="#F0FFFF"/>
<path d="M443.612 193.749C445.843 193.749 445.843 190.272 443.612 190.272C441.38 190.272 441.38 193.749 443.612 193.749Z" fill="#F0FFFF"/>
<path d="M347.463 45.575C349.695 45.575 349.695 42.0986 347.463 42.0986C345.232 42.0986 345.232 45.575 347.463 45.575Z" fill="#F0FFFF"/>
<path d="M315.41 105.669C317.642 105.669 317.642 102.193 315.41 102.193C313.178 102.193 313.178 105.669 315.41 105.669Z" fill="#F0FFFF"/>
<path d="M569.766 95.3098C571.998 95.3098 571.998 91.8335 569.766 91.8335C567.535 91.8335 567.535 95.3098 569.766 95.3098Z" fill="#F0FFFF"/>
<path d="M409.5 114.998C411.732 114.998 411.732 111.521 409.5 111.521C407.268 111.521 407.268 114.998 409.5 114.998Z" fill="#F0FFFF"/>
<path d="M1016.43 270.425C1018.66 270.425 1018.66 266.949 1016.43 266.949C1014.2 266.949 1014.2 270.425 1016.43 270.425Z" fill="#F0FFFF"/>
<path d="M1040.22 349.165C1042.45 349.165 1042.45 345.688 1040.22 345.688C1037.98 345.688 1037.98 349.165 1040.22 349.165Z" fill="#F0FFFF"/>
<path d="M877.88 269.382C880.112 269.382 880.112 265.906 877.88 265.906C875.648 265.906 875.648 269.382 877.88 269.382Z" fill="#F0FFFF"/>
<path d="M777.592 285.964C779.824 285.964 779.824 282.488 777.592 282.488C775.361 282.488 775.361 285.964 777.592 285.964Z" fill="#F0FFFF"/>
<path d="M764.306 256.16C765.046 256.16 765.046 255.002 764.306 255.002C763.566 255.002 763.566 256.16 764.306 256.16Z" fill="#F0FFFF"/>
<path d="M740.289 256.16C741.029 256.16 741.029 255.002 740.289 255.002C739.549 255.002 739.549 256.16 740.289 256.16Z" fill="#F0FFFF"/>
<path d="M741.619 54.2079C742.359 54.2079 742.359 53.0491 741.619 53.0491C740.879 53.0491 740.879 54.2079 741.619 54.2079Z" fill="#F0FFFF"/>
<path d="M744.29 97.0018C745.03 97.0018 745.03 95.843 744.29 95.843C743.55 95.843 743.55 97.0018 744.29 97.0018Z" fill="#F0FFFF"/>
<path d="M618.841 72.9337C619.581 72.9337 619.581 71.7749 618.841 71.7749C618.101 71.7749 618.101 72.9337 618.841 72.9337Z" fill="#F0FFFF"/>
<path d="M677.559 16.756C678.299 16.756 678.299 15.5972 677.559 15.5972C676.819 15.5972 676.819 16.756 677.559 16.756Z" fill="#F0FFFF"/>
<path d="M845.723 66.2477C846.463 66.2477 846.463 65.0889 845.723 65.0889C844.983 65.0889 844.983 66.2477 845.723 66.2477Z" fill="#F0FFFF"/>
<path d="M895.098 135.786C895.838 135.786 895.838 134.627 895.098 134.627C894.358 134.627 894.358 135.786 895.098 135.786Z" fill="#F0FFFF"/>
<path d="M873.752 107.709C874.492 107.709 874.492 106.55 873.752 106.55C873.012 106.55 873.012 107.709 873.752 107.709Z" fill="#F0FFFF"/>
<path d="M968.501 233.425C969.241 233.425 969.241 232.266 968.501 232.266C967.761 232.266 967.761 233.425 968.501 233.425Z" fill="#F0FFFF"/>
<path d="M971.172 253.484C971.912 253.484 971.912 252.325 971.172 252.325C970.432 252.325 970.432 253.484 971.172 253.484Z" fill="#F0FFFF"/>
<path d="M427.608 150.561C428.348 150.561 428.348 149.402 427.608 149.402C426.868 149.402 426.868 150.561 427.608 150.561Z" fill="#F0FFFF"/>
<path d="M377.273 200.122C378.013 200.122 378.013 198.963 377.273 198.963C376.533 198.963 376.533 200.122 377.273 200.122Z" fill="#F0FFFF"/>
<path d="M251.87 44.3697C252.61 44.3697 252.61 43.2109 251.87 43.2109C251.13 43.2109 251.13 44.3697 251.87 44.3697Z" fill="#F0FFFF"/>
<path d="M138.828 204.548C139.568 204.548 139.568 203.39 138.828 203.39C138.088 203.39 138.088 204.548 138.828 204.548Z" fill="#F0FFFF"/>
<path d="M35.5107 254.99C36.2507 254.99 36.2507 253.832 35.5107 253.832C34.7706 253.832 34.7706 254.99 35.5107 254.99Z" fill="#F0FFFF"/>
<path d="M474.959 52.7479C475.7 52.7479 475.7 51.5891 474.959 51.5891C474.219 51.5891 474.219 52.7479 474.959 52.7479Z" fill="#F0FFFF"/>
<path d="M477.839 39.0279C478.579 39.0279 478.579 37.8691 477.839 37.8691C477.099 37.8691 477.099 39.0279 477.839 39.0279Z" fill="#F0FFFF"/>
<path d="M305.778 69.075C302.147 69.8282 301.546 70.4424 300.783 74.081C300.031 70.4424 299.418 69.8398 295.787 69.075C299.418 68.3218 300.019 67.7077 300.783 64.0691C301.534 67.7077 302.147 68.3102 305.778 69.075Z" fill="#F0FFFF"/>
<path d="M691.596 209.01C687.977 209.763 687.364 210.377 686.601 214.016C685.85 210.377 685.237 209.774 681.606 209.01C685.225 208.256 685.838 207.642 686.601 204.004C687.353 207.642 687.966 208.245 691.596 209.01Z" fill="#FFE896"/>
<path d="M927.625 265.628C923.497 266.485 922.792 267.192 921.936 271.329C921.08 267.192 920.375 266.485 916.247 265.628C920.375 264.77 921.08 264.063 921.936 259.927C922.792 264.063 923.497 264.77 927.625 265.628Z" fill="#F0FFFF"/>
<path d="M516.402 146.98C517.142 146.98 517.142 145.821 516.402 145.821C515.662 145.821 515.662 146.98 516.402 146.98Z" fill="#F0FFFF"/>
</g>
<defs>
<clipPath id="clip0_6_2242">
<rect width="1056" height="390" fill="white"/>
</clipPath>
</defs>
</svg>
