<svg width="170" height="194" viewBox="0 0 170 194" fill="none" xmlns="http://www.w3.org/2000/svg">
<path d="M48.0714 118.089C16.0913 121.974 -2.36826 162.317 28.7113 175.643C110.34 210.642 187.092 113.516 147.641 67.9637C131.515 49.3439 97.677 56.238 89.2163 77.2131C80.7556 98.1881 88.0464 113.233 48.0714 118.089Z" fill="#2D1A83" stroke="black"/>
<path d="M146.188 127.229V135.867" stroke="#6675F6" stroke-width="3" stroke-linecap="round" stroke-linejoin="round"/>
<path d="M64.5626 151.186L123.447 191.695L112.551 150.256L106.628 127.761L100.972 18.0405L88.7088 2L77.376 18.0405L70.789 127.457L53.9133 191.828L112.551 150.256" stroke="#6675F6" stroke-width="3" stroke-linecap="round" stroke-linejoin="round"/>
<path d="M77.3757 18.0408L101.009 42.092L75.0977 66.7696L104.179 93.3265L70.7886 127.458L115.626 161.987" stroke="#6675F6" stroke-width="3" stroke-linecap="round" stroke-linejoin="round"/>
<path d="M100.971 18.0408L76.8061 42.4906L102.452 67.5859L73.598 93.1747L106.628 127.761L61.7338 161.987" stroke="#6675F6" stroke-width="3" stroke-linecap="round" stroke-linejoin="round"/>
<path d="M71.8904 105.627L59.9502 112.518L34.4943 127.229L70.1629 126.888L59.9502 112.518" stroke="#6675F6" stroke-width="3" stroke-linecap="round" stroke-linejoin="round"/>
<path d="M32.4246 136.379H37.6828" stroke="#6675F6" stroke-width="3" stroke-linecap="round" stroke-linejoin="round"/>
<path d="M34.5506 127.23V135.867" stroke="#6675F6" stroke-width="3" stroke-linecap="round" stroke-linejoin="round"/>
<path d="M74.3005 69.1423L61.3542 76.6215L35.8793 91.3332H72.4212L61.3542 76.6215" stroke="#6675F6" stroke-width="3" stroke-linecap="round" stroke-linejoin="round"/>
<path d="M33.8102 100.483H39.0685" stroke="#6675F6" stroke-width="3" stroke-linecap="round" stroke-linejoin="round"/>
<path d="M35.9368 91.3332V99.9704" stroke="#6675F6" stroke-width="3" stroke-linecap="round" stroke-linejoin="round"/>
<path d="M76.8065 31.67L62.7403 39.7946L37.2844 54.5063H73.6554L62.7403 39.7946" stroke="#6675F6" stroke-width="3" stroke-linecap="round" stroke-linejoin="round"/>
<path d="M35.2153 63.6561H40.4545" stroke="#6675F6" stroke-width="3" stroke-linecap="round" stroke-linejoin="round"/>
<path d="M37.3412 54.5068V63.144" stroke="#6675F6" stroke-width="3" stroke-linecap="round" stroke-linejoin="round"/>
<path d="M105.432 104.678L119.328 112.517L146.207 127.229H106.723L119.328 112.517" stroke="#6675F6" stroke-width="3" stroke-linecap="round" stroke-linejoin="round"/>
<path d="M148.789 136.379H143.246" stroke="#6675F6" stroke-width="3" stroke-linecap="round" stroke-linejoin="round"/>
<path d="M103.591 68.82L117.847 76.6219L144.745 91.3336H105.755L117.847 76.6219" stroke="#6675F6" stroke-width="3" stroke-linecap="round" stroke-linejoin="round"/>
<path d="M146.967 100.483H141.424" stroke="#6675F6" stroke-width="3" stroke-linecap="round" stroke-linejoin="round"/>
<path d="M144.727 91.3332V99.9704" stroke="#6675F6" stroke-width="3" stroke-linecap="round" stroke-linejoin="round"/>
<path d="M101.674 31.746L116.385 39.7947L143.265 54.5063H104.521L116.385 39.7947" stroke="#6675F6" stroke-width="3" stroke-linecap="round" stroke-linejoin="round"/>
<path d="M145.486 63.6561H139.943" stroke="#6675F6" stroke-width="3" stroke-linecap="round" stroke-linejoin="round"/>
<path d="M143.246 54.5068V63.144" stroke="#6675F6" stroke-width="3" stroke-linecap="round" stroke-linejoin="round"/>
<path d="M144.642 31.3666L141.599 26.7829C141.559 26.6878 141.544 26.5833 141.553 26.4796C141.562 26.376 141.596 26.2767 141.651 26.1916L146.226 21.0895C146.315 21.031 146.378 20.9367 146.403 20.8274C146.427 20.718 146.411 20.6026 146.357 20.5065C146.303 20.4103 146.216 20.3414 146.116 20.3148C146.015 20.2882 145.909 20.3062 145.82 20.3647L139.473 22.4664C139.384 22.4829 139.292 22.4751 139.205 22.4437C139.119 22.4123 139.042 22.3583 138.979 22.2864L136.129 17.2968C136.103 17.1865 136.037 17.0923 135.946 17.0348C135.856 16.9773 135.748 16.9612 135.647 16.9901C135.545 17.019 135.458 17.0904 135.405 17.1888C135.353 17.2871 135.338 17.4043 135.364 17.5145L135.245 23.6832C135.25 23.7848 135.221 23.8849 135.164 23.9651C135.106 24.0453 135.023 24.1 134.931 24.119L129.379 25.6652C129.276 25.6543 129.173 25.6883 129.093 25.7599C129.013 25.8314 128.963 25.9345 128.953 26.0465C128.943 26.1585 128.974 26.2702 129.04 26.3571C129.106 26.444 129.201 26.4989 129.304 26.5098L134.833 29.1815C134.92 29.2099 134.996 29.2712 135.046 29.3546C135.096 29.4379 135.117 29.5378 135.106 29.6366L134.804 33.0151C134.781 33.0659 134.768 33.121 134.765 33.1774C134.762 33.2337 134.77 33.2901 134.787 33.3434C134.804 33.3966 134.83 33.4457 134.865 33.4878C134.9 33.5299 134.941 33.5642 134.988 33.5887C135.035 33.6132 135.086 33.6275 135.138 33.6307C135.189 33.6339 135.241 33.626 135.29 33.6074C135.339 33.5889 135.385 33.56 135.423 33.5224C135.462 33.4849 135.494 33.4394 135.516 33.3886L138.3 29.8881C138.347 29.8108 138.417 29.7525 138.498 29.7225C138.578 29.6925 138.666 29.6923 138.747 29.7221L144.15 32.0395C144.232 32.1103 144.337 32.1428 144.441 32.1298C144.545 32.1168 144.64 32.0594 144.706 31.9702C144.771 31.881 144.801 31.7672 144.789 31.654C144.777 31.5409 144.724 31.4375 144.642 31.3666Z" fill="#F484FA"/>
<path d="M15.0743 126.788L11.9992 139.254C11.9873 139.312 11.9899 139.373 12.0068 139.432C12.0237 139.491 12.0544 139.545 12.0958 139.59C12.1373 139.634 12.1882 139.667 12.2437 139.687C12.2992 139.706 12.3576 139.71 12.4132 139.699L16.706 138.722C16.7506 138.709 16.7982 138.705 16.8455 138.712C16.8928 138.719 16.9388 138.737 16.9805 138.764C17.0222 138.79 17.0586 138.826 17.0875 138.867C17.1163 138.909 17.1368 138.955 17.1477 139.005L17.9054 145.55C17.9281 145.894 18.4898 145.953 18.5454 145.629L21.8517 132.29C21.8599 132.228 21.854 132.163 21.8345 132.101C21.8149 132.039 21.7822 131.982 21.7389 131.934C21.6957 131.886 21.6431 131.848 21.5852 131.824C21.5274 131.8 21.4658 131.79 21.4056 131.795L17.1537 133.248C17.1109 133.276 17.0606 133.291 17.0085 133.29C16.9564 133.29 16.9045 133.274 16.8587 133.245C16.8128 133.215 16.7748 133.174 16.7489 133.124C16.723 133.075 16.7101 133.02 16.7119 132.965L15.7144 126.867C15.6957 126.794 15.6559 126.727 15.6006 126.677C15.5452 126.626 15.4772 126.594 15.4063 126.585C15.3353 126.577 15.265 126.591 15.2054 126.628C15.1458 126.664 15.0999 126.72 15.0743 126.788Z" fill="#FFBAFF"/>
</svg>
