<svg width="154" height="135" viewBox="0 0 154 135" fill="none" xmlns="http://www.w3.org/2000/svg">
<path d="M40.8503 64.9563C16.8131 63.9752 0.563258 89.5639 11.9016 110.842C13.2094 113.299 14.84 115.833 16.8428 118.443C40.1223 148.815 69.9538 110.614 88.0946 106.587C106.235 102.563 114.335 111.241 126.026 108.542C141.403 104.991 154.04 88.52 144.905 59.9681C136.782 34.5742 118.792 31.3963 106.15 31.0164C94.2447 30.6596 76.9604 44.4747 72.3454 60.2819C68.9821 71.8011 57.4263 65.6302 40.8503 64.953V64.9563Z" fill="#2D1A83"/>
<path d="M21.6028 109.884C21.4216 109.884 21.2602 109.735 21.2602 109.553C21.2602 109.372 21.3953 109.223 21.5765 109.223H21.6094C22.1266 109.223 22.6668 109.21 23.2071 109.18C23.3849 109.17 23.5431 109.309 23.5529 109.494C23.5628 109.676 23.4245 109.831 23.24 109.841C22.6899 109.87 22.1398 109.884 21.6028 109.884ZM19.9294 109.834C19.9294 109.834 19.9162 109.834 19.9096 109.834C19.3464 109.801 18.7864 109.748 18.2494 109.682C18.0682 109.659 17.9398 109.494 17.9628 109.312C17.9859 109.13 18.1473 109.002 18.3318 109.025C18.8555 109.091 19.3991 109.14 19.9492 109.173C20.1304 109.183 20.2687 109.342 20.2588 109.524C20.2489 109.699 20.104 109.834 19.9294 109.834ZM24.864 109.715C24.696 109.715 24.5544 109.59 24.5379 109.418C24.5181 109.236 24.6532 109.074 24.8311 109.054C25.3647 109.002 25.9115 108.932 26.4518 108.853C26.6296 108.823 26.7976 108.952 26.824 109.13C26.8504 109.312 26.7252 109.477 26.544 109.504C25.9939 109.583 25.4372 109.652 24.8936 109.709C24.8838 109.709 24.8706 109.709 24.8607 109.709L24.864 109.715ZM16.6649 109.418C16.6419 109.418 16.6221 109.418 16.5991 109.411C16.0456 109.299 15.4988 109.167 14.9718 109.015C14.7972 108.965 14.6951 108.78 14.7478 108.605C14.8005 108.43 14.9816 108.328 15.1562 108.381C15.6635 108.526 16.1939 108.655 16.7308 108.764C16.9087 108.8 17.024 108.975 16.9878 109.154C16.9548 109.312 16.8198 109.418 16.6649 109.418ZM28.1252 109.239C27.9704 109.239 27.832 109.13 27.8024 108.972C27.7694 108.793 27.8847 108.618 28.0659 108.585C28.5962 108.486 29.1332 108.374 29.6668 108.252C29.8447 108.212 30.0226 108.321 30.0621 108.499C30.1016 108.678 29.9929 108.853 29.8151 108.896C29.2748 109.021 28.728 109.134 28.1911 109.236C28.1713 109.239 28.1515 109.243 28.1285 109.243L28.1252 109.239ZM31.3369 108.503C31.192 108.503 31.0569 108.407 31.0174 108.258C30.9713 108.083 31.0734 107.902 31.2513 107.852C31.7784 107.71 32.3054 107.558 32.8226 107.396C32.9972 107.343 33.1816 107.439 33.2344 107.614C33.2871 107.789 33.1915 107.974 33.0169 108.027C32.4932 108.189 31.9562 108.344 31.4226 108.49C31.3929 108.496 31.3666 108.499 31.3369 108.499V108.503ZM13.5059 108.503C13.4664 108.503 13.4268 108.496 13.3873 108.48C12.8602 108.275 12.3464 108.044 11.8555 107.793C11.6941 107.71 11.6282 107.512 11.7106 107.347C11.7929 107.181 11.9906 107.119 12.1553 107.201C12.6264 107.442 13.1205 107.664 13.6278 107.862C13.7958 107.928 13.8814 108.12 13.8155 108.288C13.7661 108.42 13.6409 108.499 13.5092 108.499L13.5059 108.503ZM34.4861 107.532C34.3511 107.532 34.2226 107.446 34.1765 107.31C34.1172 107.138 34.2061 106.95 34.3807 106.891C34.8946 106.712 35.4085 106.521 35.9158 106.323C36.0838 106.256 36.2748 106.339 36.3407 106.511C36.4066 106.683 36.3242 106.871 36.1529 106.937C35.6391 107.138 35.1153 107.33 34.5948 107.512C34.5586 107.525 34.5224 107.532 34.4861 107.532ZM10.5774 107.003C10.5148 107.003 10.4522 106.986 10.3962 106.95L10.2249 106.835C9.82306 106.564 9.42777 106.253 9.04894 105.916C8.91388 105.794 8.90071 105.586 9.02259 105.45C9.14447 105.315 9.352 105.302 9.48706 105.424C9.84282 105.741 10.2118 106.032 10.5906 106.286L10.7553 106.395C10.9068 106.494 10.9496 106.699 10.8508 106.851C10.7882 106.947 10.6828 107 10.5741 107L10.5774 107.003ZM37.5562 106.332C37.4278 106.332 37.3092 106.26 37.2532 106.134C37.1807 105.966 37.2565 105.771 37.4245 105.698C37.9351 105.477 38.4325 105.246 38.9068 105.011C39.0715 104.932 39.2692 104.998 39.3482 105.163C39.4273 105.328 39.3614 105.526 39.1967 105.606C38.7125 105.843 38.2052 106.078 37.688 106.306C37.6452 106.326 37.5991 106.332 37.5562 106.332ZM40.5144 104.876C40.3991 104.876 40.2871 104.813 40.2245 104.707C40.1355 104.549 40.1948 104.347 40.3529 104.258C40.8536 103.977 41.3214 103.696 41.7464 103.419C41.8979 103.32 42.1021 103.363 42.2009 103.515C42.2998 103.667 42.2569 103.871 42.1054 103.97C41.6706 104.255 41.1864 104.545 40.6725 104.833C40.6231 104.862 40.5671 104.876 40.5111 104.876H40.5144ZM8.12329 104.823C8.03106 104.823 7.93882 104.783 7.87294 104.707C7.51718 104.291 7.17459 103.838 6.85506 103.363C6.75294 103.211 6.79247 103.006 6.944 102.903C7.09553 102.801 7.29976 102.841 7.40188 102.993C7.70824 103.448 8.03435 103.881 8.37365 104.278C8.49224 104.416 8.47577 104.625 8.33741 104.743C8.27482 104.796 8.19906 104.823 8.12329 104.823ZM6.28188 102.091C6.16329 102.091 6.05129 102.028 5.992 101.916C5.73506 101.43 5.49129 100.921 5.27388 100.396C5.20471 100.228 5.28047 100.033 5.44847 99.9633C5.61647 99.8939 5.81082 99.9699 5.88 100.138C6.09082 100.644 6.32471 101.136 6.57177 101.602C6.65741 101.764 6.59812 101.962 6.43671 102.048C6.38729 102.074 6.33459 102.087 6.28188 102.087V102.091ZM5.00047 99.0515C4.86212 99.0515 4.73365 98.9623 4.68753 98.8236C4.51624 98.2983 4.36471 97.7566 4.23294 97.2082C4.19012 97.0298 4.29882 96.8514 4.47671 96.8085C4.65459 96.7655 4.83247 96.8745 4.87529 97.0529C5.00047 97.5815 5.14871 98.1067 5.31341 98.6188C5.36941 98.7939 5.27388 98.9789 5.10259 99.035C5.06965 99.0449 5.03341 99.0515 5.00047 99.0515ZM4.22965 95.8439C4.07153 95.8439 3.92988 95.7282 3.90353 95.5664C3.81459 95.018 3.74541 94.4597 3.696 93.9047C3.67953 93.723 3.81459 93.5612 3.99577 93.5479C4.17694 93.5347 4.33835 93.6669 4.35153 93.8486C4.39765 94.387 4.46682 94.9321 4.55247 95.464C4.58212 95.6424 4.46024 95.8141 4.27906 95.8439C4.26259 95.8439 4.24282 95.8472 4.22635 95.8472L4.22965 95.8439ZM3.94306 92.5536C3.76188 92.5536 3.61694 92.4082 3.61365 92.2266C3.61365 92.1175 3.61365 92.0052 3.61365 91.8962C3.61365 91.4502 3.62682 90.9977 3.65318 90.5484C3.66306 90.3667 3.82118 90.2213 4.00235 90.2379C4.18353 90.2478 4.32188 90.4063 4.312 90.588C4.28565 91.0208 4.27247 91.4634 4.27247 91.8962C4.27247 92.0019 4.27247 92.1109 4.27247 92.2166C4.27247 92.3983 4.13082 92.5503 3.94635 92.5503H3.94306V92.5536ZM4.13741 89.2567C4.13741 89.2567 4.10777 89.2567 4.09459 89.2567C3.91341 89.2336 3.78824 89.0651 3.81129 88.8867C3.88376 88.3318 3.97929 87.7768 4.09459 87.235C4.13082 87.0566 4.30871 86.941 4.48659 86.9806C4.66447 87.017 4.77977 87.1954 4.74024 87.3737C4.62824 87.899 4.536 88.4375 4.46353 88.9759C4.44047 89.1411 4.29882 89.2633 4.13741 89.2633V89.2567ZM4.81929 86.0292C4.78965 86.0292 4.75671 86.0259 4.72706 86.016C4.55247 85.9632 4.45365 85.7815 4.50306 85.6064C4.66118 85.0712 4.84235 84.5361 5.04 84.0174C5.10588 83.8456 5.29694 83.763 5.46494 83.8291C5.63624 83.8952 5.71859 84.0868 5.65271 84.2553C5.45835 84.7574 5.28377 85.276 5.13224 85.7947C5.08941 85.94 4.95765 86.0325 4.816 86.0325L4.81929 86.0292ZM6.00188 82.9504C5.95247 82.9504 5.90635 82.9405 5.86024 82.9174C5.69553 82.8381 5.62635 82.6399 5.70871 82.4747C5.95247 81.9726 6.21929 81.4737 6.50259 80.9947C6.59482 80.8395 6.79906 80.7866 6.95388 80.8791C7.10871 80.9716 7.16141 81.1764 7.06918 81.3317C6.79576 81.7942 6.53882 82.2732 6.30165 82.7588C6.24565 82.8777 6.12706 82.9438 6.00518 82.9438L6.00188 82.9504ZM7.68188 80.116C7.616 80.116 7.54682 80.0962 7.49082 80.0532C7.34259 79.9475 7.30965 79.7394 7.41506 79.5907C7.74118 79.1382 8.09035 78.6922 8.45271 78.2727C8.57129 78.1339 8.77882 78.1174 8.91718 78.2396C9.05553 78.3585 9.072 78.5667 8.95012 78.7054C8.60094 79.1117 8.26165 79.5412 7.94871 79.9772C7.88282 80.0664 7.784 80.116 7.68188 80.116ZM9.82965 77.6186C9.744 77.6186 9.65835 77.5855 9.59247 77.5195C9.464 77.3873 9.46729 77.1792 9.59906 77.0537C9.99435 76.6672 10.416 76.2906 10.8475 75.9371C10.9892 75.8215 11.1967 75.8413 11.312 75.9833C11.4273 76.1254 11.4075 76.3335 11.2659 76.4491C10.8475 76.7927 10.4424 77.1561 10.0602 77.5294C9.99765 77.5921 9.912 77.6219 9.82965 77.6219V77.6186ZM12.376 75.5308C12.2706 75.5308 12.1685 75.4812 12.1026 75.3887C12.0005 75.2368 12.0367 75.0319 12.1882 74.9295C12.6428 74.6157 13.1172 74.3184 13.6047 74.0376C13.7628 73.9484 13.9638 74.0013 14.056 74.1598C14.1449 74.3184 14.0922 74.5199 13.9341 74.6124C13.4631 74.8833 13.0019 75.174 12.5638 75.4779C12.5078 75.5176 12.4419 75.5374 12.3793 75.5374L12.376 75.5308ZM15.2254 73.8856C15.1035 73.8856 14.9849 73.8163 14.9289 73.6973C14.8499 73.5322 14.9191 73.334 15.0838 73.258C15.5779 73.0201 16.0918 72.7955 16.6155 72.5907C16.7835 72.5246 16.9746 72.6072 17.0438 72.7757C17.1096 72.9441 17.0273 73.1357 16.8593 73.2051C16.352 73.4033 15.8513 73.6247 15.3704 73.8526C15.3242 73.8757 15.2748 73.8856 15.2287 73.8856H15.2254ZM18.2856 72.6766C18.1473 72.6766 18.0155 72.5874 17.9727 72.4453C17.9167 72.2702 18.0122 72.0852 18.1868 72.0291C18.7073 71.8639 19.2442 71.7086 19.7878 71.5699C19.9624 71.5236 20.1435 71.6327 20.1864 71.8077C20.2325 71.9861 20.1238 72.1645 19.9492 72.2075C19.4188 72.3429 18.8951 72.4916 18.3845 72.6534C18.3515 72.6633 18.3186 72.67 18.2856 72.67V72.6766ZM21.4744 71.8639C21.3195 71.8639 21.1812 71.7549 21.1515 71.5963C21.1186 71.4179 21.2339 71.2428 21.4118 71.2098C21.9454 71.1074 22.4988 71.0149 23.0522 70.9356C23.2334 70.9092 23.3981 71.0347 23.4245 71.2164C23.4508 71.3981 23.3256 71.5633 23.1445 71.5897C22.6009 71.6657 22.0607 71.7549 21.5369 71.8573C21.5172 71.8606 21.4941 71.8639 21.4744 71.8639ZM24.7322 71.3981C24.5675 71.3981 24.4226 71.2726 24.4061 71.1041C24.3864 70.9224 24.5181 70.7605 24.696 70.7407C25.2428 70.6813 25.7864 70.6053 26.3134 70.5227C26.4946 70.4963 26.6626 70.6185 26.6922 70.7969C26.7219 70.9786 26.5967 71.1471 26.4188 71.1768C25.8819 71.2627 25.3285 71.3354 24.7718 71.3981C24.7586 71.3981 24.7487 71.3981 24.7355 71.3981H24.7322ZM27.9802 70.8762C27.8287 70.8762 27.6904 70.7705 27.6574 70.6152C27.6179 70.4368 27.7332 70.2617 27.9111 70.2221C28.448 70.1065 28.9784 69.9776 29.4889 69.8323C29.6668 69.7827 29.8447 69.8851 29.8941 70.0635C29.9435 70.2386 29.8414 70.4203 29.6635 70.4698C29.1398 70.6152 28.5962 70.7506 28.0461 70.8663C28.0231 70.8729 28 70.8729 27.9769 70.8729L27.9802 70.8762ZM31.1459 69.9908C31.0108 69.9908 30.8824 69.9049 30.8362 69.7695C30.7769 69.5977 30.8659 69.4094 31.0372 69.35C31.5544 69.1683 32.0616 68.9668 32.5459 68.7553C32.7106 68.6827 32.9082 68.7553 32.9807 68.9271C33.0532 69.0956 32.9774 69.2905 32.8094 69.3632C32.312 69.5812 31.7882 69.786 31.2579 69.9743C31.2216 69.9875 31.1854 69.9941 31.1492 69.9941L31.1459 69.9908ZM34.1567 68.6694C34.0381 68.6694 33.9261 68.6067 33.8668 68.4944C33.7812 68.3325 33.8405 68.1343 34.0019 68.0484C34.4795 67.7907 34.9473 67.5132 35.3887 67.2225C35.5402 67.1234 35.7445 67.1664 35.8433 67.3183C35.9421 67.4703 35.8993 67.6751 35.7478 67.7742C35.2899 68.0748 34.8056 68.3655 34.3082 68.6298C34.2588 68.6562 34.2061 68.6694 34.1534 68.6694H34.1567ZM36.9007 66.8591C36.8052 66.8591 36.7096 66.8162 36.6438 66.7336C36.5318 66.5915 36.5548 66.3834 36.6965 66.2678C37.1148 65.9309 37.5233 65.5741 37.9087 65.2008C38.0405 65.0753 38.248 65.0786 38.3732 65.2074C38.4984 65.3395 38.4951 65.5477 38.3666 65.6732C37.968 66.0597 37.5431 66.433 37.1082 66.7832C37.0489 66.8327 36.9765 66.8558 36.904 66.8558L36.9007 66.8591ZM39.2626 64.5698C39.1868 64.5698 39.1111 64.5434 39.0485 64.4905C38.9101 64.3716 38.8937 64.1635 39.0122 64.0247C39.3581 63.6184 39.6908 63.189 40.0005 62.7463C40.1059 62.5976 40.3101 62.5613 40.4584 62.667C40.6066 62.7727 40.6428 62.9775 40.5374 63.1262C40.2146 63.5854 39.8687 64.0314 39.5096 64.4542C39.4438 64.5302 39.3515 64.5698 39.2593 64.5698H39.2626ZM41.1567 61.8775C41.1007 61.8775 41.0447 61.8643 40.992 61.8345C40.8339 61.742 40.7812 61.5405 40.8734 61.382C41.1402 60.9228 41.3906 60.4405 41.6245 59.945C41.7035 59.7798 41.8979 59.7104 42.0626 59.7864C42.2273 59.8657 42.2965 60.0606 42.2207 60.2257C41.9802 60.7378 41.7167 61.2366 41.4433 61.7123C41.3807 61.818 41.272 61.8775 41.1567 61.8775ZM42.5699 58.8977C42.5304 58.8977 42.4908 58.8911 42.4513 58.8746C42.28 58.8086 42.1977 58.6169 42.2635 58.4485C42.4546 57.9529 42.6325 57.4376 42.7972 56.9091C42.8499 56.734 43.0344 56.6382 43.2089 56.691C43.3835 56.7439 43.4791 56.9289 43.4264 57.104C43.2584 57.6457 43.0739 58.1776 42.8795 58.6863C42.8301 58.8185 42.7049 58.8977 42.5732 58.8977H42.5699ZM43.5482 55.7462C43.5219 55.7462 43.4955 55.7462 43.4692 55.7363C43.2913 55.6934 43.1859 55.515 43.2287 55.3366C43.3539 54.8213 43.4725 54.2861 43.5746 53.741C43.6075 53.5626 43.7788 53.4437 43.96 53.4767C44.1379 53.5098 44.2565 53.6849 44.2235 53.8632C44.1181 54.4182 43.9995 54.9699 43.8711 55.4952C43.8348 55.6471 43.6998 55.7462 43.5515 55.7462H43.5482ZM44.1675 52.5022C44.1675 52.5022 44.1379 52.5022 44.1214 52.5022C43.9402 52.4758 43.8151 52.3106 43.8414 52.1289C43.9172 51.6004 43.9831 51.0553 44.0391 50.5036C44.0588 50.3219 44.2169 50.1898 44.4014 50.2063C44.5826 50.2261 44.7144 50.388 44.6979 50.5697C44.6419 51.1313 44.576 51.6862 44.4969 52.2247C44.4739 52.3899 44.3322 52.5088 44.1708 52.5088L44.1675 52.5022ZM44.5002 49.2152C44.5002 49.2152 44.4871 49.2152 44.4805 49.2152C44.2993 49.202 44.1609 49.0468 44.1741 48.8651C44.2071 48.3299 44.2334 47.7749 44.2532 47.2232C44.2598 47.0416 44.4113 46.8929 44.5925 46.9028C44.7736 46.9094 44.9186 47.0614 44.912 47.2431C44.8922 47.8047 44.8659 48.3629 44.8329 48.9047C44.8231 49.0798 44.6781 49.2152 44.5035 49.2152H44.5002ZM44.6089 45.9118C44.4278 45.9118 44.2795 45.7631 44.2795 45.5814V45.261C44.2795 44.8183 44.2762 44.3756 44.2664 43.9363C44.2631 43.7546 44.408 43.6026 44.5892 43.5993C44.7769 43.5993 44.9219 43.7414 44.9252 43.9231C44.9351 44.369 44.9384 44.815 44.9384 45.261V45.5847C44.9384 45.7664 44.7901 45.9151 44.6089 45.9151V45.9118ZM44.5496 42.6083C44.3751 42.6083 44.2268 42.4695 44.2202 42.2912C44.1972 41.7395 44.1708 41.1911 44.1412 40.646C44.1313 40.4643 44.2696 40.3091 44.4508 40.2959C44.6386 40.2859 44.7868 40.4247 44.8 40.6064C44.8296 41.1548 44.8593 41.7064 44.8791 42.2614C44.8857 42.4431 44.744 42.5984 44.5628 42.605H44.5496V42.6083ZM36.5186 42.3539C36.1628 42.3539 35.8104 42.3473 35.4645 42.3341C35.2833 42.3275 35.1416 42.1755 35.1482 41.9905C35.1548 41.8088 35.3031 41.6668 35.4908 41.6734C36.0245 41.6932 36.5647 41.6998 37.1181 41.6866C37.3092 41.6866 37.4508 41.8287 37.4541 42.0104C37.4574 42.192 37.3125 42.344 37.1313 42.3473C36.9271 42.3506 36.7195 42.3539 36.5186 42.3539ZM38.7685 42.2647C38.5972 42.2647 38.4555 42.1326 38.4391 41.9608C38.4259 41.7791 38.5609 41.6205 38.7421 41.604C39.2824 41.5611 39.8259 41.5016 40.3628 41.4289C40.5407 41.4025 40.7087 41.5314 40.7351 41.7097C40.7614 41.8914 40.6329 42.0566 40.4551 42.083C39.9082 42.159 39.3515 42.2185 38.7981 42.2614C38.7882 42.2614 38.7816 42.2614 38.7718 42.2614L38.7685 42.2647ZM33.8339 42.2218C33.8339 42.2218 33.8108 42.2218 33.8009 42.2218C33.2376 42.1656 32.6809 42.0929 32.1473 42.0037C31.9694 41.974 31.8475 41.8022 31.8772 41.6238C31.9068 41.4455 32.0781 41.3232 32.256 41.353C32.7765 41.4389 33.3167 41.5115 33.8668 41.5677C34.048 41.5842 34.1798 41.7461 34.1633 41.9278C34.1468 42.0996 34.0019 42.2251 33.8372 42.2251L33.8339 42.2218ZM42.0329 41.8121C41.8781 41.8121 41.7431 41.7031 41.7101 41.5479C41.6739 41.3695 41.7892 41.1944 41.9671 41.1581C42.5007 41.0523 43.0344 40.9268 43.5515 40.7881C43.7261 40.7418 43.9073 40.8442 43.9534 41.0226C43.9995 41.1977 43.8974 41.3794 43.7195 41.4256C43.1892 41.5677 42.6424 41.6965 42.0955 41.8055C42.0725 41.8088 42.0527 41.8121 42.0296 41.8121H42.0329ZM30.5892 41.6701C30.5628 41.6701 30.5365 41.6701 30.5068 41.6602C29.9336 41.5148 29.3934 41.3464 28.8993 41.1647C28.728 41.1019 28.6424 40.9103 28.7049 40.7385C28.7675 40.5667 28.9586 40.4808 29.1299 40.5436C29.6009 40.7187 30.1181 40.8806 30.6682 41.0193C30.8461 41.0656 30.9515 41.2439 30.9054 41.419C30.8692 41.5677 30.7341 41.6668 30.5859 41.6668L30.5892 41.6701ZM45.2118 40.9565C45.0734 40.9565 44.9482 40.8707 44.8988 40.7319C44.8395 40.5601 44.9318 40.3718 45.1031 40.3124C45.6202 40.134 46.1275 39.9391 46.6184 39.731C46.7864 39.6583 46.9807 39.7376 47.0499 39.906C47.1224 40.0745 47.0433 40.2694 46.8753 40.3388C46.3713 40.5535 45.8475 40.755 45.3139 40.9367C45.2776 40.9499 45.2414 40.9532 45.2085 40.9532L45.2118 40.9565ZM27.5191 40.4908C27.4664 40.4908 27.4104 40.4775 27.3576 40.4478C26.8602 40.1703 26.3826 39.8664 25.9346 39.5427C25.7864 39.4369 25.7534 39.2288 25.8588 39.0802C25.9642 38.9315 26.1718 38.8985 26.32 39.0042C26.7449 39.3114 27.1995 39.6021 27.6772 39.8664C27.8353 39.9556 27.8946 40.1571 27.8056 40.3157C27.7464 40.4247 27.6344 40.4841 27.5191 40.4841V40.4908ZM48.2358 39.6616C48.1172 39.6616 48.0019 39.5955 47.9426 39.4832C47.8569 39.3213 47.9195 39.1231 48.0809 39.0372C48.5619 38.7829 49.0362 38.512 49.4809 38.2246C49.6358 38.1255 49.8367 38.1717 49.9355 38.327C50.0344 38.4822 49.9882 38.6838 49.8334 38.7829C49.3689 39.0802 48.8814 39.361 48.384 39.6219C48.3346 39.6484 48.2819 39.6583 48.2325 39.6583L48.2358 39.6616ZM44.3619 39.3114C44.1906 39.3114 44.0456 39.1793 44.0325 39.0042C43.9929 38.4525 43.9501 37.9041 43.9073 37.3591C43.8941 37.1774 44.0259 37.0188 44.2104 37.0023C44.3948 36.9858 44.5496 37.1212 44.5661 37.3062C44.6122 37.8513 44.6518 38.403 44.6913 38.9579C44.7045 39.1396 44.5661 39.2982 44.3849 39.3114C44.3784 39.3114 44.3685 39.3114 44.3619 39.3114ZM24.8607 38.5582C24.7784 38.5582 24.6993 38.5285 24.6334 38.469C24.2184 38.0792 23.8329 37.6597 23.4838 37.2236C23.3685 37.0816 23.3915 36.8734 23.5332 36.7578C23.6748 36.6422 23.8824 36.6653 23.9976 36.8074C24.3271 37.2203 24.6927 37.6167 25.0847 37.9834C25.2165 38.1089 25.2231 38.3171 25.0979 38.4492C25.032 38.5186 24.9464 38.5516 24.8574 38.5516L24.8607 38.5582ZM51.0094 37.8876C50.9106 37.8876 50.8151 37.8447 50.7492 37.7588C50.6372 37.6134 50.6635 37.4086 50.8085 37.2963C51.2367 36.9659 51.6485 36.6092 52.0372 36.2458C52.1689 36.1203 52.3765 36.1269 52.5017 36.259C52.6268 36.3911 52.6202 36.5993 52.4885 36.7248C52.0866 37.1047 51.6584 37.4714 51.2136 37.8182C51.1544 37.8645 51.0819 37.8876 51.0127 37.8876H51.0094ZM44.0984 36.0178C43.9304 36.0178 43.7854 35.889 43.7689 35.7172C43.7195 35.1622 43.6701 34.6139 43.6174 34.0721C43.6009 33.8904 43.7327 33.7285 43.9139 33.712C44.0984 33.6955 44.2565 33.8276 44.2729 34.0093C44.3224 34.5511 44.3751 35.0995 44.4245 35.6545C44.4409 35.8362 44.3059 35.998 44.1247 36.0112C44.1148 36.0112 44.1049 36.0112 44.0951 36.0112L44.0984 36.0178ZM22.8118 35.9881C22.6998 35.9881 22.5878 35.9286 22.5285 35.8262C22.2419 35.3373 21.9915 34.8253 21.7807 34.3C21.7115 34.1316 21.7939 33.94 21.9619 33.8706C22.1299 33.8012 22.3209 33.8838 22.3901 34.0523C22.5878 34.5445 22.8249 35.0301 23.0951 35.4893C23.1873 35.6479 23.1346 35.8494 22.9765 35.9419C22.9238 35.9716 22.8678 35.9881 22.8118 35.9881ZM53.4009 35.6247C53.3252 35.6247 53.2461 35.5983 53.1835 35.5454C53.0452 35.4265 53.032 35.2184 53.1506 35.0797C53.5031 34.6733 53.8358 34.2472 54.1421 33.8078C54.2475 33.6592 54.4518 33.6228 54.6 33.7285C54.7482 33.8342 54.7845 34.0391 54.6791 34.1877C54.3595 34.6436 54.0104 35.0896 53.6447 35.5124C53.5788 35.5884 53.4866 35.6247 53.3944 35.6247H53.4009ZM21.5896 32.9324C21.4414 32.9324 21.3064 32.83 21.2701 32.678C21.0329 31.6672 21.0329 30.9932 21.0329 30.9668C21.0329 30.7851 21.1812 30.6365 21.3624 30.6365C21.5435 30.6365 21.6918 30.7851 21.6918 30.9668C21.6918 30.9734 21.6918 31.5945 21.9125 32.5294C21.9553 32.7078 21.8433 32.8861 21.6654 32.9258C21.6391 32.9324 21.616 32.9357 21.5896 32.9357V32.9324ZM55.2918 32.9324C55.2358 32.9324 55.1831 32.9192 55.1304 32.8894C54.9722 32.8003 54.9162 32.5987 55.0052 32.4402C55.2654 31.9744 55.5059 31.4888 55.7233 30.9932C55.7958 30.8248 55.9901 30.7488 56.1581 30.8215C56.3261 30.8941 56.4019 31.0891 56.3294 31.2575C56.1054 31.7729 55.8551 32.2783 55.5816 32.7639C55.5224 32.8729 55.4104 32.9324 55.2951 32.9324H55.2918ZM43.7953 32.7276C43.6273 32.7276 43.4824 32.5987 43.4692 32.427C43.4165 31.8654 43.3671 31.317 43.3209 30.7785C43.3045 30.5968 43.4395 30.435 43.6207 30.4217C43.8052 30.4052 43.9633 30.5407 43.9765 30.7224C44.0226 31.2575 44.072 31.8059 44.1247 32.3675C44.1412 32.5492 44.0094 32.7111 43.8282 32.7276C43.8184 32.7276 43.8085 32.7276 43.7986 32.7276H43.7953ZM56.6094 29.913C56.5765 29.913 56.5402 29.9064 56.5073 29.8965C56.336 29.8403 56.2405 29.652 56.2965 29.4803C56.4612 28.9748 56.6094 28.4529 56.7346 27.921C56.7774 27.7426 56.9553 27.6336 57.1299 27.6766C57.3078 27.7195 57.4165 27.8979 57.3736 28.073C57.2452 28.6214 57.0904 29.1664 56.9191 29.6884C56.8729 29.8271 56.7445 29.9163 56.6061 29.9163L56.6094 29.913ZM43.512 29.434C43.3407 29.434 43.1958 29.3019 43.1826 29.1268C43.1398 28.5553 43.1035 28.0003 43.0805 27.4684C43.0706 27.2867 43.2122 27.1315 43.3934 27.1216C43.5746 27.1084 43.7294 27.2537 43.7393 27.4354C43.7656 27.9607 43.7986 28.509 43.8414 29.0772C43.8546 29.2589 43.7195 29.4175 43.5384 29.4307C43.5318 29.4307 43.5219 29.4307 43.5153 29.4307L43.512 29.434ZM57.3704 26.7086C57.3539 26.7086 57.3374 26.7086 57.3209 26.7053C57.1398 26.6789 57.0179 26.5071 57.0475 26.3287C57.0706 26.1801 57.0904 26.0314 57.1101 25.8828C57.1628 25.483 57.2089 25.0899 57.2452 24.71C57.2617 24.5283 57.4198 24.3929 57.6042 24.4127C57.7854 24.4292 57.9172 24.5911 57.9007 24.7728C57.8645 25.1626 57.8184 25.5656 57.7656 25.972C57.7459 26.1272 57.7228 26.2792 57.6998 26.4311C57.6734 26.593 57.5351 26.7119 57.3736 26.7119L57.3704 26.7086ZM43.3572 26.1338C43.176 26.1338 43.0278 25.9885 43.0278 25.8068V25.602C43.0278 25.0602 43.0409 24.5779 43.0739 24.1319C43.0871 23.9502 43.2485 23.8148 43.4264 23.8247C43.6075 23.8379 43.7459 23.9965 43.7327 24.1782C43.7031 24.6109 43.6866 25.0767 43.6866 25.602V25.8035C43.6866 25.9852 43.5416 26.1338 43.3605 26.1371L43.3572 26.1338ZM57.6701 23.4184H57.6602C57.4791 23.4118 57.3341 23.2631 57.3407 23.0781C57.344 22.8931 57.3473 22.7114 57.3473 22.5297C57.3473 22.163 57.3374 21.7997 57.3176 21.4561C57.3078 21.2744 57.4461 21.1191 57.6273 21.1059C57.8052 21.096 57.9633 21.2348 57.9765 21.4165C57.9962 21.7732 58.0094 22.1498 58.0094 22.5297C58.0094 22.7147 58.0094 22.903 58.0028 23.0946C57.9995 23.273 57.8513 23.4151 57.6734 23.4151L57.6701 23.4184ZM43.6174 22.8469C43.5976 22.8469 43.5746 22.8469 43.5515 22.8403C43.3736 22.8039 43.2584 22.6321 43.2946 22.4505C43.4066 21.8955 43.5548 21.3438 43.736 20.8152C43.7953 20.6434 43.9831 20.551 44.1544 20.6104C44.3256 20.6699 44.4179 20.8582 44.3586 21.03C44.184 21.5321 44.0424 22.054 43.9402 22.5793C43.9106 22.7379 43.7722 22.8436 43.6174 22.8436V22.8469ZM57.4626 20.1281C57.3045 20.1281 57.1661 20.0158 57.1398 19.8539C57.0442 19.2989 56.9191 18.777 56.7609 18.3013C56.7049 18.1295 56.7972 17.9412 56.9718 17.885C57.1464 17.8289 57.3308 17.9214 57.3868 18.0965C57.5548 18.6052 57.6899 19.1602 57.7887 19.7449C57.8184 19.9233 57.6998 20.0951 57.5186 20.1248C57.4988 20.1248 57.4824 20.1281 57.4626 20.1281ZM44.6946 19.735C44.6452 19.735 44.5925 19.7218 44.5431 19.6987C44.3816 19.6161 44.3158 19.4179 44.4014 19.2527C44.6584 18.7473 44.9548 18.2583 45.2809 17.8025C45.3864 17.6538 45.5906 17.6175 45.7388 17.7265C45.8871 17.8322 45.92 18.037 45.8146 18.1857C45.5082 18.6184 45.2282 19.0776 44.9845 19.5566C44.9252 19.6722 44.8099 19.735 44.6913 19.735H44.6946ZM46.6019 17.0559C46.5195 17.0559 46.4372 17.0261 46.3713 16.9634C46.2395 16.8378 46.2395 16.6264 46.3647 16.4976C46.7666 16.0846 47.1981 15.7047 47.6428 15.3744C47.7911 15.2654 47.9953 15.2984 48.104 15.4438C48.2127 15.5891 48.1798 15.7972 48.0348 15.9063C47.6165 16.2168 47.2146 16.567 46.8358 16.9568C46.7699 17.0228 46.6842 17.0559 46.5986 17.0559H46.6019ZM56.4052 17.0195C56.2932 17.0195 56.1812 16.9601 56.1219 16.8544C55.8485 16.382 55.5256 15.9723 55.1699 15.6354C55.0381 15.5098 55.0315 15.3017 55.1567 15.1696C55.2819 15.0374 55.4894 15.0308 55.6212 15.1564C56.0264 15.5396 56.3854 15.9988 56.6918 16.524C56.784 16.6826 56.7313 16.8841 56.5732 16.9766C56.5205 17.0063 56.4645 17.0228 56.4085 17.0228L56.4052 17.0195ZM49.2471 15.12C49.1252 15.12 49.0066 15.0507 48.9506 14.9317C48.8715 14.7666 48.9407 14.5683 49.1054 14.4924C49.6424 14.2347 50.1859 14.0431 50.7261 13.9242C50.904 13.8845 51.0786 13.9968 51.1181 14.1752C51.1576 14.3536 51.0456 14.5287 50.8678 14.5683C50.3769 14.6774 49.8762 14.8524 49.3887 15.087C49.3426 15.1101 49.2932 15.12 49.2471 15.12ZM54.0268 14.8194C53.984 14.8194 53.9379 14.8095 53.8951 14.793C53.4339 14.5948 52.9332 14.4759 52.4094 14.4395C52.2282 14.4263 52.0899 14.271 52.1031 14.0893C52.1162 13.9077 52.2711 13.7689 52.4522 13.7821C53.0518 13.8218 53.6249 13.9572 54.1553 14.1884C54.3233 14.2611 54.3991 14.456 54.3266 14.6212C54.2739 14.7467 54.152 14.8194 54.0235 14.8194H54.0268Z" fill="#FA98FF"/>
<path d="M34.5882 65.4353L76.3906 29.8601C78.6009 28.0102 81.816 28.03 84.0033 29.9064L124.112 65.7029C124.112 65.7029 126.445 75.5737 121.869 75.6034C103.649 75.7124 55.3247 74.6884 35.8927 74.7049C31.7619 74.7082 34.5849 65.4386 34.5849 65.4386L34.5882 65.4353Z" fill="#D9DDFF"/>
<path d="M115.159 33.7748H43.0475C39.9875 33.7748 37.5068 36.2625 37.5068 39.3312V91.9127C37.5068 94.9815 39.9875 97.4692 43.0475 97.4692H115.159C118.219 97.4692 120.7 94.9815 120.7 91.9127V39.3312C120.7 36.2625 118.219 33.7748 115.159 33.7748Z" fill="#BDF2FF"/>
<path d="M6.38733 8.75421L20.8847 21.8393L18.9412 29.0376L14.0923 21.7006L6.38733 8.75421Z" fill="#A49FC8"/>
<path d="M6.38732 8.75421L4.56238 30.1244L16.184 24.862L6.38732 8.75421Z" fill="#D9DDFF"/>
<path d="M30.273 17.7925L20.8847 21.8393L6.38733 8.75421L30.273 17.7925Z" fill="#D9DDFF"/>
<path d="M116.681 124.472H41.5223C36.1068 124.472 31.7158 120.068 31.7158 114.637V72.3858C31.7158 69.6704 34.664 65.029 34.5882 65.432C32.2066 78.0844 68.1586 92.4314 68.1586 92.4314L77.3195 84.1793C78.8579 82.7951 81.2 82.8447 82.6791 84.2916L91.9092 93.3332L122.528 74.6983L123.319 65.1314C123.319 65.1314 126.484 66.9549 126.484 72.3858V114.637C126.484 120.068 122.093 124.472 116.678 124.472H116.681Z" fill="#F0FFFF"/>
<path d="M123.325 65.0125C122.604 69.1617 120.189 72.8186 116.661 75.1046L90.641 92.1605L123.921 121.175C123.921 121.175 126.435 119.256 126.494 114.816C126.583 108.215 126.553 75.7554 126.494 71.6756C126.435 67.5958 123.322 65.0158 123.322 65.0158L123.325 65.0125Z" fill="#D9DDFF"/>
<path d="M34.944 65.1347C35.6654 69.2839 38.08 72.9408 41.608 75.2268L68.1586 92.4347L34.3478 121.294C34.3478 121.294 31.8344 119.375 31.7751 114.935C31.6861 108.334 31.7158 75.8743 31.7751 71.7945C31.8344 67.7147 34.9473 65.1347 34.9473 65.1347H34.944Z" fill="#D9DDFF"/>
<path d="M46.5261 46.5757C46.2527 46.5757 46.032 46.3544 46.032 46.0802C46.032 45.806 46.2527 45.5847 46.5261 45.5847L103.386 45.4063C103.659 45.4063 103.88 45.6276 103.88 45.9018C103.88 46.176 103.659 46.3974 103.386 46.3974L46.5261 46.5757Z" fill="#100030"/>
<path d="M46.5261 55.5744C46.2527 55.5744 46.032 55.3531 46.032 55.0789C46.032 54.8047 46.2527 54.5834 46.5261 54.5834L111.68 54.405C111.954 54.405 112.175 54.6263 112.175 54.9005C112.175 55.1747 111.954 55.396 111.68 55.396L46.5261 55.5744Z" fill="#100030"/>
<path d="M46.5261 64.9365C46.2527 64.9365 46.032 64.7152 46.032 64.441C46.032 64.1668 46.2527 63.9455 46.5261 63.9455L105.718 63.7671C105.992 63.7671 106.212 63.9884 106.212 64.2626C106.212 64.5368 105.992 64.7581 105.718 64.7581L46.5261 64.9365Z" fill="#100030"/>
<path d="M46.5261 75.3755C46.2527 75.3755 46.032 75.1541 46.032 74.8833C46.032 74.6091 46.2527 74.3877 46.5228 74.3844L89.2014 74.2061C89.4748 74.2061 89.6955 74.4274 89.6955 74.6983C89.6955 74.9725 89.4748 75.1938 89.2047 75.1971L46.5261 75.3755Z" fill="#100030"/>
<path d="M135.813 21.1324H114.816C111.621 21.1324 109.032 23.7289 109.032 26.9333V37.99C109.032 41.1944 111.621 43.7909 114.816 43.7909H116.101V48.6008L123.48 43.7909H135.813C139.008 43.7909 141.598 41.1944 141.598 37.99V26.9333C141.598 23.7289 139.008 21.1324 135.813 21.1324Z" fill="#5840FF"/>
<path d="M114.023 29.3679H115.139L117.722 32.7705V29.3679H118.918V34.8979H117.887L115.215 31.383V34.8979H114.019V29.3679H114.023Z" fill="#F0FFFF"/>
<path d="M120.848 29.3679H125.005V30.4515H122.05V31.5746H124.649V32.6582H122.05V33.8177H125.045V34.9012H120.848V29.3712V29.3679Z" fill="#F0FFFF"/>
<path d="M126.306 29.3679H127.604L128.747 33.1108L129.983 29.3514H131.024L132.259 33.1108L133.402 29.3679H134.67L132.789 34.9376H131.735L130.49 31.3203L129.245 34.9376H128.191L126.31 29.3679H126.306Z" fill="#F0FFFF"/>
<path d="M138.91 37.7522L139.338 39.612C139.624 40.8541 140.586 41.9509 141.99 42.638L142.171 42.7272L141.505 43.1368C140.422 43.8075 139.68 44.7423 139.417 45.7796L138.91 47.765L138.653 45.7962C138.521 44.7853 137.941 43.8372 137.009 43.1038L136.568 42.7569C137.823 41.9707 138.603 40.8343 138.725 39.6087L138.91 37.7489V37.7522Z" fill="#FA98FF"/>
<path d="M145.811 35.5025L146.048 36.5266C146.206 37.2104 146.733 37.8149 147.507 38.1915L147.606 38.2411L147.24 38.4657C146.644 38.8357 146.236 39.3511 146.091 39.9193L145.811 41.0127L145.669 39.9292C145.597 39.3742 145.277 38.8522 144.763 38.4459L144.52 38.2543C145.211 37.8216 145.64 37.1972 145.705 36.5233L145.808 35.4992L145.811 35.5025Z" fill="#FA98FF"/>
<path d="M96.9064 20.4122C102.011 20.4122 106.15 16.2621 106.15 11.1426C106.15 6.0232 102.011 1.87308 96.9064 1.87308C91.8014 1.87308 87.6631 6.0232 87.6631 11.1426C87.6631 16.2621 91.8014 20.4122 96.9064 20.4122Z" fill="#F050F8"/>
<path d="M99.5614 6.49464C99.7722 6.59375 99.9567 6.70276 100.121 6.82169C100.154 6.78205 100.181 6.7391 100.204 6.69285C100.365 6.3625 100.23 5.96278 99.8974 5.80091C99.5647 5.63904 99.1694 5.77448 99.008 6.10814C98.9849 6.15438 98.9685 6.20394 98.9553 6.25349C99.1496 6.31295 99.3506 6.39224 99.5581 6.49795L99.5614 6.49464Z" fill="#F0FFFF"/>
<path d="M100.424 14.5783C100.523 14.2611 100.411 13.9968 100.224 13.2833C100.013 12.4838 100.115 12.0081 100.398 11.4267C100.807 10.5877 100.879 10.2243 100.968 9.69241C101.067 9.10439 100.948 7.60461 99.2386 6.79526C97.5487 5.93966 96.3003 6.76553 95.8951 7.20489C95.5294 7.60131 95.289 7.8788 94.8772 8.72118C94.5939 9.3026 94.281 9.67589 93.5233 9.99963C92.848 10.287 92.568 10.3597 92.3803 10.6339C91.7939 11.4928 92.1365 11.8562 92.7525 12.2262C93.4772 12.6622 98.1548 14.9582 98.9421 15.2621C99.6108 15.5197 100.108 15.5693 100.424 14.5783Z" fill="#F0FFFF"/>
<path d="M94.3468 13.65C94.1887 14.2842 94.4852 14.9614 95.0946 15.2621C95.704 15.5627 96.4221 15.3777 96.8207 14.8623C96.0367 14.4857 95.1341 14.0431 94.3468 13.65Z" fill="#F0FFFF"/>
<path d="M101.409 12.2163C101.383 12.2163 101.353 12.2097 101.327 12.1931C101.248 12.1469 101.222 12.0478 101.268 11.9685C102.948 9.03832 101.617 7.86228 101.561 7.81273C101.492 7.75326 101.482 7.65086 101.541 7.58148C101.6 7.51211 101.703 7.5022 101.772 7.55836C101.838 7.61452 103.383 8.94252 101.554 12.1337C101.525 12.1865 101.469 12.2163 101.413 12.2163H101.409Z" fill="#F0FFFF"/>
</svg>
