<svg width="504" height="456" viewBox="0 0 504 456" fill="none" xmlns="http://www.w3.org/2000/svg">
    <g clip-path="url(#clip0_2691_119)">
        <rect x="261.496" y="2.43405" width="240.678" height="450.1" rx="41.6723" fill="url(#paint0_linear_2691_119)" />
        <path
            d="M270.873 48.8532C270.873 28.3954 287.457 11.8111 307.915 11.8111L371.314 11.8111V11.8111C375.075 21.4705 388.792 21.3762 392.786 11.8111V11.8111L455.755 11.8111C476.213 11.8111 492.797 28.3954 492.797 48.8532L492.797 406.115C492.797 426.573 476.212 443.157 455.755 443.157L307.915 443.157C287.457 443.157 270.873 426.573 270.873 406.115L270.873 48.8532Z"
            fill="url(#paint1_linear_2691_119)" />
        <mask id="mask0_2691_119" style="mask-type:alpha" maskUnits="userSpaceOnUse" x="270" y="11" width="223"
            height="433">
            <path
                d="M270.873 48.8532C270.873 28.3954 287.457 11.8111 307.915 11.8111L371.314 11.8111V11.8111C375.075 21.4705 388.792 21.3762 392.786 11.8111V11.8111L455.755 11.8111C476.213 11.8111 492.797 28.3954 492.797 48.8532L492.797 406.115C492.797 426.573 476.212 443.157 455.755 443.157L307.915 443.157C287.457 443.157 270.873 426.573 270.873 406.115L270.873 48.8532Z"
                fill="url(#paint2_linear_2691_119)" />
        </mask>
        <g mask="url(#mask0_2691_119)">
            <path
                d="M215.46 63.0894L349.728 63.0894L374.14 95.3997M374.14 95.3997L455.274 73.1415L481.123 17.8551M374.14 95.3997V46.5753L397.834 5.64896M374.14 95.3997L422.246 139.198M374.14 95.3997L473.943 134.89M374.14 95.3997L265.721 157.866L306.647 210.281M422.246 139.198L473.943 134.89M422.246 139.198L306.647 210.281M473.943 134.89L550.769 139.198M306.647 210.281L356.908 259.105M407.168 307.929L422.246 228.231M407.168 307.929L356.908 259.105M407.168 307.929L405.485 361.78M402.86 445.786L405.485 361.78M422.246 228.231L481.123 215.307M422.246 228.231L356.908 259.105M481.123 215.307L550.769 228.231M481.123 215.307L422.246 450.094M356.908 259.105L293.723 250.489M293.723 250.489L215.46 195.202M293.723 250.489V361.78H405.485"
                stroke="#FFBEBE" stroke-width="20.1042" stroke-linecap="round" stroke-linejoin="round" />
            <path
                d="M364.039 123.301L301.358 158.676C298.169 160.475 297.455 164.758 299.888 167.494L309.231 178.006C311.064 180.068 314.105 180.536 316.473 179.119L379.025 141.711C382.32 139.74 382.792 135.153 379.966 132.554L370.751 124.076C368.919 122.39 366.208 122.077 364.039 123.301Z"
                fill="#FF4B4B" fill-opacity="0.11" />
            <path
                d="M441.294 94.8177L451.578 92.8112C454.238 92.2921 456.711 94.3291 456.711 97.0394V103.31C456.711 106.381 453.589 108.466 450.753 107.289L440.469 103.025C436.527 101.391 437.106 95.6349 441.294 94.8177Z"
                fill="#FF4B4B" fill-opacity="0.11" />
            <path
                d="M469.787 84.112L483.652 53.0105C487.538 44.2921 500.249 45.3915 502.581 54.6478L515.792 107.093C517.462 113.721 512.172 120.047 505.353 119.577L479.876 117.82C478.335 117.713 476.838 117.253 475.503 116.474L473.904 115.541C470.815 113.74 468.917 110.433 468.917 106.858V88.2048C468.917 86.7945 469.213 85.4 469.787 84.112Z"
                fill="#FF4B4B" fill-opacity="0.11" />
            <path
                d="M312.391 321.107V284.407C312.391 278.266 317.85 273.56 323.924 274.465L343.033 277.311C345.054 277.612 346.936 278.522 348.427 279.92L360.286 291.038C364.875 295.34 364.43 302.751 359.36 306.474L328.392 329.21C321.753 334.084 312.391 329.343 312.391 321.107Z"
                fill="#FF4B4B" fill-opacity="0.11" />
            <path
                d="M370.705 306.977L330.646 335.285C327.214 337.71 328.93 343.112 333.132 343.112H382.756C385.135 343.112 387.064 341.183 387.064 338.804V318.55C387.064 317.279 386.503 316.073 385.531 315.254L375.966 307.2C374.467 305.938 372.305 305.846 370.705 306.977Z"
                fill="#FF4B4B" fill-opacity="0.11" />
            <path
                d="M392.64 271.861L388.57 267.791C387.149 266.37 387.59 263.966 389.423 263.142L394.848 260.7C396.988 259.737 399.317 261.608 398.839 263.905L397.482 270.416C397.016 272.651 394.254 273.475 392.64 271.861Z"
                fill="#FF4B4B" fill-opacity="0.11" />
            <path
                d="M351.663 33.7358L366.694 8.18296C368.643 4.87038 365.607 0.857522 361.889 1.83123L256.672 29.3882C251.73 30.6826 252.751 37.9762 257.859 37.8627L348.045 35.8585C349.537 35.8254 350.906 35.0223 351.663 33.7358Z"
                fill="#FF4B4B" fill-opacity="0.11" />
            <path
                d="M399.936 44.0852L407.119 32.7123C407.617 31.9235 408.358 31.3177 409.23 30.9861L446.824 16.6896C450.69 15.2195 454.205 19.5119 452.001 23.0117L435.33 49.4889C434.765 50.3867 433.888 51.0443 432.868 51.3358L404.762 59.3662C402.01 60.1525 399.27 58.0861 399.27 55.2239V46.3856C399.27 45.5713 399.501 44.7737 399.936 44.0852Z"
                fill="#FF4B4B" fill-opacity="0.11" />
            <path fill-rule="evenodd" clip-rule="evenodd"
                d="M383.193 112.929C396.933 112.929 407.089 119.879 407.089 138.575C407.089 155.791 394.104 174.507 387.278 183.156C385.123 185.886 381.177 185.966 378.93 183.312C371.827 174.921 358.342 156.616 358.342 138.575C358.342 121.645 369.453 112.929 383.193 112.929ZM382.715 145.391C387.202 145.391 390.84 141.753 390.84 137.266C390.84 132.779 387.202 129.142 382.715 129.142C378.228 129.142 374.591 132.779 374.591 137.266C374.591 141.753 378.228 145.391 382.715 145.391Z"
                fill="#E12424" />
        </g>
        <mask id="mask1_2691_119" style="mask-type:alpha" maskUnits="userSpaceOnUse" x="32" y="48" width="220"
            height="325">
            <path
                d="M227.829 51.5304H226.836L137.496 62.9426C136.405 63.0802 135.371 63.4436 134.485 64.0005C133.599 64.5575 132.889 65.2909 132.416 66.136L84.4764 152.161L36.478 238.185C35.9609 239.122 35.753 240.16 35.8764 241.188C35.9998 242.217 36.4498 243.198 37.1787 244.028C37.7946 244.745 38.603 245.328 39.5371 245.728C40.4712 246.129 41.5042 246.335 42.5508 246.33H43.5727L85.5566 240.933L117.964 236.7L47.631 361.219C46.9185 362.471 46.7708 363.901 47.2157 365.239C47.6605 366.576 48.6672 367.73 50.046 368.482C51.4248 369.234 53.0804 369.532 54.7007 369.321C56.321 369.109 57.7941 368.403 58.8422 367.334L117.555 308.069L246.018 178.401C246.881 177.59 247.451 176.584 247.659 175.505C247.866 174.427 247.703 173.32 247.189 172.317C246.675 171.315 245.832 170.459 244.759 169.853C243.687 169.246 242.431 168.913 241.142 168.895H240.033L196.677 174.539L165.846 178.575L233.843 59.7492C234.232 59.0798 234.462 58.3518 234.518 57.6071C234.574 56.8624 234.457 56.1156 234.172 55.4095C233.887 54.7034 233.441 54.0519 232.858 53.4925C232.276 52.933 231.569 52.4766 230.778 52.1493C229.866 51.7795 228.869 51.585 227.858 51.5799L227.829 51.5304Z"
                fill="#FF0074" stroke="#FF0074" stroke-width="7.00511" stroke-linecap="round" stroke-linejoin="round" />
        </mask>
        <g mask="url(#mask1_2691_119)">
            <path
                d="M201.966 69.295L197.291 59.9446L140.38 53.3298C139.225 53.4755 138.13 53.8602 137.191 54.4501C136.253 55.0399 135.501 55.8166 135 56.7115L84.2337 147.809L33.4052 238.906C32.8576 239.898 32.6374 240.997 32.7681 242.086C32.8988 243.175 33.3754 244.214 34.1472 245.092C34.7994 245.852 35.6555 246.47 36.6446 246.894C37.6338 247.317 38.7277 247.536 39.836 247.53H40.9182L85.3777 241.816L102.537 239.574L119.696 237.333L45.2158 369.194C44.4613 370.52 44.3049 372.034 44.776 373.451C45.2471 374.868 46.3131 376.089 47.7732 376.886C49.2333 377.682 50.9865 377.998 52.7024 377.774C54.4182 377.55 55.9782 376.801 57.0881 375.669L119.263 312.911L255.301 175.596C256.215 174.737 256.818 173.672 257.038 172.53C257.258 171.387 257.085 170.215 256.541 169.154C255.996 168.092 255.103 167.186 253.968 166.544C252.832 165.901 251.503 165.549 250.138 165.53H248.963L203.05 171.507L170.401 175.78L214.121 97.345C200.096 105.76 197.291 94.54 211.316 87.0594C211.376 86.2707 204.138 81.2627 203.836 80.515C203.534 79.7673 206.323 82.9775 205.706 82.385C205.089 81.7926 167.575 109.78 204.771 71.1651C165.774 111.649 173.472 102.903 203.836 71.165L201.966 69.295Z"
                fill="url(#paint3_linear_2691_119)" stroke="url(#paint4_linear_2691_119)" stroke-width="3.2306"
                stroke-linecap="round" stroke-linejoin="round" />
        </g>
        <path
            d="M121.062 282.156C111.453 314.94 97.0114 390.343 116.12 429.683C109.805 427.792 95.3639 426.279 88.1157 435.357"
            stroke="#FFCBD4" stroke-width="6.58928" stroke-linecap="round" stroke-linejoin="round" />
        <path d="M72.8405 216.09C26.1839 257.23 51.8441 276.666 92.0484 276.666" stroke="#FFCBD4" stroke-width="6.58928"
            stroke-linecap="round" stroke-linejoin="round" />
        <path d="M193.059 214.759C193.059 257.931 212.606 304.362 243.561 245.712" stroke="#FFCBD4"
            stroke-width="6.58928" stroke-linecap="round" stroke-linejoin="round" />
        <path
            d="M140.827 282.156C150.436 314.94 164.877 390.343 145.768 429.683C152.083 427.792 166.525 426.279 173.773 435.357"
            stroke="#FFCBD4" stroke-width="6.58928" stroke-linecap="round" stroke-linejoin="round" />
        <path d="M172.453 146.538C167.585 143.029 164.227 142.004 157.424 144.289" stroke="#1B063A"
            stroke-width="4.11373" stroke-linecap="round" />
        <path d="M125.447 192.274C130.891 194.8 134.382 195.171 140.63 191.641" stroke="#1B063A" stroke-width="4.11373"
            stroke-linecap="round" />
        <path d="M99.5462 146.538C104.414 143.029 107.772 142.004 114.575 144.289" stroke="#1B063A"
            stroke-width="4.11373" stroke-linecap="round" />
        <line x1="107.367" y1="178.129" x2="107.367" y2="187.416" stroke="#1B063A" stroke-width="15.4781"
            stroke-linecap="round" />
        <line x1="163.094" y1="178.129" x2="163.094" y2="187.416" stroke="#1B063A" stroke-width="15.4781"
            stroke-linecap="round" />
        <path
            d="M217.742 69.1297C225.474 83.0579 226.505 106.707 226.054 116.791C230.638 121.06 230.796 124.746 230.302 126.056C229.359 131.068 227.18 131.198 226.209 130.636C214.564 123.769 198.254 120.247 188.192 118.656C178.13 117.066 171.743 117.579 154.696 117.551C141.059 117.529 121.359 117.865 113.214 118.036C106.193 117.087 74.501 120.376 59.5326 122.139C55.8377 121.88 55.6894 119.479 56.0771 118.312C63.136 107.41 72.2919 100.89 75.9876 98.9924C77.3143 86.6611 81.1932 76.1279 82.9669 72.4027C83.4754 71.3346 83.3012 71.4923 83.9145 70.0208C84.4872 68.6467 84.6324 68.3845 84.9694 67.7312C89.6394 58.6788 94.4124 52.7931 96.2152 50.9819C105.795 40.7509 117.337 36.1217 121.91 35.0861C122.075 34.404 124.887 32.4637 134.812 30.1588C147.219 27.2776 163.096 28.4237 175.094 32.3513C184.692 35.4935 192.712 42.8111 195.522 46.0772C202.836 50.8599 209.528 58.7627 211.96 62.1163C214.368 63.9403 216.818 67.5519 217.742 69.1297Z"
            fill="#FFC532" stroke="#F8C050" stroke-width="0.450528" stroke-linecap="round" />
        <path
            d="M218.984 77.4418C203.929 58.35 200.776 88.8242 205.234 103.796C216.435 109.246 222.316 113.703 223.857 115.25C225.425 96.0925 221.262 82.0623 218.984 77.4418Z"
            fill="#E8A726" stroke="#E8A726" stroke-width="0.450528" stroke-linecap="round" />
        <path
            d="M150.613 41.2741C169.697 29.2724 188.288 39.1557 195.198 45.5976C201.725 50.0691 208.819 57.8398 211.55 61.1663C187.139 47.8704 182.986 79.4737 183.961 96.9373C173.451 92.6399 145.388 90.0205 132.724 90.9885L128.407 91.3185C128.082 91.3433 126.757 56.2762 150.613 41.2741Z"
            fill="#E8A726" stroke="#E8A726" stroke-width="0.450528" stroke-linecap="round" />
        <path
            d="M121.81 35.1429C98.3472 43.7239 88.5086 78.6218 86.5222 94.9981C81.3678 95.8741 77.3332 98.0434 75.9602 99.0185C76.9283 88.3012 80.3566 78.3747 82.9414 72.4538C83.3269 71.5709 83.3585 71.3425 83.8832 69.9971C84.4079 68.6517 84.4455 68.7743 84.9152 67.7343C93.4169 48.9104 108.852 39.0201 121.81 35.1429Z"
            fill="#E8A726" stroke="#E8A726" stroke-width="0.450528" stroke-linecap="round" />
        <path
            d="M121.246 23.5371C157.581 11.8736 187.139 30.0978 193.711 43.8285C145.418 16.2925 127.585 68.7137 127.793 91.7919C117.171 90.2342 95.8954 93.0921 86.4536 94.8011C91.4356 63.0324 111.724 34.0548 121.246 23.5371Z"
            fill="#FFC532" stroke="#FFC532" stroke-width="0.450528" stroke-linecap="round" />
        <path
            d="M120.135 113.856C132.885 114.279 167.602 113.065 183.861 113.077C190.669 112.557 209.37 120.582 215.69 122.266C205.796 114.99 197.656 105.043 182.569 105.043C154.17 105.265 101.298 107.146 78.1977 107.724C72.2096 107.873 65.095 109.769 63.5498 113.462C62.0046 117.155 64.3432 117.493 65.8782 117.652C92.4881 114.714 93.7865 112.982 120.135 113.856Z"
            fill="white" fill-opacity="0.4" />
        <path
            d="M126.019 23.2478C146.653 17.6543 169.828 22.325 181.25 32.8483C162.477 27.9667 150.798 31.1596 142.996 39.7636C132.722 33.0383 119.842 34.3876 116.016 36.8807C119.009 31.3704 124.104 25.0091 126.019 23.2478Z"
            fill="white" fill-opacity="0.4" />
        <path d="M77.6084 158.12H187.938" stroke="#180048" stroke-width="3.73999" stroke-linecap="round" />
        <path
            d="M123.424 183.364C100.986 226.374 67.326 192.714 77.6092 158.12H188.874C198.226 215.154 151.476 214.219 142.124 183.364C135.581 169.339 127.96 174.669 123.424 183.364Z"
            fill="white" fill-opacity="0.4" />
        <path
            d="M101.008 266.891L99.3789 269.655C99.3789 269.655 118.31 278.648 161.287 269.335C163.731 266.077 165.36 264.447 165.36 264.447C165.36 264.447 134.555 273.656 101.008 266.891Z"
            fill="#180048" />
        <path
            d="M96.8452 268.757C95.6301 274.735 93.2691 280.342 89.6329 285.326C89.6329 285.326 100.61 291.828 119.435 295.846C121.979 296.458 123.672 273.211 123.672 273.211C123.672 273.211 97.0887 267.613 96.8452 268.757Z"
            fill="#A49FC8" />
        <path
            d="M99.5282 270.637L93.9429 284.653C93.9429 284.653 108.095 291.379 118.518 292.808C119.484 287.34 120.821 280.727 121.65 274.245"
            stroke="#180048" stroke-width="0.417626" stroke-miterlimit="10" stroke-dasharray="1.68 1.68" />
        <path
            d="M135.447 250.749C135.268 250.545 135.28 250.354 135.101 250.151C134.766 249.361 134.228 248.751 133.474 248.511C132.733 248.081 131.967 248.033 131.202 247.984L133.067 251.944L128.724 253.785L126.656 250.005C126.656 250.005 125.208 251.643 125.985 254.574C126.761 257.505 130.972 257.769 130.972 257.769L132 259.755L137.093 270.45L137.787 271.647L140.166 276.6C139.747 277.15 139.52 277.712 139.292 278.274C137.042 283.513 143.681 284.89 143.681 284.89L141.816 280.93L146.17 278.898L148.227 282.87C152.128 275.813 143.922 274.914 143.922 274.914L142.739 272.342L142.404 271.552L142.057 270.954L136.797 259.864L136.629 259.469L135.099 256.299C135.721 255.569 136.164 254.636 136.416 253.692C135.901 252.699 135.77 251.73 135.447 250.749Z"
            fill="#D9DDFF" />
        <path d="M132.996 259.241L139.966 273.705" stroke="#6018C8" stroke-width="0.145869" stroke-linecap="round"
            stroke-linejoin="round" />
        <path d="M134.183 258.548L141.333 273.215" stroke="#6018C8" stroke-width="0.145869" stroke-linecap="round"
            stroke-linejoin="round" />
        <path
            d="M154.405 260.969C154.034 260.753 153.652 260.729 153.257 260.897C153.46 260.717 153.472 260.526 153.484 260.334L160.426 244.63L160.127 243.266L162.233 240.324L164.29 241.222L163.679 244.834L162.483 245.528L155.505 261.806C155.146 261.399 154.788 260.993 154.405 260.969Z"
            fill="#2D19BE" />
        <path
            d="M149.706 283.732C150.149 282.799 154.686 271.747 156.445 268.207C156.9 267.083 156.972 265.934 156.852 264.774C156.733 263.614 156.028 262.609 155.322 261.604L162.3 245.325L163.496 244.632L164.095 241.211L162.038 240.313L159.932 243.255L160.231 244.619L153.289 260.323C153.277 260.515 153.073 260.694 152.87 260.873C151.506 261.172 149.748 261.638 148.395 264.82L141.86 280.165C141.633 280.727 141.585 281.493 141.537 282.259C141.68 283.036 142.027 283.634 142.386 284.041C143.486 284.879 144.802 285.346 146.129 285.621C146.704 285.657 147.481 285.514 148.079 285.167C148.869 284.832 149.479 284.294 149.706 283.732Z"
            fill="#D9DDFF" />
        <path
            d="M131.638 271.227C129.115 271.195 129.353 295.578 132.025 295.241C143.203 294.175 154.327 291.969 165.151 288.481C161.883 280.195 162.311 269.363 162.35 268.735C162.389 268.106 137.321 271.205 131.638 271.227Z"
            fill="#A49FC8" />
        <path
            d="M134.671 271.164C134.671 271.164 133.166 289.126 134.046 291.201C135.68 291.304 152.707 289.594 160.639 285.925C157.064 280.524 158.938 268.773 158.938 268.773"
            stroke="#180048" stroke-width="0.417626" stroke-miterlimit="10" stroke-dasharray="1.68 1.68" />
        <path
            d="M233.935 231.416C233.935 231.416 254.48 274.034 257.332 278.212C260.184 282.389 253.02 288.404 249.455 284.846C245.819 281.397 225.428 236.402 225.428 236.402C225.428 236.402 231.181 236.123 233.935 231.416Z"
            fill="#6675F6" />
        <path
            d="M235.63 225.245C235.63 225.245 233.002 228.332 234.431 230.654C236.484 234.157 231.204 234.899 230.731 234.436C230.258 233.974 227.032 228.47 231.965 225.645C237.078 222.782 237.437 222.707 237.437 222.707L235.63 225.245Z"
            fill="#2D19BE" />
        <path
            d="M211.6 238.39L211.529 238.498C211.529 238.498 211.458 238.607 211.35 238.536L211.241 238.466L211.132 238.395C210.465 236.567 209.7 232.511 213.307 230.061C216.772 227.828 220.274 225.775 223.995 223.863C223.995 223.863 229.687 224.627 228.363 228.563C227.318 231.597 229.393 233.876 230.301 234.622L230.41 234.692L230.448 234.872L230.377 234.98L230.306 235.089L225.537 236.473C225.107 236.657 224.71 236.554 224.243 236.559C223.846 236.456 223.52 236.243 223.194 236.031C222.248 235.106 221.373 234.073 220.569 232.93C219.505 230.999 214.242 230.05 212.521 233.883C212.069 235.291 211.726 236.769 211.6 238.39Z"
            fill="#2D19BE" />
        <path
            d="M228.016 226.481C226.914 224.371 224.103 223.934 224.103 223.934L212.022 231.083C212.022 231.083 215.579 220.863 226.71 218.977C226.71 218.977 227.395 219.113 230.206 219.55C234.169 220.118 236.696 214.334 236.696 214.334C237.085 217.064 239.166 219.811 243.477 222.461C239.617 221.496 232.96 224.592 230.37 227.858C227.78 231.124 231.312 234.971 231.312 234.971C231.312 234.971 228.913 236.04 227.778 234.218C225.909 231.145 229.119 228.591 228.016 226.481Z"
            fill="#5840FF" />
        <path
            d="M214.27 235.951C214.27 235.951 213.256 232.041 215.98 231.183C214.191 232.031 212.184 232.736 212.736 237.119L214.27 235.951Z"
            fill="#2D19BE" />
        <path
            d="M234.706 232.847C234.706 232.847 236.294 233.261 235.799 234.022C235.303 234.783 225.628 238.235 225.085 237.881C224.541 237.528 224.999 236.587 224.999 236.587C224.999 236.587 234.249 233.787 234.706 232.847Z"
            fill="#2D1A83" />
        <path
            d="M239.785 210.775L237.642 212.166C237.212 212.351 236.929 212.786 236.755 213.291C236.581 213.797 236.477 214.194 236.591 214.732C236.933 216.347 237.563 217.995 238.584 219.279C239.605 220.562 240.948 221.591 242.503 222.293C242.72 222.435 243.008 222.467 243.296 222.5C243.584 222.533 243.835 222.386 244.085 222.24C247.408 220.224 247.196 220.55 247.196 220.55L239.785 210.775Z"
            fill="#6675F6" />
        <path
            d="M247.16 220.369C245.555 221.646 242.522 220.6 240.441 217.853C238.36 215.106 238.073 211.979 239.787 210.773C241.392 209.496 244.425 210.542 246.506 213.289C248.478 215.965 248.764 219.092 247.16 220.369Z"
            fill="#5840FF" />
        <path
            d="M222.555 220.606C222.555 220.606 216.398 223.408 214.079 228.398C213.41 229.664 213.66 229.518 213.66 229.518L219.877 225.672C219.877 225.672 210.816 229.369 222.555 220.606Z"
            fill="#6675F6" />
        <path
            d="M226.933 219.586L225.066 223.168C225.066 223.168 227.268 223.827 227.599 224.507C227.93 225.187 227.442 223.322 226.534 222.576C225.665 222.01 226.933 219.586 226.933 219.586Z"
            fill="#6675F6" />
        <path
            d="M17.2785 45.3113L16.5567 18.1567L16.63 18.1328L24.2546 33.1103L34.6349 28.5131L37.199 56.8708L37.1209 56.8969L27.6532 40.7196L17.2785 45.3113Z"
            fill="#FFA26B" />
        <path
            d="M0.323186 74.3381L14.8078 61.4009L14.8569 61.4248L10.4127 72.0029L18.0167 74.8163L3.77802 89.1889L3.72559 89.1638L7.92129 77.1507L0.323186 74.3381Z"
            fill="#5840FF" />
    </g>
    <defs>
        <linearGradient id="paint0_linear_2691_119" x1="381.835" y1="2.43405" x2="381.835" y2="452.534"
            gradientUnits="userSpaceOnUse">
            <stop stop-color="#FF8282" />
            <stop offset="1" stop-color="#FFC793" />
        </linearGradient>
        <linearGradient id="paint1_linear_2691_119" x1="381.835" y1="11.8111" x2="381.835" y2="443.157"
            gradientUnits="userSpaceOnUse">
            <stop stop-color="#FFE2E2" />
            <stop offset="1" stop-color="#FEFFDF" />
        </linearGradient>
        <linearGradient id="paint2_linear_2691_119" x1="381.835" y1="11.8111" x2="381.835" y2="443.157"
            gradientUnits="userSpaceOnUse">
            <stop stop-color="#FFE2E2" />
            <stop offset="1" stop-color="#FEFFDF" />
        </linearGradient>
        <linearGradient id="paint3_linear_2691_119" x1="172.299" y1="-79.881" x2="116.097" y2="314.506"
            gradientUnits="userSpaceOnUse">
            <stop offset="0.0001" stop-color="#F050F8" />
            <stop offset="0.890625" stop-color="#F8C050" />
        </linearGradient>
        <linearGradient id="paint4_linear_2691_119" x1="176.175" y1="-106.044" x2="95.7473" y2="321.289"
            gradientUnits="userSpaceOnUse">
            <stop stop-color="#F050F8" />
            <stop offset="0.911458" stop-color="#F8C050" />
        </linearGradient>
        <clipPath id="clip0_2691_119">
            <rect width="504" height="456" fill="white" />
        </clipPath>
    </defs>
</svg>